<?xml version="1.0" standalone="no"?>
<!DOCTYPE svg PUBLIC "-//W3C//DTD SVG 20010904//EN"
 "http://www.w3.org/TR/2001/REC-SVG-20010904/DTD/svg10.dtd">
<svg version="1.0" xmlns="http://www.w3.org/2000/svg"
 width="1125.000000pt" height="750.000000pt" viewBox="0 0 1125.000000 750.000000"
 preserveAspectRatio="xMidYMid meet">
<metadata>
Created by potrace 1.16, written by Peter Selinger 2001-2019
</metadata>
<g transform="translate(0.000000,750.000000) scale(0.100000,-0.100000)"
fill="#000000" stroke="none">
<path d="M0 5511 l0 -1989 43 -34 c64 -51 100 -72 126 -75 14 -1 38 -16 55
-34 l31 -32 -35 22 -35 23 29 -26 c17 -13 32 -24 35 -24 8 2 49 -18 88 -42 18
-11 33 -17 33 -13 0 6 -25 49 -80 138 -21 33 -44 78 -50 100 -7 22 -30 63 -50
90 -37 49 -85 135 -76 135 3 0 13 -8 22 -17 17 -17 17 -17 10 2 -5 11 -16 40
-24 65 -8 25 -36 67 -61 95 -42 46 -43 47 -6 12 23 -20 44 -37 48 -37 4 0 7
29 7 64 0 65 0 65 -50 112 -32 31 -46 50 -39 55 6 4 9 12 5 17 -4 6 -4 40 0
76 7 72 12 75 86 54 34 -10 39 -16 54 -67 20 -68 65 -157 121 -234 36 -51 42
-56 48 -38 8 25 -19 124 -39 140 -7 6 -22 49 -32 96 -11 53 -23 84 -30 81 -6
-2 -17 0 -25 5 -17 10 5 12 96 9 82 -2 205 -45 187 -65 -4 -5 -2 -5 5 -2 6 4
35 -5 65 -21 102 -52 115 -54 261 -57 100 -2 167 -9 227 -23 113 -27 259 -37
335 -23 71 13 123 40 281 144 65 44 143 90 173 103 30 14 56 26 58 28 2 1 8
28 13 59 20 107 61 157 231 278 51 36 72 59 102 115 70 128 100 160 185 202
66 33 81 37 109 29 26 -8 38 -6 65 11 18 11 48 23 66 25 18 3 39 11 47 17 32
27 226 52 385 51 174 -2 202 2 350 54 58 20 134 39 170 42 36 3 76 12 88 20
24 15 29 16 115 28 54 7 174 54 218 86 16 11 96 51 177 88 191 87 323 116 494
109 118 -6 257 4 343 23 149 33 231 68 334 144 94 69 174 109 288 144 72 22
114 41 139 64 41 35 61 44 219 92 136 42 337 79 390 72 22 -3 150 -28 285 -56
249 -51 414 -72 596 -76 100 -3 103 -4 175 -46 296 -171 602 -423 803 -659
118 -139 263 -337 214 -292 l-25 22 -169 -24 c-93 -14 -204 -32 -248 -40 -77
-15 -219 -29 -451 -44 -160 -11 -606 -5 -675 9 -30 6 -84 20 -120 32 -71 23
-198 28 -326 13 -66 -8 -74 -7 -103 15 l-31 23 -83 -17 c-92 -19 -163 -22
-172 -7 -4 6 -11 8 -16 5 -5 -3 -6 0 -3 8 3 8 2 17 -3 20 -17 10 -142 -42
-228 -96 -104 -66 -151 -101 -120 -91 11 4 27 11 35 17 8 5 2 -3 -14 -17 -27
-26 -29 -26 -48 -9 -11 10 -28 34 -37 53 -19 41 -31 42 -129 1 -75 -30 -181
-99 -296 -191 -57 -46 -82 -61 -98 -57 -14 4 -77 -18 -177 -62 -155 -67 -179
-80 -298 -165 -58 -41 -193 -96 -236 -96 -10 0 -35 14 -56 30 -21 17 -54 35
-74 41 -21 5 -37 16 -37 24 0 42 -88 58 -160 29 -31 -13 -44 -14 -53 -5 -6 6
-16 11 -22 11 -5 0 -2 -5 8 -11 17 -10 13 -15 -34 -46 -29 -20 -71 -55 -93
-77 -23 -23 -61 -57 -86 -76 -25 -19 -121 -107 -215 -195 -98 -92 -194 -174
-227 -193 -66 -37 -375 -241 -431 -285 -57 -44 -417 -220 -537 -262 -114 -39
-423 -135 -455 -141 -11 -1 -68 -13 -127 -25 l-107 -21 -116 114 c-117 114
-163 151 -134 111 18 -25 166 -165 188 -177 16 -9 40 -36 41 -46 0 -3 -26 -3
-57 -2 -48 3 -62 9 -84 32 -14 15 -29 34 -33 42 -28 56 -70 102 -91 103 -5 0
-22 8 -37 18 -15 10 -33 15 -39 11 -7 -4 -9 -3 -6 2 3 6 -3 15 -13 22 -12 7
-21 8 -25 2 -3 -6 -11 -10 -16 -10 -6 0 -8 4 -5 9 7 10 -22 24 -34 16 -4 -3
-25 2 -45 11 -21 8 -56 17 -79 19 -22 2 -59 10 -81 18 -88 32 -158 29 -124 -6
8 -8 25 -17 36 -21 12 -4 45 -30 75 -58 l53 -52 -45 30 c-50 33 -200 108 -205
102 -2 -2 23 -21 55 -43 32 -22 57 -41 56 -43 -2 -2 -40 16 -85 39 -44 24 -83
40 -87 37 -3 -4 9 -14 28 -24 42 -22 157 -125 158 -141 0 -7 -7 -13 -16 -13
-11 0 -14 5 -10 16 5 14 4 15 -9 4 -12 -10 -18 -11 -28 -1 -9 10 -8 11 6 6 12
-5 17 -2 17 9 0 9 -3 16 -8 16 -4 0 -19 11 -34 25 -14 13 -39 27 -55 30 l-28
6 29 -26 c15 -14 25 -29 22 -32 -4 -4 -28 14 -54 39 -79 75 -164 139 -179 134
-8 -3 -12 -2 -9 3 3 5 -2 15 -11 22 -14 12 -16 12 -8 -1 4 -8 -3 -4 -17 10
-53 54 -99 92 -111 94 -7 1 -29 14 -49 30 -27 20 -51 56 -87 129 -27 56 -53
115 -57 130 -7 30 -78 110 -106 120 -9 3 -18 16 -21 29 -2 13 -5 4 -6 -20 0
-24 3 -41 8 -38 4 3 6 -7 4 -22 -3 -18 -2 -23 5 -14 9 13 42 -114 42 -164 0
-16 4 -23 12 -18 7 4 8 3 4 -5 -9 -14 43 -118 106 -214 10 -15 25 -38 33 -52
9 -14 20 -23 24 -21 5 3 33 -22 62 -57 30 -34 65 -71 79 -81 33 -25 116 -112
140 -146 l19 -27 -48 9 c-27 5 -81 19 -119 32 -39 14 -113 32 -166 42 -52 10
-93 21 -91 24 7 11 -162 83 -174 75 -6 -3 -11 -2 -11 2 0 5 -16 10 -35 11
l-35 3 0 -1631 0 -1630 5258 1 c3316 1 5242 5 5217 10 -22 6 -62 16 -89 24
-26 8 -64 15 -83 15 -19 0 -46 6 -61 14 -15 7 -65 19 -112 25 -47 7 -106 17
-132 22 -26 6 -75 10 -110 9 -35 -1 -78 -2 -95 -1 -18 1 -33 -2 -33 -7 0 -10
-162 -3 -175 8 -5 4 -81 7 -167 6 -86 -1 -152 2 -145 6 18 11 -10 10 -116 -6
-97 -15 -126 -16 -125 -7 2 23 -8 32 -54 46 -36 10 -71 13 -109 9 -44 -5 -64
-2 -102 15 -31 14 -56 19 -73 15 -18 -5 -25 -3 -20 4 3 6 20 13 36 17 47 10
35 25 -19 25 -28 0 -53 5 -57 12 -5 8 -11 6 -20 -6 -8 -11 -14 -13 -19 -7 -3
6 -16 12 -28 12 -17 1 -18 2 -4 6 29 8 19 23 -15 23 -18 0 -40 5 -48 10 -12 8
-11 10 8 10 12 0 22 4 22 9 0 12 -63 21 -75 10 -15 -14 -75 -10 -92 6 -13 14
-10 17 29 34 l43 20 -60 0 c-43 1 -56 4 -45 11 8 5 25 10 38 10 13 0 21 4 18
9 -3 5 -15 7 -26 4 -11 -3 -20 0 -20 6 0 6 9 11 20 11 10 0 23 6 27 13 4 7 20
18 36 24 36 16 36 37 0 28 l-28 -7 28 26 c15 14 34 23 42 20 9 -4 15 0 15 9 0
9 -8 17 -17 19 -26 5 33 40 82 49 22 4 56 12 75 17 l35 10 -35 2 -35 3 35 6
35 6 -44 18 c-24 10 -42 19 -40 21 13 13 158 12 294 -1 310 -30 305 -29 255
-33 -42 -2 -43 -3 -15 -10 28 -7 28 -8 5 -9 l-25 -2 25 -15 c14 -8 17 -13 8
-10 -10 3 -18 1 -18 -4 0 -6 3 -10 8 -11 4 0 43 -3 87 -5 91 -6 113 -14 37
-14 -28 0 -54 -5 -58 -12 -5 -8 0 -9 14 -6 12 4 20 2 16 -3 -3 -5 3 -10 13
-11 10 0 29 -2 43 -3 14 -2 66 -6 115 -10 50 -4 96 -12 102 -17 18 -14 5 -30
-18 -23 -10 4 -19 2 -19 -4 0 -5 21 -13 48 -16 26 -3 56 -10 67 -15 17 -8 16
-9 -9 -9 -16 -1 -27 -4 -24 -7 8 -7 164 -19 255 -19 39 0 69 -3 66 -7 -2 -5
-12 -8 -21 -8 -13 0 -14 -2 -4 -9 22 -13 -10 -21 -96 -22 -74 -2 -72 -2 38
-11 80 -7 139 -6 193 2 44 6 81 10 83 7 6 -6 -90 -25 -176 -35 l-75 -9 110 -1
c64 -1 135 5 169 13 43 10 65 11 79 3 17 -9 19 -8 13 8 -6 15 -5 17 5 6 10 -9
10 -15 2 -23 -6 -6 -9 -18 -6 -26 5 -12 1 -14 -18 -9 -20 6 -21 5 -7 -4 12 -7
24 -8 36 -1 10 5 33 6 52 2 l35 -8 -37 -17 c-21 -9 -42 -16 -48 -16 -5 0 -10
-4 -10 -10 0 -5 8 -10 18 -10 47 1 222 49 222 62 0 4 9 8 19 8 11 0 41 11 68
25 26 14 53 23 60 21 7 -3 12 0 10 7 -1 7 4 11 11 9 6 -1 12 5 12 14 0 8 5 12
10 9 6 -4 8 -11 5 -16 -3 -5 1 -6 9 -3 11 4 14 14 10 30 -4 15 -2 24 5 24 6 0
11 -3 11 -7 0 -5 11 -100 25 -213 14 -113 25 -208 25 -212 0 -5 128 -8 285 -8
l285 0 0 3750 0 3750 -5625 0 -5625 0 0 -1989z m6335 1219 c6 -3 29 -7 53 -8
24 0 56 -8 73 -16 16 -8 38 -12 47 -9 9 3 14 2 9 -2 -4 -5 5 -15 20 -22 16 -7
19 -11 8 -7 -11 3 -51 8 -89 10 -39 3 -79 10 -90 16 -26 14 -104 20 -111 8 -3
-6 -16 -10 -28 -9 -20 1 -20 2 3 9 24 8 24 8 -7 9 -17 1 -38 -6 -46 -14 -9 -8
-17 -11 -19 -6 -4 11 -68 22 -68 12 0 -5 6 -11 13 -14 6 -2 -10 -5 -38 -5 -29
-1 -52 4 -57 11 -6 9 -8 9 -8 0 0 -7 -10 -13 -22 -13 -12 0 -19 3 -15 6 3 3 9
6 14 6 4 -1 15 5 23 13 9 8 53 16 105 20 49 4 91 8 93 10 6 6 127 2 137 -5z
m-3400 -916 c-29 -24 -176 -130 -324 -232 -41 -29 -80 -52 -88 -52 -7 0 -13
-4 -13 -10 0 -5 -8 -10 -17 -10 -13 0 -8 9 18 36 77 81 230 214 239 209 6 -4
8 -11 5 -16 -12 -18 50 16 80 43 16 16 34 27 41 24 6 -2 24 4 40 14 42 27 54
23 19 -6z m-624 -500 c-18 -24 -29 -48 -26 -54 3 -5 2 -10 -2 -10 -10 0 -38
-60 -49 -103 -3 -15 -17 -36 -30 -46 -17 -13 -20 -21 -12 -24 9 -3 6 -12 -11
-28 l-23 -24 6 30 c7 29 7 29 -8 10 -10 -13 -15 -15 -16 -7 0 8 9 25 20 39 11
14 20 33 20 42 0 20 38 93 54 103 17 12 -3 9 -25 -2 -10 -6 -19 -15 -19 -21 0
-5 -10 -20 -21 -32 -12 -12 -19 -16 -15 -9 4 6 2 12 -4 12 -6 0 -8 5 -5 10 4
6 10 8 15 5 4 -2 13 8 19 24 20 46 152 162 160 139 2 -5 -11 -30 -28 -54z
m3820 -428 c8 4 9 3 5 -4 -4 -7 -1 -12 8 -12 8 0 19 -6 23 -14 11 -18 74 -56
95 -56 9 0 19 -8 22 -18 11 -32 155 -82 223 -77 26 2 52 0 58 -4 5 -5 25 -12
43 -16 18 -3 30 -10 27 -14 -2 -5 7 -6 20 -3 15 2 25 0 25 -7 0 -7 8 -11 18
-10 9 1 41 -2 70 -6 43 -6 49 -10 36 -19 -13 -10 -10 -12 18 -13 162 -4 173
-5 143 -13 -16 -4 -48 -8 -70 -9 -73 -3 -10 -23 76 -25 56 -1 79 -5 79 -13 0
-9 21 -13 70 -13 83 0 94 -16 15 -22 -51 -4 -74 -12 -64 -22 2 -3 55 -8 117
-12 112 -7 156 -24 61 -24 -37 0 -48 -3 -43 -12 6 -10 4 -10 -7 0 -16 15 -33
16 -23 1 7 -11 -36 -8 -91 8 -18 5 -19 4 -4 -12 9 -9 40 -23 70 -31 41 -10 45
-12 16 -9 -34 3 -36 2 -27 -16 6 -10 18 -20 28 -20 9 -1 28 -3 42 -6 65 -10
225 -11 237 -1 10 8 21 8 40 -1 20 -9 28 -9 34 0 4 7 20 10 41 6 29 -4 34 -2
35 15 2 20 -2 21 -84 14 -48 -3 -92 -11 -100 -17 -10 -9 -13 -7 -13 9 0 18 8
22 71 28 93 9 70 24 -38 24 -46 0 -83 4 -83 9 0 5 -2 16 -6 24 -4 10 6 16 38
22 24 4 36 10 28 13 -8 3 -28 18 -45 34 -16 16 -40 31 -53 34 -12 4 -27 14
-32 24 -10 18 -96 44 -112 34 -4 -3 -8 0 -8 5 0 6 7 11 15 11 22 0 18 16 -7
32 -36 24 -312 104 -438 128 -86 16 -240 59 -267 75 -28 15 -27 15 22 9 28 -3
64 -8 80 -12 17 -3 34 -5 39 -3 5 1 27 -1 49 -5 28 -4 36 -9 26 -15 -17 -10
-11 -11 71 -10 40 1 51 -1 40 -9 -17 -11 -9 -12 145 -15 51 0 100 -7 113 -14
13 -7 35 -10 48 -7 14 4 24 2 24 -4 0 -5 6 -9 13 -7 6 1 11 -6 10 -17 -1 -16
4 -18 38 -13 21 3 42 1 45 -5 4 -5 21 -7 41 -3 29 5 37 2 54 -19 17 -21 23
-23 51 -15 44 12 47 4 7 -20 -23 -14 -52 -21 -89 -22 l-55 -1 40 -19 c22 -10
34 -19 26 -19 -8 0 -11 -3 -8 -7 4 -3 25 2 47 12 29 13 44 15 52 7 6 -6 17 -8
24 -5 8 3 14 0 14 -6 0 -6 3 -10 8 -9 4 1 17 -3 29 -10 12 -7 27 -11 34 -10 6
2 13 -2 15 -8 3 -6 -10 -9 -33 -6 -29 2 -34 1 -23 -7 8 -6 23 -11 33 -11 9 0
17 -6 17 -12 0 -8 3 -9 8 -3 4 6 30 10 57 10 28 0 60 4 71 8 17 6 23 3 27 -12
3 -13 -1 -21 -12 -23 -12 -3 -11 -5 5 -10 12 -3 48 3 79 14 46 15 60 17 66 6
6 -10 15 -9 43 5 39 18 50 6 19 -20 -17 -14 -17 -14 0 -9 9 3 17 1 17 -4 0
-21 31 -8 72 29 32 30 46 37 56 29 9 -8 19 -8 37 0 17 8 25 8 27 0 2 -6 29
-12 59 -13 31 -1 60 -4 65 -8 6 -3 16 -2 24 4 20 12 33 11 25 -1 -10 -16 21
-12 35 5 7 8 23 15 36 15 19 0 24 -5 24 -24 0 -14 -4 -28 -10 -31 -19 -12 -10
-26 13 -19 20 6 21 5 7 -13 -8 -10 0 -4 18 15 17 19 32 31 32 27 0 -4 7 -2 15
5 12 10 15 8 20 -12 3 -13 2 -35 -4 -49 -5 -14 -6 -31 -2 -38 11 -18 69 18 76
48 3 13 17 40 31 60 13 19 24 42 24 49 0 7 4 11 8 8 5 -3 8 4 8 16 -1 15 7 23
27 29 26 7 28 6 24 -14 -15 -62 -19 -117 -8 -117 6 0 10 3 9 8 -4 14 14 52 22
47 4 -3 10 4 13 15 3 11 0 23 -5 27 -7 4 -8 1 -3 -7 5 -9 4 -11 -3 -6 -9 5 -9
13 -2 27 6 10 7 19 2 19 -4 0 -8 10 -9 21 -2 21 -1 21 11 3 28 -41 67 -134 60
-145 -4 -7 -3 -9 4 -5 14 8 117 -165 220 -372 45 -89 113 -218 152 -286 66
-113 81 -160 55 -161 -6 -1 -32 -11 -60 -24 -27 -13 -66 -29 -85 -36 -19 -7
-64 -27 -100 -44 -36 -17 -72 -28 -82 -26 -9 3 -19 1 -23 -4 -3 -7 0 -8 9 -5
28 11 17 -3 -24 -30 -23 -15 -45 -24 -51 -20 -6 3 -22 -4 -35 -17 -14 -13 -31
-24 -37 -25 -32 -3 -37 -5 -37 -15 0 -6 5 -7 13 -2 6 4 22 8 35 8 21 1 19 -2
-15 -35 -48 -45 -98 -82 -141 -104 -19 -10 -32 -20 -29 -22 11 -11 208 92 269
142 25 20 26 22 8 27 -11 3 -20 0 -20 -6 0 -6 -2 -8 -5 -5 -19 18 71 88 114
88 9 0 40 13 69 29 28 16 50 25 46 20 -8 -14 3 -11 19 5 23 23 180 97 188 89
4 -4 24 -53 45 -108 38 -103 54 -124 90 -125 40 0 259 72 282 93 13 12 26 17
30 11 47 -54 112 -145 112 -156 0 -8 4 -18 9 -24 13 -13 49 -140 66 -229 8
-40 17 -161 21 -268 l7 -196 -22 6 c-25 6 -25 7 -5 38 19 29 10 48 -19 39 -20
-6 -21 -5 -7 11 19 23 21 68 3 60 -9 -3 -13 2 -11 13 3 14 -4 17 -42 15 -25
-1 -58 2 -73 7 -17 6 -37 6 -52 0 -14 -5 -27 -6 -30 0 -6 10 -122 14 -350 13
-111 -1 -176 -6 -252 -22 -55 -12 -137 -21 -181 -21 -45 0 -92 -4 -106 -10
-14 -5 -46 -12 -72 -15 -26 -3 -53 -10 -60 -16 -7 -6 -17 -8 -22 -5 -5 3 -35
-1 -66 -9 -31 -8 -71 -15 -89 -15 -18 0 -56 -7 -84 -14 -29 -8 -53 -12 -53 -9
0 3 -6 1 -12 -5 -7 -5 -48 -17 -91 -26 -43 -9 -85 -20 -95 -25 -18 -9 -150
-25 -142 -17 3 2 43 14 90 26 47 12 130 37 185 55 55 19 138 43 184 54 46 11
86 23 89 26 6 6 -32 0 -138 -24 -41 -9 -94 -16 -117 -16 -24 1 -43 -1 -43 -5
0 -3 -21 -12 -47 -20 -52 -15 -56 -16 -91 -18 -13 -1 -21 -6 -17 -11 3 -5 0
-13 -6 -17 -7 -4 -9 -3 -5 4 3 6 2 13 -4 17 -9 6 -14 -7 -11 -27 2 -12 -14 -9
-27 4 -9 9 -15 10 -20 2 -11 -16 -37 -23 -53 -14 -10 7 -8 11 11 19 l25 10
-26 0 c-34 1 -58 51 -24 51 8 0 15 5 15 10 0 13 -6 13 -33 -1 -22 -10 -22 -10
1 10 26 23 28 32 5 25 -10 -2 -4 3 12 11 36 20 71 83 56 98 -13 13 -15 30 -2
23 5 -3 14 1 21 9 10 12 10 15 -1 15 -11 0 -11 2 1 10 13 8 13 10 -2 10 -9 0
-19 -6 -21 -12 -3 -7 -6 -2 -6 11 -1 14 6 33 16 43 15 17 15 18 -10 18 -14 0
-32 6 -39 13 -20 20 -46 27 -51 14 -3 -9 -11 -8 -33 3 -16 8 -32 19 -36 25 -5
6 -8 5 -8 -3 0 -9 -5 -10 -17 -4 -10 5 -27 6 -38 2 -12 -4 -42 0 -74 11 -66
23 -81 24 -81 4 0 -8 -5 -15 -11 -15 -6 0 -9 7 -5 15 3 9 0 15 -9 15 -8 0 -15
-7 -15 -15 0 -8 -4 -15 -10 -15 -5 0 -10 5 -10 11 0 8 -5 8 -15 -1 -11 -9 -15
-10 -15 -1 0 7 -10 11 -22 10 -13 -2 -29 0 -35 4 -8 5 -13 3 -13 -7 0 -9 -4
-16 -10 -16 -5 0 -10 5 -10 11 0 7 -10 9 -27 4 -16 -4 -34 -8 -40 -8 -7 0 -13
-5 -13 -10 0 -5 -6 -5 -13 1 -15 13 -57 5 -58 -12 -1 -6 -2 -26 -4 -44 -3 -42
-15 -55 -15 -17 0 22 -3 26 -11 18 -8 -8 -20 -8 -34 -3 -16 6 -29 4 -41 -5
-18 -13 -18 -14 -1 -15 19 0 24 -20 5 -21 -10 0 -10 -2 0 -6 18 -7 15 -19 -7
-20 -14 -1 -22 7 -26 28 -4 16 -13 29 -21 29 -8 0 -14 5 -14 10 0 6 6 10 14
10 14 0 29 37 20 52 -3 4 -12 8 -20 8 -8 0 -14 6 -14 14 0 19 -70 32 -81 14
-6 -9 -9 -6 -9 10 0 15 -6 22 -20 22 -11 0 -20 -4 -20 -10 0 -5 -5 -10 -11
-10 -6 0 -9 7 -5 15 4 10 -6 17 -37 25 -23 7 -61 18 -85 26 -23 8 -53 14 -65
15 -25 0 -114 61 -109 74 5 13 -28 23 -60 19 -16 -2 -28 1 -28 6 0 6 5 10 10
10 6 0 10 5 10 10 0 6 -10 8 -24 4 -16 -4 -34 0 -48 10 -12 9 -16 16 -9 16 7
0 -5 18 -28 40 -22 22 -41 44 -41 49 0 5 -15 21 -32 35 -18 15 -38 31 -45 36
-7 6 -14 10 -17 10 -5 0 -67 52 -103 88 -13 12 -30 22 -37 22 -8 0 -16 7 -20
15 -3 8 -12 15 -19 15 -8 0 -25 16 -38 35 -13 19 -27 35 -31 35 -3 0 -15 16
-27 35 -22 38 -12 49 13 14 9 -13 19 -18 27 -14 7 5 10 4 5 -3 -3 -6 2 -13 13
-17 17 -5 70 -42 111 -77 47 -41 61 -49 80 -43 11 4 18 11 15 16 -16 24 18 3
80 -50 37 -33 74 -57 82 -54 7 3 13 0 13 -6 0 -6 6 -11 13 -11 7 0 29 -8 48
-18 20 -10 63 -26 95 -36 32 -10 78 -24 102 -32 24 -8 55 -11 69 -7 l27 6 -24
9 c-16 6 -26 5 -32 -4 -5 -9 -8 -9 -8 -1 0 6 -12 16 -27 21 l-28 10 35 2 c19
1 29 4 23 7 -7 2 -15 4 -19 3 -4 -1 -10 2 -13 8 -7 11 -153 82 -168 82 -6 0
-13 3 -15 8 -1 4 -36 27 -75 51 -40 24 -73 45 -73 48 0 2 26 -9 58 -26 51 -27
54 -28 27 -6 -16 14 -24 25 -17 25 22 0 12 23 -25 58 l-38 35 40 -23 c22 -13
47 -28 55 -35 51 -38 211 -125 232 -125 20 0 -3 16 -52 34 -61 24 -163 94
-231 158 -30 29 -44 44 -30 33 14 -11 29 -24 33 -30 4 -5 10 -6 14 -3 3 4 -3
23 -15 43 -11 20 -21 37 -21 39 0 1 26 -22 58 -51 31 -30 82 -69 112 -87 57
-35 127 -62 136 -53 3 3 -4 8 -15 12 -12 3 -21 11 -21 16 0 6 -4 8 -8 5 -5 -3
-9 1 -9 9 0 10 6 11 24 4 14 -5 26 -9 28 -9 9 0 -3 31 -20 50 -12 13 -14 20
-5 20 9 0 10 3 1 14 -7 8 -14 25 -17 37 -10 48 -34 235 -34 270 0 20 -5 50
-11 68 -9 25 -17 31 -39 31 -29 0 -41 9 -74 54 -10 14 -23 26 -27 26 -11 0
-40 23 -101 81 -34 33 -48 54 -48 73 0 18 -4 25 -11 20 -8 -5 -10 1 -6 18 5
17 -2 50 -18 92 -41 108 -28 99 33 -24 32 -63 63 -114 70 -112 7 1 12 -4 12
-10 0 -7 15 -21 33 -32 109 -63 107 -62 107 -46 0 6 -5 10 -11 10 -6 0 -27 14
-46 30 -18 17 -28 30 -20 30 28 0 121 -69 143 -106 13 -22 27 -37 31 -34 5 3
11 -62 15 -145 7 -146 30 -261 50 -249 4 3 8 1 8 -5 0 -18 44 -84 48 -72 2 6
0 17 -6 24 -5 7 -12 26 -16 42 -6 28 -5 27 13 -8 11 -21 22 -50 26 -65 5 -26
75 -135 75 -118 0 4 28 -21 61 -56 34 -34 83 -73 108 -85 34 -16 40 -22 24
-22 -39 -1 -25 -21 15 -22 20 -1 29 -3 20 -6 -25 -6 -22 -16 6 -29 21 -10 24
-9 18 5 -4 13 -2 13 16 -3 13 -12 31 -17 46 -14 15 3 23 1 19 -5 -3 -6 10 -7
34 -2 30 5 42 3 46 -8 12 -32 -10 -42 -88 -40 -81 1 -90 -4 -30 -17 25 -6 52
-4 81 5 23 7 46 10 49 7 3 -4 10 0 15 8 8 12 10 11 10 -7 0 -12 5 -23 12 -25
12 -4 8 -20 -14 -50 -16 -22 -3 -35 16 -18 13 10 19 9 32 -5 9 -9 24 -14 33
-11 9 3 6 -2 -6 -10 -35 -25 -28 -40 25 -54 26 -7 55 -14 66 -17 12 -3 16 -1
12 6 -4 6 0 11 9 11 11 0 15 -5 11 -15 -3 -8 -2 -15 2 -15 4 0 46 -7 95 -15
84 -15 88 -15 109 4 11 11 24 18 28 16 5 -3 19 4 31 16 14 12 19 22 13 25 -30
13 -45 31 -38 47 7 19 35 19 41 0 3 -7 -3 -9 -16 -6 -24 6 -29 -12 -5 -21 24
-9 31 -7 38 10 4 9 0 25 -9 34 -13 15 -13 19 -2 29 12 10 12 20 1 74 -8 34
-17 77 -19 96 -3 18 -23 87 -45 153 -22 66 -40 121 -40 124 0 2 9 4 20 4 11 0
20 5 20 10 0 6 9 10 19 10 11 0 23 -4 26 -10 11 -18 35 -11 28 8 -6 16 -5 16
14 0 23 -21 93 -25 93 -5 0 9 2 9 8 0 5 -8 29 -13 65 -12 32 1 61 -1 64 -5 4
-3 1 -27 -4 -53 -10 -42 -10 -46 3 -29 8 11 14 29 14 40 0 24 16 10 22 -18 3
-18 5 -17 21 8 10 15 19 41 19 57 1 36 18 50 18 15 0 -14 4 -28 10 -31 6 -4 5
-13 -2 -25 -10 -15 -9 -22 5 -38 9 -10 15 -21 13 -23 -3 -2 -7 -29 -10 -59
l-6 -55 19 34 c10 19 21 29 24 24 10 -15 -16 -74 -30 -69 -7 3 -10 -1 -6 -10
3 -8 12 -13 19 -10 7 3 16 1 19 -4 4 -6 11 -10 16 -10 6 0 7 5 4 10 -3 6 -3
20 0 31 6 17 9 19 16 8 6 -10 9 -11 9 -1 0 6 7 12 16 12 9 0 18 9 21 20 3 11
12 20 19 20 17 0 18 12 2 28 -17 17 23 16 41 0 11 -11 12 -9 3 8 -13 26 -7 34
27 35 17 1 20 3 9 6 -22 6 -23 22 -2 30 8 3 13 12 10 20 -3 8 1 30 9 50 8 19
12 40 8 46 -4 7 0 8 13 3 10 -4 15 -4 12 0 -4 4 -1 16 7 28 8 11 15 28 15 38
0 10 6 18 13 18 8 0 7 4 -3 11 -11 8 -12 12 -2 16 6 2 12 11 12 18 0 7 5 15
11 17 19 6 -18 68 -41 68 -11 0 -20 -4 -20 -9 0 -14 -43 -6 -72 13 -56 36
-162 51 -328 46 -154 -5 -155 -5 -120 -22 32 -16 33 -17 10 -17 -14 0 -34 6
-44 14 -23 17 -73 19 -110 5 -17 -6 -27 -6 -32 1 -3 6 -14 9 -24 6 -22 -6
-122 19 -130 33 -3 5 -44 17 -89 27 -56 11 -90 23 -103 37 -11 12 -27 21 -36
21 -78 2 -278 98 -437 209 -72 51 -113 71 -205 101 -63 21 -148 53 -188 72
-40 18 -85 36 -100 39 -15 3 -35 8 -45 11 -15 4 -17 0 -12 -24 5 -25 4 -26 -5
-5 -20 47 -92 102 -133 102 -15 0 -41 18 -73 50 l-49 50 -110 1 c-85 0 -104 3
-85 10 14 6 59 9 101 7 73 -4 76 -3 72 16 -4 20 -3 20 16 -2 12 -14 25 -20 32
-16z m-1546 -1413 c21 -60 43 -111 48 -114 5 -4 7 -11 3 -17 -3 -6 -2 -13 4
-17 5 -3 10 -14 10 -23 0 -17 44 -126 93 -234 15 -32 25 -58 22 -58 -2 0 -18
27 -36 60 -17 33 -35 57 -40 54 -5 -3 -6 1 -3 9 7 19 -62 184 -70 166 -3 -8
-3 -4 0 9 4 16 1 22 -10 22 -11 0 -20 16 -28 45 -7 25 -17 45 -23 45 -5 0 -4
4 3 8 14 9 6 42 -10 42 -6 0 -8 -7 -4 -15 7 -19 -1 -19 -20 -1 -18 18 -18 24
1 42 8 9 15 31 15 50 0 19 2 34 4 34 2 0 20 -48 41 -107z m-4120 24 c4 5 5 0
1 -11 -4 -13 -2 -17 8 -13 8 3 22 -3 32 -14 12 -14 14 -19 4 -19 -8 0 -2 -12
15 -30 15 -16 33 -27 38 -23 6 3 7 1 3 -5 -7 -11 168 -212 185 -212 13 0 11
14 -3 30 -7 8 -3 6 10 -5 16 -13 19 -21 10 -26 -9 -6 -8 -13 6 -28 22 -24 45
-29 26 -6 -25 30 -4 23 35 -12 22 -20 60 -53 85 -74 25 -21 39 -39 32 -39 -8
0 -39 25 -71 55 -32 30 -61 55 -64 55 -17 0 -4 -19 27 -41 18 -12 39 -31 45
-41 10 -17 9 -18 -16 -12 -36 9 -361 342 -420 430 -48 71 -54 88 -20 56 13
-12 27 -19 32 -15z m6608 -501 c36 -36 99 -64 82 -36 -3 6 1 10 9 10 14 0 29
-26 23 -42 -3 -11 36 -37 55 -38 10 0 22 -9 28 -20 6 -11 20 -20 31 -20 18 0
20 -4 14 -29 -3 -17 -2 -32 4 -36 6 -3 11 2 11 11 0 16 2 16 19 -2 10 -10 17
-22 14 -26 -2 -5 5 -8 17 -8 12 0 18 5 15 10 -3 6 -1 10 4 10 6 0 11 -7 11
-15 0 -10 -10 -15 -34 -15 -19 0 -38 -5 -42 -11 -5 -9 6 -10 40 -7 33 4 46 2
43 -6 -3 -6 -10 -10 -16 -8 -18 4 -44 -25 -28 -31 9 -4 9 -6 0 -6 -6 -1 -15 4
-18 9 -12 19 -38 11 -32 -9 4 -17 0 -20 -27 -17 -18 1 -43 12 -56 24 -32 30
-39 28 -35 -13 4 -37 -3 -43 -23 -23 -9 9 -12 9 -12 0 0 -20 -38 -13 -45 8 -7
21 -39 27 -50 10 -11 -18 -35 -11 -35 10 0 11 -4 20 -9 20 -5 0 -22 11 -38 24
-15 12 -51 31 -79 40 -36 12 -54 23 -57 38 -8 28 3 45 15 24 5 -9 13 -16 17
-16 15 0 5 37 -17 60 -12 13 -22 33 -22 44 0 20 0 20 14 0 8 -10 18 -16 22
-11 4 4 17 0 30 -8 19 -12 23 -12 27 0 3 7 -1 16 -9 19 -9 3 -12 10 -9 16 3 5
-1 10 -9 10 -19 0 -22 20 -3 20 7 1 5 6 -5 14 -21 15 -24 37 -6 34 7 -2 21
-19 30 -38 15 -31 23 -28 19 8 -3 20 16 14 22 -8 3 -12 14 -20 26 -20 22 0 30
20 9 20 -7 0 -5 5 5 11 9 5 22 7 29 3 7 -5 9 0 6 14 -8 28 -4 27 25 -2z m2681
-388 c-10 -10 -22 -18 -28 -17 -17 2 -56 -12 -56 -20 0 -10 -125 -111 -138
-111 -5 0 -15 -7 -22 -15 -9 -11 -16 -12 -31 -2 -17 10 -22 9 -32 -4 -7 -9
-24 -19 -39 -22 -15 -4 -33 -13 -40 -20 -18 -17 -117 -77 -128 -77 -5 0 -10
-5 -12 -11 -2 -6 -29 -11 -61 -11 -35 -1 -61 -6 -68 -14 -6 -8 -17 -14 -24
-14 -16 0 -65 -38 -65 -51 0 -5 9 -9 21 -9 11 0 17 -4 14 -10 -3 -5 -15 -10
-26 -10 -10 0 -19 -5 -19 -10 0 -6 -12 -15 -26 -20 -14 -6 -23 -14 -20 -19 12
-19 -28 -34 -100 -36 -66 -2 -79 -6 -102 -28 -16 -15 -48 -30 -77 -37 -27 -6
-60 -16 -73 -22 -18 -9 -28 -9 -42 0 -27 16 -66 15 -120 -5 -25 -8 -74 -19
-110 -22 -58 -5 -65 -9 -68 -28 -3 -23 -26 -31 -36 -14 -3 5 -22 12 -42 16
-30 5 -34 8 -21 18 17 14 6 57 -15 57 -9 0 -9 3 -1 11 6 6 9 17 7 24 -3 7 -1
16 5 19 14 9 52 -16 46 -31 -2 -7 3 -13 11 -13 11 0 14 6 10 16 -6 16 15 44
32 44 21 0 72 35 68 46 -3 7 3 10 13 7 27 -7 91 23 92 44 1 10 2 24 3 32 0 8
12 15 24 16 13 1 27 7 32 14 4 8 22 11 43 10 20 -2 39 0 43 4 4 4 17 7 28 7
12 0 34 7 50 15 15 8 36 15 46 15 10 0 21 6 23 13 3 7 6 5 6 -5 1 -12 -6 -18
-20 -18 -11 0 -17 -4 -14 -10 6 -10 77 13 103 33 9 7 11 6 7 -5 -6 -15 40 -11
205 19 l35 6 -30 7 -30 8 31 1 c39 1 83 22 89 42 3 9 20 19 37 23 49 10 58 8
52 -11 -4 -11 -2 -14 3 -8 15 18 93 56 93 45 0 -6 -7 -13 -15 -16 -8 -4 -15
-10 -15 -15 0 -15 37 -10 50 6 7 8 17 12 23 8 5 -3 15 1 21 9 13 18 87 68 100
68 10 0 -35 -42 -71 -67 -13 -8 -23 -19 -23 -24 0 -13 59 11 73 30 6 10 25 21
40 25 19 5 27 12 23 21 -7 19 14 31 25 14 6 -10 9 -11 9 -1 0 6 7 12 16 12 8
0 22 6 29 13 35 31 46 37 67 41 13 3 25 5 27 5 2 1 -1 7 -7 14 -8 10 -6 16 9
25 11 7 19 8 19 2 0 -5 -5 -10 -12 -10 -6 0 -9 -3 -5 -6 6 -6 70 36 76 51 2 5
8 -1 13 -14 6 -18 4 -29 -8 -43z m105 -84 c1 -41 1 -41 -59 -68 -33 -15 -64
-25 -69 -22 -5 3 -14 -1 -21 -9 -18 -21 -98 -56 -140 -60 -19 -2 -36 -8 -38
-14 -2 -6 -12 -15 -21 -21 -16 -8 -17 -5 -13 18 3 15 17 37 31 49 14 13 26 28
26 34 0 7 14 19 32 29 25 13 30 20 20 30 -10 10 -5 11 21 8 17 -3 32 -1 32 4
0 5 4 7 9 4 5 -4 11 -3 13 1 7 16 77 42 80 31 6 -17 78 40 78 61 0 11 -10 6
-31 -17 -17 -19 -33 -32 -36 -29 -3 3 4 16 16 28 15 17 18 26 10 36 -9 10 -5
15 15 23 14 5 27 15 27 22 3 20 17 -92 18 -138z m-1141 -813 c9 -11 29 -16 62
-16 42 0 50 -3 50 -19 0 -10 9 -34 21 -52 11 -18 19 -42 18 -51 -1 -10 3 -29
8 -43 6 -14 9 -28 6 -32 -2 -5 1 -8 7 -8 7 0 30 -14 51 -31 21 -17 45 -29 51
-26 8 3 3 9 -12 15 l-25 11 28 0 c18 1 27 -4 27 -14 0 -8 7 -15 16 -15 8 0 13
-4 10 -8 -3 -5 9 -6 27 -4 27 4 29 6 12 13 -16 6 -14 8 13 8 18 1 31 5 28 10
-3 4 6 6 20 3 17 -3 24 0 22 9 -4 15 26 24 50 13 14 -6 13 -8 -8 -15 -16 -6
-7 -6 25 -2 64 8 68 8 144 -5 35 -6 68 -9 74 -5 6 3 7 1 4 -4 -4 -6 0 -14 9
-17 25 -10 41 -6 19 5 -16 7 -14 8 10 4 17 -3 53 -5 82 -5 28 1 54 -4 58 -10
5 -8 20 -9 42 -5 24 4 33 3 28 -4 -3 -6 1 -11 10 -11 11 0 15 5 12 15 -5 11
-1 12 20 4 18 -6 30 -6 39 2 8 7 29 9 49 6 19 -3 35 -2 35 3 0 4 34 11 75 15
41 4 77 11 80 15 3 4 -32 8 -78 9 -115 2 -125 3 -120 18 3 7 9 13 15 13 5 0 7
4 4 9 -4 5 17 3 46 -5 57 -15 80 -11 27 5 -34 9 -34 10 -9 17 l25 8 -25 7
c-24 7 -24 7 -2 8 12 1 25 -6 28 -14 7 -18 37 -20 65 -4 17 9 20 7 17 -7 -2
-9 3 -19 10 -21 7 -3 12 5 12 22 0 27 1 27 50 20 34 -5 55 -3 65 5 11 9 15 9
15 1 0 -7 24 -11 65 -11 42 0 65 4 65 11 0 8 -17 10 -56 5 -36 -4 -53 -3 -49
4 3 5 27 10 52 10 39 0 44 2 33 15 -10 12 -10 15 4 15 9 0 16 -7 16 -15 0 -11
12 -15 49 -15 28 0 53 5 56 10 4 7 -7 8 -33 4 -27 -4 -42 -2 -47 7 -6 9 -3 11
10 5 15 -5 16 -4 5 9 -10 12 -10 15 1 15 11 0 11 2 -1 10 -9 5 -19 5 -27 -2
-7 -6 -29 -7 -50 -4 -59 10 -74 11 -138 3 -48 -5 -56 -5 -40 5 17 10 69 22
266 64 25 6 27 3 34 -34 5 -35 10 -41 36 -44 17 -3 29 0 29 6 1 25 30 -56 53
-149 32 -124 43 -200 29 -209 -6 -4 -8 2 -5 15 l6 22 -229 -7 c-181 -5 -232
-10 -244 -21 -13 -13 -3 -15 80 -15 51 0 91 -2 88 -5 -8 -8 -75 -16 -133 -17
-27 0 -55 -4 -60 -8 -6 -5 -27 -7 -48 -5 -20 1 -37 -1 -37 -6 0 -5 32 -9 72
-9 118 0 73 -8 -76 -13 -76 -3 -141 -9 -145 -14 -3 -4 -33 -9 -66 -10 -33 -1
-78 -6 -100 -12 -22 -6 -69 -11 -105 -12 l-65 -2 55 -7 c50 -6 47 -7 -35 -8
-60 -1 -95 2 -103 10 -9 9 -12 9 -12 0 0 -7 -5 -12 -11 -12 -5 0 -7 4 -4 10 6
9 -3 8 -42 -6 -10 -4 -37 -6 -60 -6 -25 1 -43 -4 -43 -10 0 -7 -18 -9 -55 -5
-31 3 -55 2 -55 -4 0 -5 15 -10 33 -10 23 -1 26 -3 9 -6 -12 -2 -19 -9 -16
-15 4 -7 -16 -9 -62 -5 -43 3 -89 -1 -124 -10 -61 -16 -225 -12 -259 6 -17 10
-20 9 -15 -4 5 -12 -4 -15 -50 -15 -43 0 -56 3 -56 15 0 8 -4 15 -10 15 -5 0
-10 8 -10 18 0 10 -6 24 -12 30 -10 10 -10 15 2 22 11 7 17 3 25 -19 8 -25 12
-27 23 -15 7 8 10 23 7 34 -5 15 0 19 22 22 18 2 29 10 31 22 3 11 0 16 -7 12
-14 -9 -14 7 0 21 15 15 22 70 9 78 -16 10 -12 28 5 21 10 -3 15 1 15 11 0 9
8 22 18 29 16 13 16 13 0 14 -11 0 -15 5 -12 15 4 8 0 23 -7 32 -11 12 -11 17
-2 20 14 5 7 60 -11 82 -11 14 -19 168 -8 157 9 -10 41 25 36 39 -8 19 37 7
54 -14z"/>
<path d="M8763 4240 c-10 -10 -27 -19 -38 -18 -73 2 -153 -33 -123 -55 9 -6 8
-7 -4 -3 -10 3 -30 -1 -45 -9 -16 -7 -39 -18 -53 -23 l-25 -10 25 -10 c14 -6
19 -11 12 -11 -9 -1 -8 -7 4 -26 14 -21 18 -22 30 -10 8 7 14 22 14 31 0 14 3
15 12 6 17 -17 28 -15 28 4 0 8 5 12 11 8 6 -3 9 -19 7 -35 -3 -19 -1 -28 6
-26 6 3 10 10 9 16 -2 6 2 11 7 11 6 0 10 -3 10 -6 0 -14 -43 -104 -51 -104
-4 0 -10 -8 -14 -19 -3 -10 -26 -38 -51 -62 -24 -24 -68 -74 -95 -111 -28 -38
-55 -68 -60 -68 -5 0 -9 -7 -9 -15 0 -8 -6 -15 -14 -15 -8 0 -18 -5 -22 -12
-5 -7 -2 -9 7 -4 8 4 3 -2 -11 -13 -14 -11 -19 -21 -12 -21 22 0 13 -20 -10
-21 -22 0 -22 -1 -3 -8 11 -5 25 -4 32 1 7 5 17 7 23 3 14 -9 40 13 40 34 0 9
11 25 25 35 14 10 25 25 25 32 0 7 29 50 65 95 36 46 68 93 71 106 4 13 10 23
15 23 5 0 6 7 3 15 -4 9 0 15 9 15 19 0 59 101 51 127 -5 16 -4 16 10 -1 15
-19 20 -37 17 -63 -3 -21 17 -15 30 8 6 12 14 18 18 13 3 -5 19 -10 34 -11 21
-1 27 3 23 13 -6 15 -2 17 32 8 12 -4 22 -14 22 -23 1 -13 3 -13 15 3 8 11 11
22 7 25 -17 12 -6 36 18 39 50 6 54 10 36 37 -9 13 -14 30 -13 37 2 7 2 10 0
6 -9 -14 -31 4 -26 22 3 10 0 27 -6 39 -16 29 -92 30 -118 1z"/>
<path d="M9620 3515 c-1 -5 -2 -14 -1 -18 1 -5 -4 -5 -11 0 -21 13 -57 10 -63
-5 -3 -7 -9 -11 -14 -8 -5 4 -11 1 -13 -5 -4 -13 -52 -15 -84 -4 -16 5 -30 -1
-57 -25 -22 -19 -38 -27 -42 -20 -9 15 -89 2 -150 -25 -45 -19 -144 -37 -200
-36 -11 1 -29 -3 -40 -8 -11 -5 -51 -19 -90 -30 -38 -11 -85 -31 -103 -45 -18
-13 -49 -27 -68 -31 -28 -5 -33 -9 -24 -20 8 -10 8 -14 -2 -18 -7 -2 -9 -8 -5
-13 4 -4 21 0 37 10 28 16 29 16 23 0 -4 -12 -3 -15 5 -10 7 4 12 2 12 -4 0
-7 -18 -11 -47 -9 -46 2 -103 -16 -103 -32 0 -4 13 -1 28 6 15 8 38 12 50 8
24 -6 29 -19 10 -26 -10 -4 -10 -6 -1 -6 7 -1 18 8 25 19 7 11 20 20 30 20 9
0 33 10 53 21 20 12 59 23 87 25 28 2 66 13 85 24 50 29 55 25 17 -16 -19 -19
-34 -39 -34 -44 0 -5 -15 -14 -32 -20 l-33 -10 34 5 c48 7 240 100 274 132 15
15 27 23 27 19 0 -4 -13 -20 -30 -36 -41 -38 -26 -45 23 -9 42 30 68 39 48 16
-6 -8 -8 -16 -5 -20 3 -3 -5 -8 -18 -12 -13 -4 -39 -20 -59 -36 -19 -15 -47
-31 -62 -34 -15 -4 -27 -11 -27 -15 0 -13 43 1 75 25 17 12 54 35 82 51 29 16
53 32 53 36 0 4 7 5 15 2 8 -4 15 -1 15 5 0 6 9 11 19 11 11 0 23 5 26 10 4 7
13 6 26 -1 19 -10 19 -10 -3 -29 -13 -11 -19 -19 -15 -20 14 0 102 42 110 54
6 7 7 4 3 -6 -8 -25 16 -23 32 2 10 17 10 20 -5 20 -15 0 -16 2 -3 10 13 9 13
10 0 10 -29 1 18 27 61 34 35 6 40 10 36 26 -3 13 3 26 20 38 23 17 25 22 15
48 -6 16 -11 25 -12 19z"/>
<path d="M2668 4932 c-8 -15 -18 -42 -22 -60 -5 -32 -49 -96 -58 -87 -2 2 -5
-5 -5 -17 -1 -11 -11 -26 -21 -34 -11 -7 -22 -31 -26 -54 -3 -22 -11 -40 -17
-40 -6 0 -9 -6 -6 -14 3 -7 0 -13 -6 -12 -13 1 -17 -6 -17 -29 0 -8 7 -15 16
-15 12 0 14 -7 9 -28 -3 -17 0 -40 10 -58 8 -16 15 -48 15 -72 0 -26 4 -41 10
-37 6 3 10 -1 10 -9 0 -9 5 -16 10 -16 6 0 10 -6 10 -14 0 -8 5 -18 12 -22 8
-5 9 0 5 16 -4 16 -3 20 5 12 6 -6 12 -25 14 -42 2 -18 9 -50 15 -72 5 -22 8
-42 5 -45 -3 -3 -10 15 -17 41 -11 46 -29 71 -29 42 0 -8 5 -18 11 -21 6 -4 8
-13 5 -21 -6 -16 21 -101 43 -131 9 -12 22 -20 29 -18 18 6 15 -6 -5 -21 -10
-7 -15 -15 -12 -18 3 -3 15 3 27 14 25 24 33 25 26 6 -8 -22 12 -53 47 -70 41
-20 42 -20 29 3 -13 26 -13 34 3 26 6 -4 5 -1 -4 7 -9 7 -19 31 -22 53 -3 22
-3 32 -1 23 3 -10 10 -18 15 -18 5 0 9 -8 10 -17 0 -15 2 -15 9 2 12 28 12 43
-1 25 -9 -12 -10 -12 -5 3 3 10 6 26 7 35 0 9 11 -7 25 -37 24 -54 44 -67 24
-17 -5 15 -10 50 -10 77 0 27 -4 49 -10 49 -5 0 -10 15 -10 34 0 19 -4 37 -9
40 -5 3 -11 19 -13 36 -4 24 -1 30 14 30 13 0 18 -8 18 -27 0 -22 2 -25 10
-13 13 21 12 77 -1 86 -8 5 -6 10 5 16 9 5 16 16 16 23 0 8 7 15 15 15 8 0 15
5 15 10 0 6 -4 10 -10 10 -5 0 -10 5 -10 10 0 15 24 7 33 -10 5 -10 6 -7 3 8
-3 13 2 44 9 69 16 52 6 78 -32 88 -13 3 -23 10 -23 15 0 6 -9 10 -19 10 -12
0 -21 10 -26 28 -7 27 -7 27 -16 5 -11 -31 -23 -29 -17 2 3 13 1 22 -3 19 -5
-3 -9 0 -9 6 0 6 6 13 14 16 22 8 17 82 -6 88 -12 2 -23 -4 -30 -17 -6 -12
-11 -23 -10 -24 1 -2 2 -13 1 -25 -1 -19 -2 -18 -10 7 -5 17 -7 45 -5 63 3 34
-8 45 -16 14 -8 -28 -45 -25 -51 4 -2 13 0 24 4 24 5 0 9 12 9 26 0 14 5 34
11 46 16 30 5 31 -13 0z"/>
<path d="M3035 4785 c-8 -54 -58 -208 -92 -285 -50 -111 -74 -195 -80 -280 -6
-91 9 -176 29 -164 7 4 8 3 4 -4 -15 -24 68 -142 129 -185 l30 -21 -25 28
c-14 15 -25 33 -25 39 -1 7 -5 20 -9 29 -9 20 -37 33 -30 13 3 -7 12 -16 20
-19 8 -3 14 -11 14 -17 0 -7 -13 3 -30 21 -16 18 -30 38 -29 44 0 6 3 5 6 -2
6 -16 23 -6 23 14 0 8 -4 13 -9 10 -5 -3 -12 1 -15 10 -3 8 -2 12 4 9 20 -12
10 14 -11 28 -13 10 -19 23 -17 39 l3 23 23 -25 c12 -14 31 -36 42 -50 l20
-25 -9 27 c-8 20 -6 28 5 32 8 3 14 13 14 21 0 26 24 44 43 33 11 -5 17 -5 17
0 0 6 -7 12 -15 16 -9 3 -15 19 -16 43 l-1 38 -13 -30 -14 -30 -1 31 c0 17 7
37 15 44 11 9 13 16 5 24 -5 5 -10 18 -10 28 0 23 -6 23 -31 -1 -13 -12 -17
-21 -10 -26 6 -3 10 -23 10 -43 -1 -21 -3 -28 -6 -17 -8 31 -23 42 -23 16 0
-12 -4 -19 -10 -16 -5 3 -10 17 -10 30 0 13 -4 27 -10 30 -5 3 -10 16 -11 28
-4 98 -2 107 33 175 21 38 34 72 31 76 -4 3 1 6 10 6 12 0 17 9 17 30 0 17 8
40 19 51 26 29 36 81 17 95 -12 8 -14 23 -10 57 8 60 -2 61 -11 2z"/>
<path d="M0 3407 l0 -93 53 -17 c29 -9 62 -25 72 -35 20 -18 184 -96 190 -90
2 2 -26 35 -61 73 -36 39 -72 84 -80 100 -13 26 -120 124 -160 148 -11 7 -14
-9 -14 -86z"/>
</g>
</svg>
