<?xml version="1.0" standalone="no"?>
<!DOCTYPE svg PUBLIC "-//W3C//DTD SVG 20010904//EN"
 "http://www.w3.org/TR/2001/REC-SVG-20010904/DTD/svg10.dtd">
<svg version="1.0" xmlns="http://www.w3.org/2000/svg"
 width="1125.000000pt" height="750.000000pt" viewBox="0 0 1125.000000 750.000000"
 preserveAspectRatio="xMidYMid meet">
<metadata>
Created by potrace 1.16, written by Peter Selinger 2001-2019
</metadata>
<g transform="translate(0.000000,750.000000) scale(0.100000,-0.100000)"
fill="#000000" stroke="none">
<path d="M0 6601 c0 -589 3 -902 10 -906 6 -3 10 -13 10 -21 0 -8 -5 -12 -10
-9 -6 4 -10 -5 -10 -19 0 -21 5 -26 25 -26 14 0 36 -6 48 -14 12 -8 33 -17 47
-20 22 -6 22 -5 -5 11 -24 14 -27 18 -12 21 14 3 16 7 6 18 -15 18 1 18 25 -1
24 -18 40 -19 30 -2 -6 9 -4 9 8 -1 9 -7 18 -9 20 -3 1 5 19 6 38 2 26 -4 36
-11 37 -27 2 -20 0 -21 -40 -12 -28 6 -43 6 -45 -1 -2 -6 -11 -11 -20 -12 -14
0 -13 -2 3 -9 31 -14 90 -11 121 4 16 9 39 12 56 9 28 -5 29 -4 23 26 -3 20
-1 31 6 31 17 0 -19 38 -44 46 -14 4 -26 -2 -44 -22 -23 -27 -25 -28 -51 -13
-15 8 -27 23 -27 34 0 10 -6 20 -13 23 -6 2 -12 8 -12 14 0 5 9 6 20 3 11 -4
20 -2 20 4 0 6 -7 11 -15 11 -8 0 -15 4 -15 9 0 4 -18 20 -40 35 -33 22 -43
24 -64 15 -14 -7 -22 -17 -19 -25 6 -16 -5 -18 -25 -6 -7 5 -10 16 -6 25 4 12
1 17 -12 18 -11 0 4 11 31 23 42 20 52 21 61 10 14 -18 38 -18 53 0 7 8 22 17
35 20 40 10 39 33 -2 54 -20 10 -37 25 -37 33 0 8 -10 15 -23 17 -27 4 -29 22
-2 29 11 3 20 9 20 14 0 12 -33 27 -50 22 -8 -2 -5 2 8 8 27 14 28 25 5 33
-10 3 -27 11 -38 18 -11 7 -21 14 -23 15 -2 1 2 11 8 23 10 19 9 21 -7 16 -25
-8 -44 7 -47 38 -4 31 12 34 45 7 13 -10 43 -28 65 -39 23 -12 60 -43 83 -70
37 -45 129 -100 155 -94 4 2 14 -3 22 -9 11 -9 14 -9 14 0 0 9 5 9 21 1 14 -8
24 -8 33 -1 7 6 16 8 20 4 4 -4 4 0 0 10 -5 14 0 17 22 17 26 1 27 2 10 12
-33 19 -56 42 -57 58 0 10 -2 11 -6 3 -2 -7 -12 -13 -20 -13 -10 0 -13 -6 -9
-15 4 -12 2 -14 -11 -7 -9 5 -24 7 -34 5 -11 -3 -21 1 -25 11 -8 22 -27 20
-20 -1 3 -10 2 -24 -3 -32 -8 -12 -14 -12 -40 -1 -45 18 -72 74 -33 69 48 -6
92 27 61 46 -19 13 22 45 58 45 33 0 45 14 21 23 -7 3 1 6 18 6 16 1 40 10 52
21 12 11 23 20 24 18 2 -1 13 1 26 4 24 7 31 38 7 38 -8 0 -31 17 -52 38 -21
22 -46 42 -56 45 -10 4 -15 11 -12 17 3 5 0 10 -7 10 -18 1 -104 80 -87 81 31
1 50 8 78 28 16 12 34 21 40 21 12 0 14 11 5 34 -3 9 -13 16 -21 16 -8 0 -11
5 -7 12 4 6 -1 17 -10 24 -16 11 -16 13 4 19 28 9 71 50 62 60 -4 4 4 2 18 -5
14 -7 30 -20 37 -29 9 -11 12 -12 13 -3 0 9 5 10 19 3 15 -9 20 -7 24 9 3 10
0 22 -7 25 -6 3 7 2 28 -1 36 -5 60 -19 64 -36 9 -39 7 -93 -5 -106 -13 -14
-6 -45 8 -36 5 3 6 10 3 16 -4 6 2 6 15 -1 26 -14 43 -45 35 -64 -3 -8 -1 -18
5 -22 7 -4 8 1 4 12 -6 16 -5 17 12 3 17 -14 17 -14 2 15 -9 17 -25 44 -36 60
-12 17 -21 38 -21 48 0 17 1 17 16 2 23 -23 31 -9 9 15 -18 20 -18 21 1 14 30
-11 44 -25 44 -45 0 -10 11 -26 25 -35 14 -9 25 -21 25 -28 1 -6 24 -36 52
-66 28 -30 48 -49 44 -42 -4 6 -2 12 4 12 6 0 9 -8 6 -18 -7 -21 49 -69 74
-64 9 2 11 0 5 -5 -5 -4 -11 -19 -13 -33 -2 -19 0 -22 8 -10 8 13 10 13 10 -2
0 -21 16 -31 52 -33 20 -1 27 2 24 11 -3 7 3 22 12 34 l17 20 37 -20 c47 -25
63 -26 23 -2 -40 25 -63 52 -44 52 8 0 23 -7 33 -15 13 -10 23 -11 31 -5 8 7
15 2 24 -17 10 -21 9 -28 -1 -34 -20 -13 19 -11 43 2 15 7 24 7 34 -1 8 -6 23
-9 35 -5 16 5 19 12 14 38 -3 18 -9 34 -15 35 -5 2 -7 8 -4 12 3 5 -7 17 -22
27 -15 10 -34 24 -42 32 -13 11 -16 11 -21 -4 -5 -15 -9 -13 -25 11 -11 16
-18 32 -17 37 1 4 -3 7 -10 7 -6 0 -8 3 -5 7 11 10 -30 34 -47 27 -9 -3 -16
-10 -16 -15 0 -4 -15 1 -34 12 -25 14 -33 25 -29 37 3 9 3 14 -1 11 -4 -4 -19
4 -33 17 -14 13 -32 24 -39 24 -8 0 -14 4 -14 10 0 16 -49 23 -66 9 -12 -10
-15 -10 -12 1 2 8 -1 14 -7 15 -5 0 -15 4 -22 8 -6 4 -18 4 -27 1 -22 -9 -104
17 -123 38 -21 24 3 25 28 2 21 -19 46 -10 29 11 -8 9 -5 12 14 10 14 -2 30
-6 36 -10 6 -4 18 -1 27 7 14 11 15 11 9 0 -6 -10 -3 -13 11 -10 22 3 103 -31
103 -44 0 -4 7 -8 15 -8 9 0 26 -7 39 -15 12 -8 45 -18 72 -21 27 -4 56 -13
65 -21 18 -15 56 -6 76 18 14 18 -1 59 -22 59 -8 0 -14 6 -12 13 1 8 -13 13
-39 15 -35 3 -41 6 -37 22 4 16 9 17 29 8 20 -9 29 -7 59 16 33 25 34 28 20
49 -13 21 -13 24 5 40 11 9 25 17 30 17 6 0 10 9 10 20 0 13 5 17 14 14 8 -3
31 2 51 11 31 15 38 16 53 3 9 -8 23 -13 30 -12 6 1 16 2 20 3 5 0 18 15 31
32 l22 30 -42 40 c-31 30 -45 37 -55 28 -9 -7 -19 -7 -32 0 -11 6 -31 8 -45 5
-21 -3 -25 -1 -21 11 4 8 1 15 -5 15 -6 0 -11 6 -11 14 0 18 -22 26 -49 19
-21 -5 -25 2 -22 40 2 15 -15 22 -41 18 -5 0 -8 2 -8 7 0 9 52 33 58 27 3 -3
0 -5 -6 -5 -21 0 -13 -17 10 -23 13 -4 29 0 39 9 14 13 18 13 29 -1 7 -8 24
-15 38 -15 36 0 140 20 183 35 25 8 61 10 125 4 152 -13 224 -11 224 6 0 8 9
15 19 15 14 0 18 -5 14 -19 -6 -23 35 -41 47 -21 5 9 27 10 76 6 38 -4 98 -9
134 -11 42 -3 69 -10 76 -20 8 -11 31 -15 82 -15 39 0 73 -4 76 -9 5 -7 33
-14 121 -26 79 -12 103 -15 143 -19 23 -3 51 -10 61 -16 11 -5 35 -10 55 -10
19 0 41 -7 50 -15 8 -8 27 -15 42 -15 31 0 187 -51 192 -62 2 -5 7 -6 12 -3 4
3 13 -2 20 -10 7 -8 24 -15 38 -15 33 0 102 -21 102 -32 0 -4 18 -8 40 -8 22
0 40 -4 40 -10 0 -5 18 -13 40 -16 22 -4 40 -10 40 -13 0 -4 30 -14 66 -21 36
-8 67 -17 70 -22 3 -4 15 -6 27 -2 13 3 36 -2 52 -10 17 -9 47 -16 68 -16 20
0 37 -4 37 -8 0 -12 69 -32 86 -25 8 3 14 1 14 -5 0 -5 15 -12 33 -14 17 -3
70 -19 117 -36 47 -16 107 -33 135 -36 27 -3 54 -11 59 -16 15 -15 113 -13
119 3 3 8 9 6 19 -7 11 -14 22 -17 41 -12 14 3 36 2 49 -3 36 -13 216 -24 198
-12 -13 9 -13 11 2 11 9 0 26 -12 38 -27 18 -23 24 -25 40 -15 11 7 36 12 55
12 19 0 35 5 35 10 0 6 18 10 40 10 29 0 40 -4 40 -15 0 -11 11 -15 40 -15 22
0 40 -5 40 -10 0 -7 31 -9 87 -6 78 5 88 4 100 -14 8 -11 19 -17 25 -14 15 10
187 5 231 -7 23 -6 37 -16 37 -26 0 -15 2 -15 18 0 23 21 51 22 80 1 17 -11
46 -16 105 -16 47 0 88 -5 96 -11 11 -9 15 -9 18 1 5 14 33 17 33 3 0 -14 58
-31 107 -31 24 0 55 -7 68 -16 22 -14 27 -14 69 5 25 11 46 16 46 10 0 -5 18
-9 39 -9 25 0 41 -5 45 -15 3 -9 18 -15 35 -15 16 0 33 -5 37 -11 4 -7 32 -9
85 -4 51 5 79 3 79 -3 0 -5 36 -13 80 -17 45 -4 80 -12 80 -18 0 -5 9 -2 20 8
16 15 22 16 35 5 10 -8 53 -13 122 -15 70 -1 108 -6 111 -14 5 -14 29 -15 34
-1 2 6 56 13 123 17 66 3 128 10 138 15 10 5 25 5 37 -2 14 -7 20 -7 20 0 0 6
49 10 135 10 111 0 137 3 141 15 4 8 17 15 31 15 13 0 22 -4 19 -9 -3 -5 12
-16 33 -24 32 -13 51 -33 51 -53 0 -2 -8 -4 -17 -5 -12 0 -14 -2 -5 -6 20 -8
52 31 41 48 -7 11 -9 10 -9 -6 0 -16 -2 -17 -10 -5 -6 9 -6 18 0 24 14 14 12
29 -2 20 -7 -5 -8 -3 -3 5 5 9 10 10 18 2 15 -15 30 -14 21 1 -4 7 -3 8 5 4
16 -10 51 34 47 59 -3 14 2 21 13 21 10 0 18 -6 18 -12 0 -7 -6 -10 -12 -7 -9
3 -11 -6 -9 -27 3 -26 1 -31 -12 -26 -12 5 -14 1 -8 -16 5 -16 3 -20 -9 -15
-9 3 -21 -1 -28 -9 -10 -12 -9 -13 7 -8 13 5 8 -5 -16 -32 -19 -21 -38 -40
-42 -42 -4 -2 -10 -19 -14 -37 -3 -19 -13 -40 -22 -47 -13 -11 -14 -10 -4 9
16 29 16 30 -10 28 -18 -1 -22 -7 -20 -24 3 -21 -41 -86 -95 -139 -24 -24 -30
-42 -14 -42 5 0 12 6 14 13 3 6 6 2 6 -10 1 -14 -5 -23 -14 -23 -8 0 -15 5
-15 10 0 6 -9 10 -21 10 -14 0 -19 -5 -16 -14 3 -8 -1 -20 -9 -26 -8 -7 -14
-16 -14 -21 0 -4 -5 -20 -12 -36 -6 -15 -10 -35 -9 -43 2 -8 0 -12 -4 -8 -3 3
-9 25 -11 48 -4 35 -2 42 10 37 15 -6 30 18 20 34 -7 12 -24 12 -24 0 0 -12
-59 -71 -71 -71 -5 0 -14 -10 -20 -22 -6 -13 -32 -39 -59 -58 -27 -19 -50 -43
-50 -52 0 -9 -4 -20 -10 -23 -6 -4 -2 -25 9 -55 18 -47 18 -54 -1 -51 -22 3 9
-87 32 -94 15 -5 19 -13 15 -33 -5 -25 -5 -25 4 -4 12 27 16 28 18 5 1 -10 6
-34 11 -53 9 -30 10 -27 7 30 -4 78 -3 73 -15 65 -16 -10 0 176 22 245 25 77
27 79 61 86 22 3 27 1 27 -16 0 -25 -15 -26 -25 -2 -5 13 -12 5 -31 -37 -13
-29 -24 -65 -24 -80 0 -20 -2 -23 -10 -11 -15 23 -12 -61 5 -150 8 -41 16
-103 17 -137 2 -34 6 -64 10 -68 9 -9 28 28 30 59 1 15 6 26 10 26 9 0 21 -40
14 -47 -3 -4 -2 -11 3 -17 4 -6 11 -30 15 -53 7 -47 35 -103 52 -103 30 0 19
213 -13 252 -7 8 -10 25 -8 39 3 13 8 40 11 59 9 57 26 93 35 78 5 -7 9 -24 9
-38 l1 -25 10 25 c6 13 8 43 5 65 -3 22 -3 34 0 27 10 -22 24 -2 24 37 0 20
-6 43 -12 50 -9 10 -10 15 -2 18 8 2 10 26 7 71 -4 62 -3 66 11 48 9 -11 16
-27 16 -35 0 -12 3 -12 12 -3 10 10 9 19 -4 45 -21 41 -29 77 -17 77 5 0 9 -6
9 -14 0 -8 5 -27 11 -43 8 -22 12 -24 19 -13 7 11 10 6 10 -17 0 -52 37 -200
52 -209 5 -3 6 5 3 19 -4 14 -2 28 4 32 7 3 11 3 10 -2 -1 -4 -1 -15 1 -23 1
-11 4 -9 9 5 5 11 5 25 0 31 -5 6 -3 19 6 30 20 26 19 48 -1 40 -22 -8 -44 11
-44 38 0 11 -7 34 -15 50 -17 33 -20 72 -5 81 6 3 10 13 10 21 0 8 7 31 15 51
11 26 19 33 26 26 8 -8 8 -16 0 -30 -7 -12 -10 -14 -11 -4 0 8 -3 12 -6 8 -3
-3 1 -16 10 -29 l16 -22 0 22 c0 12 5 22 11 22 5 0 7 -4 4 -10 -3 -5 -1 -10 5
-10 6 0 8 -10 4 -25 -8 -32 4 -97 16 -90 6 3 8 -37 5 -99 -3 -84 -1 -104 10
-100 10 4 11 -2 4 -33 -8 -38 -11 -134 -2 -100 6 22 23 12 23 -14 0 -11 5 -17
10 -14 11 7 12 5 12 -40 1 -62 -2 -86 -11 -81 -5 4 -8 -2 -6 -11 12 -55 38
-159 42 -166 3 -5 14 8 25 28 10 21 16 40 13 43 -3 4 -9 1 -13 -5 -4 -7 -9 11
-10 39 -1 28 -7 58 -14 65 -14 17 -20 161 -7 169 5 3 6 -1 3 -9 -3 -8 -1 -18
5 -22 7 -4 11 6 11 26 0 18 3 29 7 25 4 -3 8 -49 9 -101 3 -104 10 -128 30
-101 11 16 14 13 32 -26 11 -26 17 -57 15 -75 -3 -17 0 -40 6 -51 7 -14 7 -28
-1 -49 -9 -23 -8 -39 5 -77 9 -26 14 -53 11 -61 -3 -8 6 -21 20 -30 14 -10 26
-22 26 -29 0 -6 12 -22 26 -35 20 -20 27 -22 34 -11 6 9 12 0 21 -31 l13 -44
4 33 c2 20 8 32 15 29 7 -2 17 5 23 16 10 17 11 8 10 -46 -1 -71 8 -88 19 -35
8 35 45 82 45 57 0 -8 9 -25 19 -39 l19 -24 7 37 c10 53 23 46 19 -10 -1 -26
0 -42 5 -35 4 7 12 -1 20 -23 7 -19 17 -35 22 -35 11 0 12 -37 0 -44 -10 -7
-11 -86 0 -86 4 0 11 25 14 55 4 30 10 57 14 60 4 2 3 30 -1 62 -5 32 -9 66
-10 75 -2 13 -5 14 -16 6 -10 -9 -16 -8 -23 3 -10 16 -12 36 -3 26 3 -3 18 5
32 18 33 30 42 22 44 -38 0 -26 5 -47 10 -47 11 0 -1 101 -13 115 -5 5 -9 14
-9 20 0 5 7 2 14 -8 8 -10 20 -16 27 -15 15 4 30 -57 22 -91 -4 -18 -3 -22 7
-16 10 6 11 0 6 -30 -4 -21 -3 -35 2 -32 13 9 1 -56 -15 -74 -9 -10 -12 -28
-8 -48 4 -23 1 -33 -10 -37 -13 -5 -13 -9 -3 -22 7 -8 12 -17 11 -18 -6 -10
11 -66 22 -70 11 -5 12 -35 6 -164 -2 -25 -5 -38 -8 -30 -3 8 -10 17 -14 20
-5 3 -4 23 2 43 10 39 5 77 -12 77 -5 0 -9 -4 -9 -10 0 -5 -5 -10 -11 -10 -8
0 -8 4 0 14 9 10 8 16 -4 26 -12 10 -15 10 -16 -1 0 -8 -2 -21 -5 -29 -10 -36
-23 -117 -23 -145 0 -29 5 -17 35 84 6 20 11 11 15 -24 2 -18 -1 -29 -8 -28
-6 1 -11 -8 -12 -20 -1 -40 1 -261 4 -327 1 -36 -2 -71 -8 -77 -6 -9 -6 -13 1
-13 6 0 9 -8 6 -17 -17 -54 -27 -72 -36 -66 -6 3 -8 0 -6 -8 3 -8 -1 -27 -9
-42 -19 -38 -12 -42 21 -16 15 12 23 25 18 28 -5 3 -6 15 -2 26 7 18 9 18 19
-8 18 -45 5 -153 -26 -214 -30 -59 -46 -70 -32 -21 14 49 11 56 -12 29 -11
-13 -18 -30 -15 -37 3 -7 1 -16 -4 -19 -6 -4 -10 -14 -10 -23 0 -15 2 -15 10
-2 14 21 13 -3 -2 -35 -9 -20 -9 -28 2 -38 10 -10 12 -9 7 4 -3 9 7 30 24 50
l28 34 -6 -40 c-7 -41 -33 -101 -33 -75 0 9 -6 6 -16 -9 -10 -13 -18 -48 -19
-84 -4 -82 -4 -79 -15 -72 -6 3 -10 -5 -10 -19 0 -14 -4 -27 -9 -30 -5 -3 -18
-24 -30 -47 -12 -22 -16 -37 -10 -33 9 5 10 0 6 -17 -4 -13 -7 -27 -7 -31 0
-5 -7 -8 -15 -8 -8 0 -15 -6 -16 -12 0 -7 -3 -29 -6 -48 -3 -19 -5 -46 -5 -59
0 -15 -3 -19 -8 -12 -5 9 -13 5 -29 -15 l-21 -27 0 24 c0 13 -5 31 -11 39 -8
12 -10 10 -5 -9 6 -28 -27 -111 -43 -111 -6 0 -11 -8 -11 -17 0 -10 -6 -29
-13 -43 -8 -15 -17 -44 -20 -65 l-6 -40 19 23 c10 12 24 47 30 76 7 35 21 64
38 81 38 38 39 16 2 -84 -16 -46 -30 -97 -30 -113 0 -16 -7 -43 -16 -60 -9
-16 -18 -54 -21 -84 -4 -33 -11 -55 -20 -58 -12 -5 -14 2 -8 36 l6 43 -15 -30
c-8 -16 -19 -52 -26 -80 -14 -62 -27 -80 -46 -64 -17 14 -18 33 -2 22 8 -4 6
3 -3 18 -10 14 -16 41 -14 62 1 30 -1 35 -12 26 -10 -9 -13 -6 -13 14 0 14 -4
29 -10 32 -6 3 -10 -3 -10 -14 0 -12 -5 -21 -11 -21 -6 0 -9 -7 -5 -15 3 -9 0
-15 -10 -15 -11 0 -12 -5 -5 -17 5 -10 8 -29 7 -43 -1 -14 3 -29 9 -33 7 -6 6
-10 -2 -13 -7 -3 -10 -13 -7 -22 3 -9 -5 -4 -17 12 -21 26 -23 27 -30 10 -3
-10 -2 -30 3 -43 6 -16 5 -28 -3 -35 -9 -8 -10 -8 -5 1 3 6 2 14 -4 18 -5 3
-11 -4 -12 -17 0 -13 -2 -36 -3 -51 -1 -18 6 -36 18 -48 11 -10 17 -22 13 -26
-9 -9 -45 35 -47 57 0 8 -7 0 -15 -19 -12 -26 -12 -36 -3 -42 15 -9 5 -39 -13
-39 -10 0 -9 3 1 9 12 8 12 12 -2 26 -10 9 -14 22 -10 28 4 8 1 7 -9 -1 -14
-11 -17 -10 -23 7 -3 12 -13 21 -20 21 -10 0 -14 9 -11 30 2 21 -1 30 -11 30
-9 0 -13 6 -10 14 3 8 1 17 -6 19 -9 3 -9 7 0 18 10 12 8 17 -6 26 -13 8 -21
30 -26 63 -4 28 -13 57 -21 65 -8 8 -17 38 -20 67 -8 74 -30 185 -47 233 -8
22 -17 67 -21 100 -12 106 -15 113 -38 107 -19 -5 -20 -2 -14 24 7 28 7 28 -8
9 -9 -12 -15 -15 -16 -7 0 7 -4 11 -9 7 -5 -3 -13 -1 -16 5 -5 8 -14 6 -30 -4
-13 -9 -25 -11 -27 -6 -2 6 -15 3 -32 -5 -35 -19 -40 -19 -32 0 9 23 -20 18
-38 -8 -8 -12 -13 -15 -10 -6 3 10 0 20 -6 24 -9 6 -9 10 1 16 10 6 11 9 2 9
-7 0 -13 7 -13 16 0 8 -5 12 -11 9 -5 -4 -19 1 -29 10 -10 9 -24 14 -30 10 -8
-5 -10 -2 -6 11 5 16 1 19 -32 18 -20 -1 -46 2 -56 6 -19 6 -19 7 0 21 41 30
19 63 -26 39 -16 -8 -19 -5 -25 19 -5 22 -1 35 14 50 12 12 21 27 21 34 0 8
14 41 30 75 16 34 30 68 31 75 1 6 4 1 8 -13 7 -21 9 -17 18 30 l9 55 18 -40
c10 -24 15 -52 12 -69 -9 -42 4 -25 15 21 24 94 27 149 13 203 -11 43 -11 56
-1 62 9 6 9 8 0 8 -7 0 -10 6 -7 14 3 8 0 24 -6 36 -11 20 -10 21 9 10 19 -10
26 -33 22 -69 -2 -7 2 -10 8 -6 6 3 11 13 11 21 0 8 4 14 9 14 10 0 61 105 60
124 0 6 -14 -18 -31 -54 -28 -61 -31 -63 -41 -42 -16 35 35 103 92 121 l43 13
-35 37 c-36 37 -55 87 -36 93 5 2 7 11 4 21 -4 9 -10 15 -15 12 -4 -2 -12 12
-18 33 -9 29 -8 47 2 82 8 25 19 44 25 42 8 -1 9 3 3 15 -5 10 -12 45 -15 77
-3 33 -12 63 -19 67 -11 7 -10 9 1 9 11 0 10 5 -3 24 -48 75 -70 240 -40 311
15 36 15 38 -1 25 -15 -12 -16 -11 -10 16 5 24 4 26 -5 11 -6 -9 -10 -25 -9
-35 2 -28 0 -42 -9 -42 -12 0 -8 158 3 169 7 6 11 0 12 -17 1 -15 9 -40 17
-56 l15 -29 -2 45 c-1 33 -6 44 -15 40 -17 -6 -6 42 19 83 l19 30 -7 -35 c-4
-19 -7 -44 -6 -55 0 -11 1 -62 3 -113 2 -87 3 -92 16 -67 8 15 14 38 14 51 0
13 9 29 20 36 11 7 21 22 21 33 1 11 5 4 9 -15 l7 -35 2 42 c1 45 -14 66 -24
33 -3 -11 -11 -20 -16 -20 -5 0 -9 -6 -9 -14 0 -8 -5 -18 -12 -22 -8 -5 -10
24 -4 117 4 83 3 119 -4 109 -8 -13 -10 -13 -10 2 0 9 4 19 9 22 16 10 24 -28
21 -108 -1 -54 1 -76 9 -72 6 4 12 26 12 49 1 23 3 34 6 25 2 -10 9 -18 15
-18 14 0 3 123 -11 128 -14 5 -14 49 -1 57 6 4 7 11 4 17 -4 6 0 14 7 19 22
13 3 22 -21 9 -16 -9 -20 -18 -16 -38 3 -15 2 -34 -4 -42 -13 -20 -14 41 -1
90 14 56 20 111 12 105 -5 -2 -7 16 -4 41 2 29 0 43 -7 39 -15 -9 -12 2 6 20
9 9 14 19 10 22 -6 6 -56 -46 -56 -58 0 -4 7 -9 15 -13 8 -3 15 -11 14 -18 0
-10 -2 -10 -6 0 -2 6 -9 10 -14 6 -5 -3 -9 0 -9 5 0 6 -4 11 -9 11 -13 0 -99
-91 -122 -130 -25 -40 -44 -60 -58 -60 -21 0 -60 -51 -80 -105 -12 -31 -21
-60 -21 -64 0 -5 -7 -14 -15 -21 -8 -7 -15 -27 -15 -46 0 -18 -5 -45 -10 -61
-10 -28 -10 -28 7 -7 10 12 24 30 30 40 10 16 11 14 2 -11 -6 -16 -15 -35 -21
-42 -7 -9 -7 -13 0 -13 5 0 19 15 31 33 l21 32 0 -28 c0 -16 -4 -26 -10 -22
-5 3 -10 0 -10 -8 0 -8 -6 -17 -14 -20 -7 -3 -17 -25 -21 -49 -4 -23 -9 -45
-9 -48 -9 -31 -19 -88 -17 -99 1 -7 -2 -10 -8 -6 -6 3 -11 -1 -11 -10 0 -9 5
-13 11 -9 8 4 9 -4 4 -27 -4 -19 -12 -37 -18 -40 -5 -4 -6 -13 -1 -20 11 -18
12 -59 1 -59 -5 0 -7 -18 -3 -40 4 -25 2 -40 -4 -40 -6 0 -10 -39 -10 -100 0
-99 0 -100 -24 -100 -19 0 -23 4 -19 20 3 11 9 20 14 20 5 0 9 10 9 22 0 19
-2 20 -12 6 -10 -12 -20 -13 -45 -6 -18 5 -33 15 -33 23 0 8 -5 15 -11 15 -8
0 -7 5 1 15 7 9 18 14 24 12 15 -5 41 24 41 47 0 20 -31 31 -41 15 -3 -5 -22
-7 -42 -4 -25 4 -33 3 -23 -3 9 -7 10 -12 2 -16 -10 -7 -13 -3 -15 27 -1 6 -5
16 -11 20 -5 5 11 6 37 4 38 -4 49 -1 53 12 8 25 6 36 -7 36 -6 0 -13 6 -16
14 -3 8 0 11 7 7 6 -4 11 -3 11 3 0 5 -8 15 -17 20 -11 6 -13 11 -5 11 7 0 10
5 7 10 -4 6 -10 8 -15 5 -5 -3 -11 -1 -15 5 -3 6 1 13 9 16 12 5 13 10 5 25
-6 12 -15 17 -22 12 -18 -11 -37 -12 -37 -2 0 5 7 9 15 9 18 0 20 21 3 38 -17
17 -28 15 -28 -4 0 -8 -5 -12 -10 -9 -6 4 -8 10 -5 15 3 5 -4 14 -15 20 -11 6
-20 19 -20 29 0 14 -5 18 -20 14 -14 -4 -18 -9 -11 -17 7 -8 4 -16 -8 -26 -11
-7 -17 -19 -14 -26 2 -6 -1 -15 -7 -19 -8 -5 -8 -11 1 -21 9 -11 7 -14 -10
-14 -11 0 -20 -3 -20 -7 4 -28 -3 -63 -12 -60 -6 1 -14 -4 -16 -10 -3 -7 0
-13 6 -13 16 0 2 -54 -19 -71 -11 -10 -18 -25 -15 -38 3 -18 0 -20 -19 -15
-25 6 -44 -10 -26 -21 6 -4 8 -11 5 -16 -4 -5 3 -9 14 -9 22 0 29 -16 9 -22
-13 -5 -19 -48 -6 -48 4 0 8 7 8 16 0 13 7 16 38 11 20 -3 31 -3 25 0 -16 6
-17 23 -3 23 6 0 16 -11 22 -25 6 -14 16 -25 21 -25 5 0 4 7 -3 15 -14 17 -5
36 14 29 9 -4 14 -24 14 -65 0 -57 -1 -59 -16 -38 -12 18 -12 23 -1 30 7 4 10
11 7 15 -4 4 -19 -1 -34 -11 -26 -17 -27 -17 -22 3 10 35 -38 33 -91 -5 -2 -1
1 -8 7 -16 18 -22 10 -71 -13 -75 -26 -5 -46 -22 -39 -33 3 -5 -6 -9 -20 -9
-14 0 -28 -5 -32 -11 -3 -6 -17 -9 -30 -6 -13 2 -24 0 -24 -4 0 -14 -28 -11
-33 4 -4 9 -6 9 -6 0 -1 -16 -32 -53 -44 -53 -11 0 -77 -70 -77 -82 0 -4 -9
-8 -20 -8 -11 0 -20 -6 -20 -12 0 -8 -7 -5 -15 6 -8 11 -15 14 -15 8 0 -7 -5
-12 -11 -12 -5 0 -8 4 -4 9 3 5 1 12 -5 16 -5 3 -10 -1 -10 -11 0 -14 -3 -14
-15 -4 -11 9 -19 10 -26 3 -7 -7 -41 -9 -92 -5 -72 5 -80 3 -74 -11 4 -11 1
-17 -7 -17 -9 0 -12 -7 -9 -20 4 -17 0 -20 -24 -20 -16 0 -34 -5 -40 -11 -8
-8 -13 -8 -17 0 -5 7 -15 6 -32 -5 -17 -12 -24 -13 -24 -4 0 7 -7 10 -16 6 -8
-3 -25 1 -37 8 -17 11 -43 13 -117 7 -52 -4 -102 -4 -111 0 -14 7 -56 6 -194
-7 -22 -2 -48 -4 -58 -4 -28 -2 -97 -40 -97 -55 0 -7 -9 -24 -21 -39 -11 -14
-17 -26 -14 -26 4 0 2 -6 -4 -14 -6 -7 -12 -25 -13 -40 -3 -33 -28 -59 -28
-29 0 10 6 25 12 32 11 10 7 10 -17 0 -16 -7 -36 -18 -44 -23 -12 -9 -13 -8
-6 3 6 11 4 13 -9 8 -10 -4 -22 -7 -27 -7 -6 0 -7 -5 -4 -10 3 -6 2 -10 -4
-10 -5 0 -11 11 -13 25 l-3 25 -12 -25 c-8 -19 -8 -23 0 -18 7 3 8 2 4 -2 -10
-12 -38 -15 -31 -4 3 5 -7 4 -21 -1 -32 -12 -38 -12 -31 -1 3 5 -1 12 -10 15
-11 4 -15 2 -11 -7 3 -8 -1 -14 -9 -14 -8 0 -14 5 -14 10 0 5 -6 4 -14 -2 -11
-9 -15 -9 -19 1 -4 8 -8 9 -14 3 -4 -6 -20 -16 -36 -24 -25 -13 -29 -13 -42 5
-14 17 -14 17 -4 -11 9 -26 7 -32 -11 -47 -12 -10 -17 -18 -11 -18 6 0 11 -5
11 -10 0 -6 -10 -8 -24 -4 -21 5 -24 3 -19 -14 5 -20 -20 -37 -38 -26 -5 3 -9
0 -9 -5 0 -6 -10 -11 -22 -11 -19 0 -20 -2 -8 -10 13 -9 7 -14 -12 -11 -5 0
-8 -4 -8 -9 0 -6 -11 -10 -23 -10 -13 0 -32 -9 -41 -19 -10 -11 -25 -17 -34
-14 -10 4 -13 2 -8 -5 10 -17 -9 -15 -23 1 -15 19 -3 27 25 17 19 -7 24 -6 24
5 0 8 -5 15 -11 15 -5 0 -8 4 -4 10 3 5 12 7 20 3 8 -3 15 0 15 6 0 20 -32 61
-42 55 -6 -4 -8 4 -7 17 2 13 0 29 -4 36 -4 6 -3 14 3 18 17 10 11 25 -7 18
-12 -5 -14 -3 -8 7 6 10 4 12 -8 7 -10 -4 -17 -1 -17 6 0 8 -3 8 -9 -2 -6 -9
-11 -10 -15 -2 -4 6 -13 11 -19 11 -7 0 -6 -4 3 -10 12 -7 11 -10 -5 -16 -11
-4 -24 -9 -29 -12 -5 -3 -6 0 -3 5 4 6 0 13 -8 16 -9 4 -12 1 -8 -8 4 -12 -2
-14 -27 -8 -22 4 -31 3 -27 -4 4 -6 -2 -13 -13 -16 -14 -3 -30 4 -49 24 -16
16 -37 29 -45 29 -9 0 -16 4 -16 10 0 5 8 7 18 4 15 -5 14 -3 -2 10 -27 22
-13 31 23 16 16 -6 35 -9 41 -5 6 4 17 -1 25 -11 13 -18 13 -17 11 9 -3 29 3
34 22 15 9 -9 12 -8 12 5 0 9 4 17 9 17 14 0 21 -28 8 -34 -7 -3 -2 -3 11 0
14 3 22 1 22 -7 0 -7 3 -9 7 -6 3 4 -3 18 -15 30 -12 13 -19 27 -15 30 3 4 -1
7 -10 7 -9 0 -17 5 -17 11 0 5 -4 8 -9 4 -5 -3 -12 -1 -16 5 -3 5 -19 8 -34 5
-22 -4 -31 0 -41 20 -7 14 -17 25 -22 25 -4 0 -8 7 -8 15 0 18 27 20 32 3 2
-6 15 -12 29 -13 15 -1 23 -7 21 -17 -2 -11 8 -17 33 -20 19 -2 35 0 35 4 0 4
5 8 10 8 6 0 10 -6 10 -14 0 -20 24 -61 38 -63 16 -4 15 9 0 26 -11 11 -10 13
2 7 8 -4 6 0 -4 8 -18 14 -15 21 7 17 12 -2 8 14 -8 35 -13 16 -14 16 -9 2 4
-12 1 -18 -10 -18 -9 0 -16 5 -16 11 0 8 -4 8 -13 1 -17 -15 -55 -11 -62 6 -3
8 2 13 13 11 31 -3 52 1 52 10 0 4 -17 5 -37 2 -50 -9 -83 -3 -83 14 0 9 -6
12 -15 9 -8 -4 -15 -2 -15 4 0 5 10 9 23 8 12 -1 32 5 45 12 20 13 22 13 16
-2 -4 -10 -1 -16 9 -16 8 0 18 -6 20 -12 4 -10 6 -10 6 -1 1 6 -3 15 -9 18 -6
3 -10 10 -10 15 0 13 77 5 94 -9 7 -6 16 -8 19 -4 4 3 7 -1 7 -10 0 -9 4 -17
9 -17 4 0 8 10 7 23 -1 13 -7 21 -15 19 -8 -2 -11 3 -8 13 4 9 1 15 -8 15 -8
0 -15 5 -15 11 0 7 14 8 41 4 33 -6 40 -4 36 6 -2 8 -10 13 -17 11 -7 -1 -23
4 -36 13 -22 14 -23 14 -18 -2 5 -15 3 -14 -10 2 -8 11 -23 28 -33 38 -14 15
-15 21 -5 37 9 14 9 19 1 18 -6 -2 -13 2 -16 9 -3 7 4 10 19 7 21 -5 21 -4 5
6 -32 21 -74 29 -86 17 -8 -8 -11 -8 -11 0 0 7 5 15 11 18 6 5 3 13 -10 22
-25 17 -28 65 -5 87 8 9 17 16 20 16 7 0 0 -25 -10 -31 -5 -4 1 -15 12 -25 23
-20 20 -37 -5 -27 -11 4 -14 3 -9 -5 9 -15 29 -15 44 0 9 9 7 14 -6 24 -9 7
-14 16 -9 20 4 4 13 2 19 -4 7 -7 22 -12 35 -12 14 0 23 -6 23 -15 0 -19 20
-19 55 -1 25 13 26 15 9 24 -11 5 -25 7 -31 5 -19 -7 -15 14 5 27 14 9 12 10
-10 5 -19 -3 -28 -1 -28 7 0 9 -3 9 -9 -2 -6 -8 -7 -18 -5 -22 3 -4 0 -8 -6
-8 -7 0 -10 6 -7 14 5 13 -34 56 -52 56 -5 0 -17 -7 -26 -16 -15 -16 -16 -14
-10 22 11 65 12 67 46 60 21 -4 28 -2 23 6 -5 7 -2 9 9 5 11 -4 14 -2 11 8 -6
14 -21 15 -42 1 -17 -10 -42 11 -27 22 14 10 19 156 5 147 -6 -3 -7 -11 -4
-17 4 -6 0 -14 -7 -19 -10 -6 -10 -9 -2 -9 7 0 10 -7 7 -15 -7 -17 -40 -20
-49 -5 -4 6 -10 8 -15 5 -4 -3 -11 3 -15 12 -3 10 -1 19 6 22 6 2 19 12 27 22
9 11 22 19 29 19 6 0 15 4 18 10 4 6 -1 7 -12 3 -19 -7 -18 -5 11 17 11 8 17
10 14 5 -4 -6 -3 -17 3 -25 7 -12 9 -12 9 3 0 14 4 16 19 8 13 -7 29 -7 50 0
35 12 41 29 11 29 -22 0 -26 10 -10 26 7 7 5 17 -6 30 -8 10 -12 13 -8 5 5
-11 3 -13 -10 -8 -13 5 -17 3 -13 -7 3 -8 -1 -22 -8 -33 -13 -17 -14 -17 -10
5 2 14 -1 22 -11 22 -8 0 -14 9 -14 20 0 21 -14 27 -24 11 -4 -5 0 -12 6 -14
8 -3 6 -6 -5 -6 -10 -1 -16 -5 -13 -9 3 -5 -6 -15 -19 -22 -14 -7 -25 -20 -25
-27 0 -8 4 -11 10 -8 6 4 10 -5 10 -21 0 -24 -3 -26 -30 -21 -16 4 -32 2 -35
-3 -3 -6 4 -10 16 -10 18 0 19 -3 9 -15 -6 -8 -9 -19 -5 -24 3 -6 -8 -10 -30
-9 -20 1 -40 -3 -46 -9 -7 -7 -2 -9 18 -7 15 2 22 1 16 -2 -7 -3 -13 -12 -13
-20 0 -8 -5 -14 -12 -14 -6 0 -3 -7 8 -15 19 -14 19 -14 -4 -30 -16 -12 -20
-21 -13 -33 11 -22 -20 -77 -36 -61 -7 7 -10 3 -10 -15 0 -14 3 -26 8 -26 5 0
9 -5 9 -11 0 -5 -5 -7 -10 -4 -6 4 -6 -4 1 -19 10 -20 15 -23 30 -13 14 9 15
13 5 21 -7 6 -16 18 -19 27 -4 13 5 15 62 13 54 -2 61 0 38 8 -27 10 -27 11
-11 29 9 10 20 16 25 14 4 -3 11 0 15 6 5 8 3 9 -6 4 -10 -6 -12 -4 -7 8 5 12
1 17 -13 17 -10 0 -22 -4 -25 -10 -3 -5 -1 -10 5 -10 6 0 8 -5 5 -10 -4 -7
-13 -7 -26 0 -16 9 -17 14 -8 32 10 18 9 20 -5 15 -9 -4 -16 -2 -16 2 0 5 7
11 15 15 17 6 21 36 4 36 -5 0 -7 4 -4 10 3 6 28 10 55 10 45 0 49 -2 59 -31
8 -24 8 -36 0 -45 -6 -8 -8 -14 -3 -14 5 0 2 -5 -6 -10 -8 -5 -10 -10 -4 -10
6 0 11 -7 11 -15 0 -8 -4 -15 -8 -15 -5 0 -6 -7 -3 -15 4 -8 1 -15 -5 -15 -6
0 -9 -10 -7 -22 1 -13 -2 -39 -7 -58 -6 -19 -10 -45 -9 -57 1 -12 -3 -25 -8
-28 -6 -3 -7 -17 -4 -31 4 -14 2 -24 -5 -24 -6 0 -8 -7 -4 -17 4 -10 2 -14 -4
-10 -11 7 -69 -18 -78 -34 -4 -5 1 -9 9 -9 8 0 18 5 21 10 4 6 11 8 16 4 18
-11 -3 -24 -39 -24 -25 0 -32 -3 -23 -9 7 -5 21 -6 31 -4 10 3 20 1 23 -4 7
-11 -13 -83 -23 -83 -3 0 -6 -16 -7 -36 -1 -38 -10 -54 -21 -39 -4 6 -23 11
-42 13 l-35 2 33 -14 c47 -22 41 -39 -13 -34 -25 2 -45 0 -45 -5 0 -4 -9 -2
-20 5 -24 15 -27 33 -4 24 13 -5 15 -1 10 19 -5 19 -3 23 8 19 10 -4 14 1 13
15 -1 22 -3 22 -49 25 -26 2 -26 1 -11 -16 15 -17 15 -18 -3 -19 -14 -1 -13
-3 6 -9 21 -6 22 -8 8 -14 -9 -4 -14 -14 -11 -22 3 -8 1 -14 -5 -14 -6 0 -8
-10 -4 -22 5 -19 2 -21 -29 -16 -34 6 -69 -9 -69 -29 0 -14 59 -8 103 10 28
12 35 20 30 34 -5 14 -3 15 7 6 7 -7 31 -9 61 -6 l49 5 0 -31 c0 -17 -5 -31
-11 -31 -5 0 -8 -4 -4 -9 8 -15 -34 -39 -58 -34 -17 4 -19 3 -7 -6 23 -16 -36
-34 -87 -26 -28 4 -43 2 -43 -4 0 -6 7 -11 16 -11 11 0 14 -5 10 -16 -4 -11
-1 -14 12 -10 10 4 27 -1 38 -9 10 -8 14 -15 7 -15 -6 0 -15 5 -18 10 -7 12
-26 14 -24 3 3 -21 -3 -33 -17 -33 -8 0 -12 5 -8 11 5 8 1 8 -14 0 -24 -13
-38 -31 -24 -31 5 0 12 -9 15 -20 3 -11 0 -20 -6 -20 -7 0 -23 -12 -36 -25
-16 -17 -30 -24 -42 -20 -21 7 -25 -5 -8 -22 8 -8 5 -13 -11 -18 -24 -8 -22
-31 3 -29 9 1 14 -2 11 -7 -3 -5 -13 -8 -21 -7 -22 4 -37 -50 -20 -71 6 -9 1
-7 -12 4 l-24 20 7 -20 c15 -36 11 -50 -11 -53 -29 -4 -29 -17 -1 -36 12 -9
18 -16 12 -16 -5 0 -15 5 -21 11 -7 7 -15 5 -27 -6 -9 -9 -16 -13 -16 -8 0 5
5 14 11 20 7 7 6 12 -4 16 -9 3 -14 -1 -13 -11 0 -9 -8 -18 -19 -20 -60 -9
-67 -13 -62 -31 4 -15 0 -18 -20 -16 -13 1 -26 5 -29 8 -3 3 -19 1 -35 -3 -17
-5 -31 -5 -34 1 -11 17 -44 9 -50 -12 -4 -11 -9 -18 -12 -15 -4 3 -11 2 -18
-2 -6 -4 -2 2 10 12 l20 19 -22 -6 c-13 -3 -23 -1 -23 4 0 6 -8 5 -20 -1 -14
-7 -20 -7 -20 0 0 5 6 10 13 10 8 0 7 4 -3 10 -11 7 -6 8 18 4 27 -5 31 -4 26
9 -3 8 -12 18 -20 21 -8 3 -14 12 -14 20 0 7 -7 16 -15 20 -8 3 -15 12 -15 21
0 8 -4 15 -10 15 -5 0 -10 7 -10 15 0 13 4 14 21 5 11 -6 28 -10 37 -8 12 3 4
11 -26 29 l-43 26 31 7 c18 3 36 3 41 0 5 -3 9 0 9 6 0 15 -33 26 -38 12 -4
-13 -72 16 -72 30 0 5 9 4 20 -2 17 -9 20 -8 20 13 0 14 -7 30 -15 37 -8 7
-15 23 -15 36 0 31 -35 51 -55 31 -8 -8 -11 -18 -7 -21 3 -4 -1 -4 -11 0 -21
7 -21 30 -2 109 24 97 15 98 -10 1 -18 -68 -30 -95 -52 -114 -15 -14 -20 -22
-11 -19 22 8 33 -9 12 -17 -13 -5 -14 -9 -4 -21 10 -12 9 -16 -6 -22 -10 -4
-19 -2 -22 5 -3 9 -9 9 -23 2 -10 -6 -19 -7 -19 -2 0 4 -16 9 -36 10 -23 2
-33 -1 -29 -8 3 -6 11 -8 16 -4 5 3 16 0 24 -6 8 -7 26 -10 39 -8 14 3 31 1
38 -3 9 -6 7 -9 -9 -9 -12 0 -25 -5 -28 -10 -3 -6 -17 -10 -31 -10 -13 0 -24
-5 -24 -11 0 -7 12 -10 30 -7 16 2 32 0 34 -6 2 -6 5 -2 5 9 1 17 3 17 11 5 5
-8 10 -20 10 -27 0 -16 -40 -21 -68 -9 -16 6 -26 6 -34 -2 -7 -7 -23 -12 -36
-12 -18 0 -22 4 -17 19 3 11 1 22 -5 26 -6 3 -8 10 -5 15 5 9 -58 60 -74 60
-6 0 -12 5 -12 10 -1 6 -3 15 -4 20 -1 6 -3 13 -4 16 0 4 -8 1 -16 -6 -24 -20
-29 -4 -7 18 20 20 20 20 -1 26 -14 3 -25 -1 -34 -14 -8 -11 -25 -20 -39 -20
-13 0 -24 -4 -24 -10 0 -5 -7 -7 -15 -4 -16 7 -21 54 -6 54 5 0 7 9 4 21 -4
14 -1 20 8 17 8 -2 16 2 17 7 1 6 -2 11 -8 11 -5 1 -12 2 -14 3 -3 0 0 15 5
31 13 36 32 40 23 5 -6 -25 -5 -26 34 -23 23 2 38 7 35 14 -2 6 3 11 11 11 8
0 15 -3 14 -6 -2 -20 4 -29 22 -34 11 -3 20 -1 20 4 0 5 -7 9 -15 9 -18 0 -20
20 -2 21 6 0 -1 5 -16 11 -20 7 -25 13 -18 22 13 15 3 28 -31 43 -24 11 -28
10 -28 -3 0 -10 6 -14 14 -11 19 8 53 -17 37 -27 -6 -4 -18 -3 -25 3 -9 7 -16
7 -24 -1 -9 -9 -16 -8 -29 5 -15 15 -15 17 -1 22 10 4 14 14 11 26 -4 13 0 19
10 19 9 0 19 4 22 10 3 6 -1 7 -9 4 -19 -7 -33 23 -18 38 7 7 19 4 40 -11 36
-25 43 -26 36 -6 -4 8 -9 13 -13 11 -4 -3 -13 -1 -21 5 -12 7 -10 9 8 9 13 0
22 6 22 15 0 25 -4 30 -24 27 -13 -1 -16 2 -12 13 3 8 1 15 -4 15 -17 0 -3 68
19 91 17 18 24 20 33 11 10 -10 10 -15 0 -21 -11 -7 -10 -10 3 -15 9 -3 21 -3
26 0 6 3 15 1 22 -4 11 -10 17 -12 35 -12 4 0 0 -4 -8 -10 -8 -5 -11 -12 -7
-16 4 -4 13 -2 19 4 15 15 28 15 28 1 0 -5 -4 -7 -10 -4 -5 3 -10 1 -10 -4 0
-6 5 -11 10 -11 14 0 12 -33 -3 -49 -10 -11 -8 -11 11 -2 22 12 42 8 42 -9 0
-5 -8 -10 -17 -12 -12 -2 -14 -6 -6 -11 6 -4 18 -1 26 7 11 11 17 12 26 3 6
-6 18 -12 27 -13 19 -3 47 20 37 30 -4 3 1 6 10 6 26 0 20 20 -5 21 -27 2 -58
5 -75 7 -7 1 -13 9 -13 18 0 8 -4 12 -10 9 -5 -3 -10 -2 -10 4 0 18 16 20 45
5 15 -8 36 -12 47 -9 10 4 18 2 18 -4 0 -6 5 -11 10 -11 23 0 8 21 -19 26 -17
4 -32 13 -35 21 -4 10 -2 13 8 10 10 -4 13 -1 10 7 -3 8 -16 12 -32 9 -26 -3
-26 -3 -4 8 27 15 29 29 2 29 -11 0 -37 11 -58 23 -20 13 -45 23 -54 21 -9 -1
-19 4 -22 11 -5 14 -56 18 -56 4 0 -5 -7 -9 -15 -9 -9 0 -15 9 -15 22 0 16 -3
19 -11 11 -8 -8 -26 0 -66 30 -30 23 -50 43 -44 45 6 2 8 9 5 14 -4 7 -2 8 5
4 6 -4 9 -12 6 -17 -3 -5 0 -6 8 -3 8 3 18 0 22 -6 6 -9 10 -9 16 1 6 10 11 6
18 -14 6 -15 13 -27 16 -27 4 0 3 6 0 13 -4 6 0 4 8 -5 11 -14 20 -16 48 -8
44 13 44 13 29 -5 -9 -10 -9 -15 -1 -16 31 -4 36 -6 34 -16 -1 -7 15 -9 45 -7
26 2 50 3 55 4 4 0 7 5 7 11 0 5 -5 7 -12 3 -7 -5 -9 -1 -6 13 3 11 2 27 -3
36 -11 19 20 34 32 15 7 -11 117 -13 129 -2 7 8 -23 23 -33 17 -4 -3 -15 3
-22 13 -13 18 -14 18 -15 2 0 -25 -13 -22 -44 8 l-26 26 -8 -22 c-7 -20 -10
-21 -15 -7 -4 10 -2 17 4 17 6 0 8 9 4 20 -7 21 10 28 18 8 4 -9 6 -7 6 3 1 9
-8 24 -19 34 -11 10 -20 14 -20 9 0 -5 -7 0 -16 11 -10 14 -17 16 -22 8 -4 -6
-22 -11 -39 -11 -18 1 -30 5 -27 10 3 4 0 8 -6 8 -6 0 -18 7 -26 15 -14 13
-14 15 0 15 9 0 16 -4 16 -9 0 -12 43 -1 52 12 4 7 12 6 23 -3 14 -12 18 -12
26 1 5 8 9 17 9 22 0 4 5 7 11 7 6 0 9 -6 6 -12 -3 -9 6 -13 31 -12 40 1 56
22 23 31 -27 7 -27 29 0 44 17 9 19 13 8 20 -8 5 -20 2 -31 -8 -11 -10 -18
-12 -18 -5 0 7 5 12 11 12 8 0 7 6 -2 16 -12 15 -14 14 -19 -6 -8 -33 -28 -36
-41 -6 -13 28 -32 37 -22 10 4 -12 -4 -10 -33 9 -21 14 -38 30 -37 35 1 5 -13
26 -32 47 -19 20 -35 41 -35 46 0 5 -7 9 -15 9 -8 0 -15 5 -15 10 0 15 16 12
30 -5 9 -11 16 -12 25 -5 9 7 21 7 39 0 38 -14 39 -13 6 20 -16 16 -35 30 -43
30 -14 0 -37 19 -37 32 0 11 63 -3 81 -18 21 -19 35 -18 19 1 -7 8 -8 15 -2
15 5 0 15 -7 22 -15 10 -12 10 -15 0 -15 -7 0 -10 -7 -6 -16 5 -12 2 -15 -11
-10 -12 4 -9 -1 6 -12 15 -12 21 -24 16 -32 -5 -8 -3 -11 6 -8 8 3 20 -1 27
-9 8 -8 24 -11 40 -7 38 9 45 19 26 35 -12 9 -15 10 -10 2 4 -8 1 -13 -8 -13
-25 0 -19 25 10 40 20 11 31 12 56 2 24 -9 29 -9 20 0 -18 18 -14 30 6 19 18
-10 24 -11 47 -11 8 0 15 -5 15 -11 0 -6 -7 -9 -15 -5 -22 8 -19 -11 4 -23 10
-6 33 -13 52 -16 18 -3 39 -11 45 -16 19 -15 26 6 13 35 -7 14 -17 26 -22 26
-6 0 -7 3 -4 6 4 4 13 1 21 -5 12 -10 14 -9 10 7 -5 18 -84 48 -84 32 0 -4
-16 -10 -35 -12 -19 -2 -35 -1 -35 2 0 4 -12 12 -26 19 -18 8 -24 17 -20 27 4
9 1 23 -5 30 -9 11 -9 14 0 14 6 0 15 -8 19 -17 4 -11 20 -19 42 -21 19 -1 39
-7 44 -12 15 -15 26 -12 26 5 0 8 9 15 21 15 11 0 17 4 14 10 -4 6 -15 8 -25
5 -13 -4 -22 1 -29 14 -13 24 -14 44 -2 36 5 -3 12 -1 16 5 9 14 -18 13 -33
-2 -9 -9 -9 -4 -2 22 5 18 7 36 5 41 -3 4 8 10 25 14 16 4 30 11 30 17 0 15
-53 0 -63 -18 -11 -20 -24 -17 -30 6 -3 14 0 20 10 20 12 0 13 3 4 13 -6 8
-24 13 -41 12 -16 -1 -30 1 -30 5 0 12 -49 30 -55 20 -3 -5 5 -12 17 -16 25
-7 39 -24 32 -36 -6 -9 -64 28 -77 49 -4 7 -14 13 -21 13 -8 0 -22 12 -31 26
-17 26 -17 27 4 21 11 -3 19 -2 16 3 -3 4 2 11 11 14 9 3 14 15 12 28 -2 17 2
23 15 22 9 -1 17 2 17 8 0 5 4 6 10 3 16 -10 12 -25 -7 -26 -10 0 -4 -6 14
-12 18 -7 38 -20 45 -29 12 -16 15 -15 43 9 17 14 22 23 13 20 -10 -3 -19 1
-22 10 -4 9 -9 13 -13 10 -3 -4 0 -13 7 -22 18 -21 -4 -20 -30 2 -24 21 -26
41 -4 39 31 -2 25 22 -7 33 -39 14 -42 14 -34 1 3 -5 15 -10 26 -10 10 0 19
-4 19 -9 0 -4 -10 -7 -22 -6 -13 1 -40 3 -60 4 -29 1 -38 5 -39 19 0 14 -2 14
-8 -3 -5 -11 -6 -25 -4 -32 3 -7 -3 -10 -17 -6 -13 3 -19 11 -16 19 3 8 -3 16
-17 19 -21 6 -52 53 -42 63 8 8 35 -20 29 -29 -3 -5 2 -9 11 -9 15 0 14 3 -1
29 -20 34 -54 48 -54 23 0 -13 -6 -10 -26 11 -21 23 -24 30 -13 43 9 11 23 14
48 10 20 -3 47 -8 61 -10 47 -7 121 -29 115 -34 -2 -3 0 -11 6 -19 6 -7 8 -13
4 -13 -4 0 -2 -7 5 -15 7 -8 19 -15 28 -15 10 0 7 8 -11 26 -29 29 -28 39 3
47 13 3 20 0 20 -9 0 -8 10 -14 25 -14 26 0 33 -14 14 -26 -6 -3 -16 -1 -22 5
-18 18 -29 13 -17 -9 6 -11 7 -20 3 -20 -4 0 -2 -4 6 -9 19 -12 58 6 64 30 3
11 1 22 -4 25 -14 8 -11 36 4 31 6 -2 11 -11 11 -20 -2 -18 24 -16 37 4 7 12
9 12 9 -1 0 -13 2 -13 9 0 6 8 7 18 4 24 -4 5 -1 6 6 2 7 -5 10 -13 8 -20 -2
-6 0 -20 5 -31 8 -18 8 -18 4 3 -3 13 1 22 9 22 7 0 16 7 19 16 9 22 8 24 -9
24 -8 0 -15 7 -15 15 0 12 10 15 50 11 35 -3 50 -1 50 7 0 14 -35 39 -65 47
-30 9 -32 39 -3 38 13 -1 29 -6 36 -11 9 -7 11 -6 6 7 -3 9 -15 16 -26 16 -10
0 -17 4 -13 9 6 10 -47 53 -77 64 -29 10 -21 24 11 19 16 -2 32 1 35 7 4 6 1
11 -6 11 -7 0 -1 8 13 18 16 10 25 24 23 37 -2 10 1 25 7 31 11 14 -16 28 -34
17 -7 -3 -9 -3 -5 2 5 5 -1 14 -12 22 -11 8 -20 23 -20 35 0 15 -4 18 -17 14
-9 -4 -20 -1 -24 6 -5 8 -8 5 -6 -10 0 -12 8 -22 15 -22 8 0 12 -6 8 -15 -3
-9 0 -15 9 -15 8 0 15 -7 15 -15 0 -17 -16 -20 -25 -4 -4 6 -13 8 -21 5 -8 -3
-14 -1 -14 4 0 10 -57 40 -77 40 -7 0 -13 7 -13 15 0 8 5 15 11 15 5 0 7 5 3
12 -5 7 -3 8 6 3 7 -4 16 -2 20 5 5 9 9 9 14 1 4 -6 2 -11 -5 -11 -8 0 -8 -4
1 -15 15 -18 40 -20 40 -2 0 7 -9 23 -20 35 -11 12 -20 31 -20 43 0 17 4 20
23 15 12 -3 25 -6 30 -6 4 0 7 -8 7 -17 0 -11 3 -14 8 -7 4 6 18 15 32 19 l25
8 -27 9 c-16 5 -28 16 -28 24 0 13 -12 18 -32 15 -5 0 -8 4 -8 10 0 12 39 6
109 -17 61 -21 82 -11 47 21 -15 14 -33 25 -40 25 -9 0 -12 9 -8 25 2 15 0 25
-7 25 -6 0 -11 -7 -11 -15 0 -17 -35 -21 -45 -5 -3 6 3 10 15 10 12 0 18 5 15
10 -3 6 4 10 17 10 13 0 29 5 36 12 9 9 2 17 -31 34 -23 12 -41 26 -40 31 2
12 -28 13 -43 1 -8 -5 -14 -3 -18 7 -7 18 -37 20 -34 3 2 -7 -4 -11 -12 -9 -8
2 -22 4 -31 3 -8 0 -23 15 -31 35 l-16 35 25 -7 c16 -4 22 -2 18 5 -3 5 -1 10
5 10 6 0 13 -7 16 -15 4 -8 13 -15 22 -15 13 0 12 3 -4 14 -23 17 -14 30 16
21 12 -4 19 -12 16 -20 -7 -20 34 -34 119 -38 24 -2 29 2 28 21 -1 35 -3 38
-13 22 -11 -18 -21 -10 -23 19 -1 12 -6 20 -13 17 -6 -2 -17 0 -25 4 -8 5 -20
4 -29 -2 -8 -7 1 4 20 23 19 20 42 34 50 31 8 -2 0 9 -18 25 -18 15 -32 30
-32 33 0 4 16 4 35 2 26 -3 36 0 41 12 8 21 -22 56 -48 56 -11 0 -27 7 -35 16
-10 10 -18 12 -22 5 -5 -7 -11 -7 -21 0 -11 8 -12 12 -2 16 16 6 15 28 -3 43
-11 9 -15 9 -15 1 0 -7 -5 -9 -11 -5 -8 5 -6 10 7 18 28 16 29 45 2 73 -15 17
-29 22 -44 19 -12 -3 -24 -1 -26 5 -2 6 -14 8 -31 4 -15 -4 -24 -11 -21 -16 8
-13 -13 -11 -36 4 -17 10 -22 9 -29 -2 -10 -16 -2 -53 10 -45 5 3 9 -1 9 -9 0
-10 -7 -13 -20 -10 -17 4 -19 2 -13 -13 6 -16 4 -17 -9 -6 -8 7 -41 14 -72 17
-31 2 -61 7 -66 10 -6 3 -10 -3 -10 -14 0 -12 4 -21 10 -21 5 0 7 -6 4 -13 -2
-7 5 -22 16 -32 16 -14 18 -21 8 -28 -10 -6 -9 -7 3 -4 19 6 39 -10 39 -30 0
-10 -5 -11 -19 -3 -25 13 -34 13 -26 0 3 -5 2 -10 -4 -10 -5 0 -13 5 -16 11
-4 6 -12 8 -19 6 -6 -3 -33 -1 -59 3 -37 5 -47 4 -47 -7 0 -25 21 -55 35 -49
7 2 19 -2 27 -11 11 -14 10 -16 -10 -11 -13 4 -28 0 -37 -9 -13 -12 -17 -12
-36 0 -18 13 -24 13 -50 -1 -16 -10 -27 -23 -24 -29 2 -7 -2 -13 -10 -13 -22
0 -18 -19 8 -41 17 -15 19 -20 8 -28 -17 -11 1 -47 29 -56 11 -3 20 -11 20
-16 0 -5 -17 -2 -37 7 -21 8 -49 18 -63 20 -13 3 -26 7 -28 9 -2 2 -17 -1 -33
-5 -21 -6 -33 -5 -43 6 -19 18 -24 18 -22 -3 0 -10 18 -31 39 -48 20 -16 37
-32 37 -35 0 -3 -21 -3 -46 -1 l-47 3 22 -23 c26 -28 27 -39 1 -39 -19 0 -24
-9 -21 -36 1 -6 -18 -10 -50 -8 -39 2 -47 0 -36 -9 24 -20 41 -75 28 -90 -8
-10 -7 -17 1 -25 9 -9 9 -15 1 -23 -12 -12 -45 -9 -43 4 0 4 -9 20 -20 35 -15
19 -32 27 -57 29 -20 1 -40 8 -45 15 -6 10 -10 10 -17 -2 -12 -17 -12 -17 14
-22 11 -1 25 -15 32 -30 6 -15 29 -36 50 -47 l38 -20 -39 -1 c-22 0 -36 -3
-32 -7 4 -5 11 -8 14 -8 12 0 32 -16 32 -25 0 -6 -11 -9 -25 -8 -14 1 -25 5
-25 8 0 9 -56 40 -72 40 -7 0 -3 -8 11 -19 l24 -18 -30 -5 c-17 -2 -35 2 -42
9 -10 11 -16 11 -26 3 -10 -8 -19 -8 -34 -1 -11 6 -27 11 -37 11 -14 0 -14 -3
-4 -15 17 -20 4 -32 -18 -19 -10 6 -26 8 -37 3 -20 -8 -20 -8 2 -14 18 -6 21
-13 18 -51 -2 -24 0 -44 4 -44 5 0 11 -9 14 -21 3 -12 10 -18 16 -14 6 3 11 1
11 -4 0 -6 7 -11 16 -11 13 0 14 3 5 14 -9 11 -7 15 11 20 15 3 27 0 34 -9 6
-8 21 -15 32 -15 23 0 38 -16 21 -22 -8 -3 -8 -8 2 -18 12 -13 15 -38 10 -74
0 -5 -8 -3 -16 4 -8 7 -13 16 -10 20 2 4 -17 7 -43 7 -87 0 -171 7 -167 14 3
4 -8 9 -23 11 -15 3 -35 9 -44 13 -14 6 -18 2 -17 -16 0 -13 3 -18 6 -11 2 6
9 10 13 7 5 -3 7 -12 4 -19 -3 -8 -1 -17 5 -21 24 -14 4 -59 -22 -49 -9 3 -14
10 -11 15 3 5 -2 6 -10 3 -23 -9 -19 -23 8 -30 21 -5 56 -42 56 -59 0 -15 -33
-2 -37 16 -5 17 -11 20 -34 15 -25 -5 -29 -2 -29 15 0 16 -4 19 -17 14 -10 -4
-24 -8 -30 -8 -28 -1 -3 -26 50 -50 20 -10 37 -21 37 -24 0 -3 -20 -3 -45 -1
-45 6 -45 5 -24 -13 12 -10 27 -15 33 -11 6 3 38 7 71 8 90 2 136 -43 62 -61
-21 -6 -25 -10 -17 -20 9 -11 7 -12 -9 -8 -12 3 -21 1 -21 -6 0 -6 7 -11 15
-11 8 0 15 -4 15 -10 0 -5 7 -10 15 -10 8 0 15 -5 15 -11 0 -5 5 -7 11 -3 8 4
5 11 -9 18 -17 9 -19 14 -8 29 7 9 19 17 27 17 10 -1 8 -5 -5 -15 -18 -14 -18
-15 9 -25 37 -14 84 -19 90 -10 11 17 91 21 121 5 l29 -15 -28 0 c-23 0 -27
-3 -22 -19 6 -21 -19 -49 -30 -31 -3 5 -12 10 -18 10 -7 0 -6 -4 3 -10 12 -7
11 -12 -7 -27 -15 -14 -19 -23 -12 -35 12 -22 -20 -19 -45 5 -11 9 -24 17 -29
17 -5 0 -7 11 -5 24 3 14 1 31 -3 38 -6 8 -9 0 -9 -24 0 -20 -6 -38 -12 -40
-22 -8 7 -57 30 -52 10 3 24 -2 31 -10 12 -14 10 -16 -10 -15 -13 1 -31 0 -39
-3 -8 -3 -11 -3 -7 0 5 2 -8 22 -29 43 -30 31 -35 41 -25 53 7 8 8 16 4 19
-13 7 -73 -4 -73 -14 0 -18 -32 -8 -37 11 -6 21 -28 27 -38 10 -3 -6 0 -10 8
-10 8 0 18 -7 21 -15 8 -23 -35 -41 -62 -26 -27 14 -39 14 -24 -1 7 -7 12 -16
12 -20 0 -14 -23 -8 -36 10 -11 14 -15 15 -26 3 -9 -10 -9 -12 -1 -7 7 4 13 2
13 -3 0 -15 -11 -14 -54 4 -20 8 -36 20 -36 25 0 6 -8 10 -17 10 -16 0 -16 -2
-3 -11 12 -8 8 -10 -15 -6 -17 3 -38 0 -48 -8 -16 -12 -14 -15 27 -35 25 -12
50 -19 55 -16 5 4 12 2 16 -4 3 -5 -3 -10 -14 -10 -13 0 -21 -6 -21 -17 0 -14
2 -15 9 -4 6 9 18 11 41 6 30 -7 31 -6 21 14 -10 17 -9 21 3 21 8 0 18 -4 21
-10 3 -5 17 -10 31 -10 15 0 24 -6 24 -16 0 -12 -7 -15 -25 -12 -14 3 -25 1
-25 -3 0 -5 -10 -9 -23 -9 -36 0 -29 -27 10 -35 31 -6 39 -22 18 -37 -5 -5 4
-5 21 -2 25 5 32 2 36 -13 3 -10 3 -24 1 -30 -6 -18 -23 -16 -23 2 0 8 -5 15
-11 15 -5 0 -7 -4 -4 -10 3 -5 1 -10 -4 -10 -6 0 -11 5 -11 11 0 5 -4 8 -10 4
-5 -3 -19 0 -31 7 -17 10 -23 10 -26 1 -6 -18 -43 -16 -43 1 0 7 -11 21 -25
30 -30 20 -47 21 -21 1 11 -8 17 -18 13 -21 -4 -4 -2 -13 3 -19 7 -9 6 -14 -4
-18 -10 -4 -13 1 -11 19 2 19 -1 24 -12 20 -8 -3 -19 -6 -24 -6 -4 0 -6 -7 -3
-15 8 -20 -56 -16 -73 5 -11 13 -12 13 -14 0 0 -8 -3 -26 -5 -40 -4 -23 -1
-25 30 -25 19 0 32 4 29 9 -3 4 3 6 13 3 50 -14 106 -19 100 -8 -4 6 -11 9
-15 7 -4 -3 -13 -1 -21 5 -11 6 -6 9 18 9 25 0 32 -4 32 -20 0 -22 51 -42 58
-22 5 15 33 16 30 1 -2 -6 14 -12 34 -14 32 -3 37 -1 40 18 2 14 11 23 24 25
22 3 22 3 -2 27 -26 26 -31 45 -13 45 8 0 8 5 -1 15 -9 10 -9 15 -1 15 6 0 11
-4 11 -10 0 -5 9 -10 20 -10 11 0 20 -4 20 -9 0 -5 11 -8 25 -6 14 1 32 -3 42
-10 9 -7 34 -10 58 -7 61 6 68 -15 8 -23 -66 -9 -75 -13 -30 -14 50 -1 47 -18
-5 -26 -80 -12 -98 -17 -98 -26 0 -6 4 -8 9 -5 5 3 55 15 111 26 103 20 115
20 205 -5 28 -8 83 -19 123 -25 62 -10 71 -14 61 -26 -7 -8 -18 -13 -26 -10
-8 3 -11 1 -8 -4 3 -6 -3 -10 -14 -10 -10 0 -21 3 -24 8 -2 4 -2 1 -1 -5 3
-13 -13 -17 -50 -13 -10 1 -15 -3 -12 -8 4 -7 -17 -13 -51 -18 -32 -3 -79 -17
-104 -30 -25 -12 -58 -21 -73 -20 -14 2 -29 0 -32 -5 -5 -9 -62 -1 -79 11 -39
28 -197 51 -210 30 -3 -5 -1 -10 4 -10 6 0 20 -9 31 -20 l20 -20 -21 0 c-11 0
-17 -4 -14 -10 3 -6 -1 -7 -9 -4 -9 3 -14 11 -13 17 1 6 -2 11 -8 12 -5 0 -15
4 -22 8 -14 9 -103 19 -103 11 0 -3 17 -12 37 -21 32 -13 36 -17 22 -26 -15
-10 -15 -12 5 -29 14 -12 16 -16 5 -12 -10 3 -20 1 -24 -5 -3 -6 -12 -11 -18
-11 -7 0 -6 4 3 10 11 8 9 9 -12 8 -16 -1 -28 -8 -28 -15 0 -7 -4 -13 -10 -13
-5 0 -10 5 -10 10 0 6 -6 10 -14 10 -8 0 -16 4 -18 9 -2 5 -14 5 -28 -1 -18
-7 -21 -11 -11 -17 7 -5 10 -14 7 -20 -4 -6 0 -11 8 -11 9 0 16 -4 16 -8 0 -5
14 -9 31 -10 36 -1 66 -21 48 -33 -11 -6 30 -17 134 -34 23 -4 37 -11 37 -20
0 -8 7 -15 15 -15 8 0 15 -4 15 -10 0 -5 -4 -10 -9 -10 -5 0 -12 -8 -15 -18
-5 -14 -15 -17 -53 -15 -27 2 -42 0 -35 -3 6 -3 9 -10 6 -16 -4 -6 2 -8 16 -3
14 4 20 3 16 -3 -3 -5 1 -13 10 -16 8 -3 12 -10 9 -16 -3 -5 0 -10 7 -11 69
-5 92 -9 101 -18 6 -6 2 -9 -9 -8 -12 1 -19 -4 -18 -15 1 -10 -2 -15 -7 -12
-5 3 -16 1 -25 -4 -15 -8 -15 -10 0 -15 9 -4 28 -2 43 4 22 8 24 7 14 -5 -9
-11 -8 -15 4 -20 8 -3 15 -1 15 4 0 6 8 10 18 10 14 0 15 2 2 10 -20 13 -15
16 70 38 41 11 84 24 95 28 15 5 12 -1 -10 -21 l-30 -28 29 18 c16 9 40 21 55
25 14 4 35 11 45 16 13 5 17 4 13 -3 -4 -6 2 -13 13 -16 11 -3 20 -1 20 4 0 5
16 9 35 9 19 0 35 -4 35 -9 0 -4 -12 -7 -27 -5 -23 3 -22 2 5 -7 24 -7 32 -14
28 -25 -3 -9 -6 -18 -6 -20 0 -2 -8 -4 -17 -5 -12 0 -8 -4 10 -11 39 -14 33
-24 -15 -24 -24 -1 -58 -3 -75 -6 -18 -4 -33 -3 -33 0 0 4 -14 7 -31 8 -17 1
-25 -2 -19 -6 7 -5 3 -9 -12 -13 -42 -12 -61 -8 -54 9 4 12 2 15 -9 10 -17 -6
-21 9 -5 19 6 3 10 12 10 18 -1 7 -10 1 -20 -12 -14 -15 -27 -22 -40 -18 -14
3 -30 -3 -47 -19 -14 -13 -36 -24 -48 -24 -13 0 -26 -7 -29 -15 -4 -12 -15
-15 -43 -10 -21 3 -32 2 -25 -1 19 -9 14 -24 -9 -24 -16 0 -19 4 -14 20 9 29
-28 26 -101 -6 -54 -24 -59 -24 -71 -8 -11 14 -18 15 -55 6 -24 -6 -52 -13
-63 -14 -15 -3 -20 -11 -21 -38 0 -20 -5 -35 -12 -35 -7 0 -12 4 -11 9 1 10
-21 26 -35 26 -6 0 -5 -5 2 -12 21 -21 13 -25 -23 -14 -19 6 -35 14 -35 18 0
5 -7 8 -15 8 -8 0 -15 -4 -15 -10 0 -5 0 -13 0 -17 0 -5 8 -8 18 -9 10 -1 29
-7 42 -14 27 -14 112 -17 150 -5 22 7 23 6 11 -8 -7 -9 -18 -14 -24 -10 -6 3
-7 1 -3 -6 6 -9 11 -9 22 0 11 9 18 8 30 -2 18 -15 45 -20 97 -19 21 0 36 -4
33 -9 -8 -13 -58 -24 -65 -14 -3 5 -22 6 -41 2 -32 -6 -32 -6 -7 -8 16 0 25
-5 22 -11 -7 -11 37 -5 93 12 23 7 37 6 46 -1 7 -6 17 -7 21 -3 5 4 6 0 3 -8
-4 -11 3 -16 28 -17 41 -4 43 2 6 21 -22 12 -23 15 -8 16 20 0 20 0 0 15 -21
16 -4 21 24 6 9 -5 24 -12 33 -14 10 -3 15 -15 13 -34 -1 -19 3 -30 11 -30 7
0 12 7 10 16 -1 9 2 24 7 34 5 11 5 17 -1 17 -6 0 -7 7 -4 17 4 11 3 14 -5 9
-7 -4 -12 -2 -12 3 0 6 5 11 10 11 18 0 25 2 43 11 11 7 17 6 17 -1 0 -6 -7
-13 -15 -16 -22 -9 -18 -20 8 -19 12 0 23 -4 24 -10 1 -5 -5 -9 -12 -9 -8 1
-12 -2 -9 -7 3 -5 -5 -13 -18 -18 l-23 -10 23 0 c12 -1 22 3 22 7 0 4 9 8 20
9 11 1 18 -2 15 -7 -4 -6 2 -7 11 -3 10 3 15 2 12 -3 -4 -5 11 -9 33 -9 21 0
39 3 39 6 0 4 18 14 40 23 95 38 209 4 202 -59 -2 -17 -12 -38 -21 -48 -15
-16 -24 -17 -57 -8 -37 10 -59 7 -134 -15 -22 -7 -24 -6 -11 9 7 9 9 17 3 17
-5 0 -15 -6 -21 -14 -9 -11 -9 -15 1 -19 23 -8 -22 -48 -46 -41 -16 4 -17 3
-7 -4 11 -8 7 -15 -20 -32 -33 -21 -34 -21 -5 -14 22 5 28 4 24 -7 -3 -8 -11
-15 -19 -15 -8 -1 -20 -2 -28 -3 -7 -1 -11 -7 -7 -16 4 -10 -3 -19 -18 -25
-13 -5 -27 -14 -31 -20 -4 -7 -18 -9 -31 -6 -18 5 -22 3 -18 -9 4 -9 0 -15 -9
-15 -8 0 -20 -7 -27 -15 -16 -19 -34 -20 -27 -1 5 12 -2 11 -37 -3 -23 -10
-61 -19 -83 -19 -23 0 -55 -8 -72 -17 -29 -14 -32 -14 -51 5 -11 11 -20 15
-20 9 0 -7 8 -18 18 -26 13 -11 14 -13 2 -12 -36 3 -41 0 -30 -21 10 -19 8
-20 -37 -20 -56 0 -113 -15 -124 -32 -6 -9 -11 -9 -21 0 -8 6 -24 9 -36 5 -16
-4 -27 0 -36 13 -11 15 -18 16 -47 7 -32 -10 -32 -12 -12 -18 13 -4 23 -15 23
-25 0 -25 34 -52 55 -44 13 5 16 4 11 -4 -4 -7 -1 -12 8 -12 9 0 16 -5 16 -11
0 -10 16 -7 59 9 9 3 12 1 7 -6 -4 -7 -2 -12 4 -12 6 0 8 -5 5 -11 -4 -6 1 -5
12 2 16 10 26 9 52 -2 17 -8 31 -16 31 -19 0 -7 -65 -50 -76 -50 -5 0 -35 -14
-67 -31 -32 -17 -65 -28 -73 -25 -8 3 -17 0 -20 -8 -4 -10 -14 -12 -42 -5 -20
4 -38 13 -40 18 -2 6 -8 11 -13 11 -6 0 -8 -4 -5 -9 3 -5 -1 -12 -10 -15 -9
-3 -12 -11 -8 -18 4 -7 4 -10 -1 -6 -4 4 -20 1 -35 -7 -18 -9 -30 -11 -32 -4
-2 6 -17 4 -41 -6 -43 -18 -49 -28 -9 -19 21 5 25 4 15 -6 -16 -17 -5 -40 15
-33 15 4 15 3 2 -6 -8 -6 -23 -11 -32 -11 -20 0 -24 -16 -6 -22 8 -3 6 -7 -5
-11 -10 -4 -16 -2 -14 5 1 7 -6 13 -15 15 -11 3 -15 -1 -13 -14 2 -10 4 -26 4
-37 1 -13 6 -17 21 -13 32 8 23 -13 -11 -25 -23 -8 -28 -13 -17 -20 10 -8 10
-11 0 -15 -7 -2 -18 -11 -25 -18 -7 -7 -24 -16 -37 -20 -14 -4 -43 -18 -66
-31 -24 -14 -57 -24 -80 -24 -22 0 -46 -6 -52 -12 -10 -10 -17 -10 -31 -1 -14
9 -21 9 -30 0 -8 -8 -11 -357 -11 -1304 l0 -1293 3385 0 c3002 0 3385 2 3385
15 0 8 7 15 15 15 8 0 15 -7 15 -15 0 -27 58 -18 86 13 l24 27 -6 -27 -6 -28
2176 0 2176 0 -2 687 -3 687 -25 7 -25 7 28 1 27 1 0 3055 0 3055 -5625 0
-5625 0 0 -899z m7740 -286 c-11 -28 -10 -28 8 -12 27 24 29 22 27 -25 -4 -55
11 -148 25 -162 8 -8 9 2 5 34 -5 40 -4 42 6 20 55 -117 54 -115 25 -104 -9 3
-16 10 -16 15 0 4 -7 6 -15 3 -9 -4 -15 0 -15 7 0 12 -2 12 -9 0 -11 -17 -17
-6 -35 64 -11 38 -26 68 -50 92 -28 29 -33 40 -25 55 5 10 15 19 22 19 7 1 19
2 27 3 8 0 14 9 13 20 -1 11 2 15 8 9 6 -6 6 -20 -1 -38z m441 -735 c20 -70
33 -139 33 -177 1 -33 4 -56 8 -50 11 18 16 4 11 -30 -3 -19 -11 -33 -19 -33
-8 0 -14 -9 -14 -19 0 -11 -4 -22 -9 -25 -13 -8 -24 48 -16 83 3 15 1 49 -6
75 -9 37 -9 52 1 71 13 25 13 29 -19 145 -23 85 -25 98 -12 85 5 -6 24 -62 42
-125z m-6373 -278 c5 -15 -13 -16 -39 -2 -12 7 -19 7 -19 1 0 -13 18 -24 41
-25 11 -1 18 -5 17 -11 -2 -5 -12 -9 -23 -7 -20 3 -20 3 0 -12 18 -14 19 -15
2 -16 -14 0 -16 -4 -9 -17 10 -16 41 -27 43 -15 3 29 9 46 20 56 9 8 10 7 6
-6 -4 -10 -2 -18 3 -18 6 0 10 5 10 10 0 6 19 1 42 -11 l42 -21 -25 -15 c-13
-8 -17 -12 -8 -10 14 5 15 2 6 -17 -6 -12 -21 -30 -34 -40 -28 -20 -65 -13
-56 11 5 13 3 13 -14 5 -25 -14 -66 -4 -59 14 3 8 -1 14 -9 14 -8 0 -15 8 -15
18 0 13 -2 14 -9 3 -6 -9 -11 -10 -15 -2 -4 6 -12 8 -18 5 -6 -4 -1 -12 13
-20 23 -13 23 -14 -14 -12 -21 1 -41 6 -43 10 -3 4 0 8 6 8 6 0 9 4 6 9 -11
17 22 32 58 26 26 -5 33 -11 28 -23 -5 -14 -4 -15 10 -2 17 16 6 42 -15 35
-15 -5 -50 23 -66 53 -10 18 -9 22 4 22 8 0 15 -4 15 -9 0 -12 37 -2 50 14 14
17 62 14 68 -3z m-387 -116 c17 -9 32 -10 43 -4 11 6 16 6 14 -2 -2 -6 7 -19
20 -27 13 -9 22 -12 21 -7 -4 22 3 23 23 4 12 -11 18 -23 15 -27 -4 -3 -7 -1
-7 5 0 7 -4 12 -8 12 -4 0 -8 -9 -8 -20 0 -13 7 -20 18 -20 10 0 18 5 18 10 0
6 9 10 20 10 11 0 20 -4 20 -8 0 -4 14 -13 31 -19 28 -11 32 -10 36 7 6 24 42
27 39 4 -1 -9 -13 -22 -26 -29 l-23 -12 21 -12 c28 -15 32 -14 32 9 0 14 7 20
21 20 16 0 19 -4 14 -20 -4 -12 -1 -27 5 -35 17 -20 1 -20 -67 2 -38 12 -52
21 -48 31 3 10 0 12 -10 9 -8 -4 -18 0 -22 7 -11 20 -33 21 -72 4 -29 -13 -39
-14 -65 -3 -17 7 -32 20 -34 29 -2 9 -10 16 -18 16 -22 0 -48 29 -52 56 -3 27
11 30 49 10z m263 -291 c3 -9 11 -15 18 -14 7 1 24 1 38 0 20 -1 22 -3 10 -11
-12 -8 -10 -10 10 -10 14 0 32 5 40 11 13 8 12 9 -4 7 -10 -2 -21 3 -23 10 -6
15 1 15 52 -1 41 -12 50 -31 28 -54 -6 -7 -16 -13 -22 -13 -17 0 -13 17 6 24
14 6 15 9 4 15 -16 10 -51 3 -51 -10 0 -5 -11 -14 -24 -20 -13 -6 -27 -20 -29
-30 -5 -18 -24 -22 -114 -23 -13 0 -23 -4 -23 -9 0 -4 28 -5 61 -1 52 6 61 5
54 -7 -7 -11 -6 -12 6 -3 20 15 76 17 85 3 5 -8 1 -10 -14 -7 -12 3 -23 1 -24
-4 -4 -12 -68 -21 -68 -10 0 4 -36 6 -81 4 -55 -1 -78 1 -74 8 4 6 15 8 26 5
10 -4 19 -2 19 3 0 5 -9 12 -20 15 -11 3 -20 10 -20 16 0 6 6 8 14 5 8 -3 17
-1 21 5 4 8 12 8 25 1 16 -8 18 -8 14 5 -4 8 -11 15 -18 15 -6 0 -4 5 4 10 13
9 13 11 0 20 -11 7 -6 8 18 5 17 -2 32 1 32 6 0 5 -9 9 -20 9 -25 0 -25 9 -2
26 23 18 39 17 46 -1z m479 -299 c9 -7 17 -22 18 -32 0 -11 3 -13 6 -6 7 18
28 15 60 -12 15 -12 42 -28 58 -33 23 -8 29 -15 28 -34 -2 -18 6 -30 32 -46
23 -15 32 -28 29 -38 -4 -10 0 -15 10 -15 9 0 16 -4 16 -9 0 -5 -9 -7 -20 -4
-18 5 -25 -5 -21 -29 1 -11 -17 -10 -23 1 -4 5 -1 11 6 13 6 2 8 10 4 17 -6 9
-11 9 -24 -1 -13 -11 -15 -10 -9 5 4 11 2 17 -8 17 -8 0 -15 5 -15 10 0 6 5
10 12 10 6 0 8 3 5 7 -4 3 -16 -3 -28 -15 -19 -22 -39 -22 -39 -1 0 6 5 7 12
3 8 -5 9 -2 5 9 -4 12 2 21 20 30 l26 14 -24 17 c-22 15 -24 15 -31 -4 -4 -11
-15 -20 -23 -20 -9 0 -13 5 -10 10 3 6 -1 10 -10 10 -8 0 -18 6 -21 13 -3 8
-12 14 -21 14 -14 0 -14 -2 1 -12 9 -7 16 -15 16 -19 0 -8 -70 0 -114 12 -32
9 -46 29 -21 29 8 0 15 -4 15 -9 0 -5 10 -6 23 -3 17 5 19 4 7 -4 -12 -9 -11
-11 8 -11 12 0 22 5 22 10 0 10 -5 12 -32 14 -24 2 -51 37 -39 49 6 6 11 19
11 28 0 29 52 38 83 15z m-459 -228 c-6 -10 -5 -10 7 -1 19 15 69 -4 69 -26 0
-11 -3 -11 -15 -1 -13 11 -19 10 -35 -7 -18 -20 -18 -21 42 -27 69 -8 100 -30
91 -64 -3 -12 -9 -22 -14 -22 -5 0 -9 -16 -9 -36 0 -19 -5 -44 -11 -55 -10
-20 -11 -20 -30 -3 -12 11 -19 13 -19 5 0 -19 -116 -8 -140 14 -12 11 -20 14
-20 6 0 -7 -5 -9 -11 -5 -6 3 -9 15 -6 25 3 11 1 19 -4 19 -5 0 -9 -4 -9 -10
0 -5 -19 -8 -42 -6 -24 2 -52 5 -63 5 -34 2 5 21 44 21 29 0 32 2 21 15 -9 11
-9 15 -1 15 8 0 11 12 9 33 l-3 32 62 0 c35 1 68 6 75 13 9 9 5 12 -20 12 -38
0 -43 21 -10 44 27 19 52 21 42 4z m443 -28 c3 -11 9 -17 14 -14 15 9 22 -25
10 -40 -8 -10 -9 -16 -1 -21 5 -3 10 0 10 8 0 32 30 23 86 -24 33 -26 66 -49
75 -49 24 0 49 -33 43 -56 -4 -15 -1 -21 11 -21 9 0 12 4 6 10 -5 5 -6 17 -4
28 5 20 6 20 20 0 8 -13 20 -18 30 -14 11 4 14 3 9 -5 -4 -7 -15 -12 -24 -12
-13 0 -12 -5 8 -20 20 -16 22 -20 8 -20 -10 0 -18 -6 -18 -14 0 -8 -7 -17 -16
-20 -19 -7 -44 21 -37 41 3 8 2 13 -3 12 -23 -4 -34 3 -34 22 0 13 -4 18 -12
13 -8 -5 -7 0 2 11 14 16 13 17 -7 11 -12 -4 -24 -2 -28 4 -3 5 -17 7 -31 4
-14 -4 -24 -2 -24 5 0 6 -6 11 -12 11 -7 -1 3 -14 22 -30 31 -27 32 -30 12
-30 -12 0 -22 5 -22 10 0 6 -6 10 -14 10 -9 0 -12 -7 -9 -20 6 -23 0 -25 -19
-7 -7 7 -39 26 -70 41 -32 16 -58 33 -58 37 0 5 23 7 50 5 28 -1 45 1 39 5
-10 6 -10 11 0 22 16 20 4 26 -37 20 -28 -5 -31 -8 -20 -21 11 -13 10 -14 -10
-8 -13 5 -22 3 -22 -3 0 -6 -4 -11 -10 -11 -5 0 -10 9 -10 21 0 15 5 19 15 15
9 -3 15 0 15 8 0 8 6 17 13 19 13 6 -23 10 -64 7 -22 -1 -26 3 -26 25 0 18 4
25 13 21 7 -3 16 -1 19 4 7 11 59 28 88 29 11 1 21 -8 24 -19z m-122 -119 c-4
-8 54 -46 132 -85 26 -13 31 -29 7 -19 -14 5 -14 3 -3 -16 8 -11 24 -21 36
-21 26 0 123 -75 123 -95 0 -8 -5 -15 -11 -15 -5 0 -8 4 -4 9 14 23 -50 33
-65 10 -3 -4 -12 -4 -20 1 -10 7 -11 10 -2 10 6 0 12 4 12 9 0 6 -12 6 -29 1
-25 -7 -28 -6 -24 11 5 20 4 20 -54 23 -26 2 -30 0 -21 -11 8 -10 7 -13 -2
-13 -8 0 -10 -8 -7 -21 3 -13 1 -19 -6 -16 -7 3 -11 10 -9 16 1 6 -7 11 -18
11 -11 0 -20 3 -20 8 0 4 -3 18 -7 31 -5 21 -3 23 18 16 23 -7 24 -7 4 9 -25
20 -35 20 -35 1 0 -8 -4 -15 -10 -15 -6 0 -6 -9 0 -26 13 -34 13 -39 -5 -24
-8 7 -15 9 -15 4 0 -4 -11 3 -24 15 -18 17 -25 19 -30 9 -3 -7 -3 -2 0 12 3
14 15 33 26 43 17 14 17 17 4 17 -20 0 -21 20 -2 46 8 10 12 29 10 41 -5 18
-1 22 23 26 15 2 29 5 31 6 2 0 1 -3 -3 -8z m-280 -311 c8 -26 -11 -51 -33
-43 -14 4 -15 3 -2 -5 8 -6 17 -9 20 -7 12 8 -2 -55 -15 -65 -8 -6 -12 -17 -9
-25 3 -7 1 -16 -5 -20 -6 -3 -11 -15 -11 -26 0 -10 -2 -19 -4 -19 -14 0 -36
14 -36 22 0 6 7 8 15 4 8 -3 15 -1 15 5 0 6 -11 8 -28 4 -22 -4 -33 -1 -48 16
-17 20 -17 22 -1 16 9 -4 17 -2 17 2 0 5 9 7 20 4 16 -4 19 -2 14 11 -4 9 -3
16 2 15 23 -4 33 3 31 20 0 11 -4 19 -7 19 -20 -2 -21 4 -4 17 16 13 16 14 2
9 -11 -4 -18 -1 -18 6 0 6 -5 8 -11 5 -6 -4 -8 -13 -5 -21 3 -8 -1 -14 -9 -14
-8 0 -15 -5 -15 -11 0 -6 9 -8 20 -4 11 3 20 3 20 -2 0 -11 -40 -36 -47 -29
-3 3 -13 1 -23 -4 -13 -7 -23 -4 -38 8 -11 9 -30 24 -41 32 -12 8 -21 17 -21
21 0 10 51 30 61 24 5 -4 6 2 2 12 -6 16 -5 16 10 4 14 -11 23 -12 43 -2 14 6
29 9 34 6 5 -3 13 2 18 11 5 10 16 15 24 11 8 -3 21 -1 29 4 21 13 27 11 34
-11z m285 -100 c13 -9 13 -11 1 -19 -8 -5 -16 -17 -17 -27 -2 -9 -9 -21 -16
-26 -10 -7 -10 -8 2 -4 8 3 23 9 33 12 9 4 17 10 17 15 0 16 30 9 51 -12 16
-16 18 -23 9 -34 -18 -21 -3 -37 22 -24 11 6 19 7 16 2 -2 -4 -10 -20 -17 -36
-17 -32 -16 -32 26 -40 26 -5 33 -3 38 14 5 14 14 19 28 17 24 -3 25 -20 6
-90 -8 -30 -15 -38 -34 -38 -13 0 -25 4 -27 10 -1 5 -34 41 -73 81 -66 67
-179 139 -219 139 -7 0 -17 8 -20 17 -11 27 22 45 64 37 19 -3 40 -7 45 -8 6
-1 15 -5 21 -9 15 -9 24 1 17 19 -6 16 6 18 27 4z m-70 -200 c22 -12 28 -19
18 -20 -10 0 -18 -6 -18 -13 0 -21 12 -28 27 -16 10 9 13 8 13 -5 0 -10 4 -15
9 -12 5 3 11 -4 14 -16 4 -15 3 -18 -5 -10 -9 9 -18 2 -37 -26 -21 -30 -26
-34 -29 -18 -3 13 -6 15 -12 7 -5 -10 -16 -8 -46 5 -21 9 -51 16 -66 15 -26
-2 -28 0 -28 33 0 19 7 42 16 50 8 9 12 16 8 16 -3 0 -1 7 6 15 17 21 87 18
130 -5z m7905 -2210 c20 -9 20 -9 -2 -15 -22 -7 -39 -33 -27 -44 4 -3 9 0 11
7 5 13 24 17 22 5 -3 -20 2 -27 10 -14 13 20 42 6 35 -16 -5 -14 -3 -14 9 3
14 18 24 20 97 17 44 -1 89 -7 98 -11 9 -5 44 -9 77 -9 55 0 60 -2 63 -24 3
-18 1 -21 -10 -12 -19 15 -192 14 -214 -1 -9 -7 -14 -18 -10 -24 10 -16 27
-15 24 1 -5 21 71 18 85 -4 14 -22 27 -25 27 -5 0 7 9 16 20 19 14 4 20 0 20
-12 0 -27 51 -26 72 1 10 13 18 17 18 11 0 -7 5 -13 11 -13 5 0 7 5 4 10 -3 6
-1 10 4 10 6 0 11 -6 11 -12 0 -10 2 -10 9 0 6 11 10 10 15 -3 4 -11 13 -15
26 -12 11 3 18 1 14 -4 -7 -12 1 -11 39 4 18 8 41 11 52 7 11 -4 26 -5 33 -3
6 3 12 -1 12 -8 0 -12 2 -12 9 0 5 8 15 11 23 8 22 -8 40 8 41 34 0 18 5 24
22 25 18 1 24 -5 29 -27 4 -20 12 -29 24 -29 26 0 34 11 21 27 -9 9 -8 13 0
13 6 0 19 -13 29 -30 17 -28 19 -28 32 -10 7 10 19 16 26 13 6 -2 15 0 18 5 3
6 33 9 68 6 68 -4 92 -14 35 -14 -21 0 -37 -5 -37 -11 0 -6 -9 -8 -22 -4 -16
4 -19 4 -9 -3 7 -5 11 -14 8 -19 -3 -5 3 -9 14 -8 11 1 25 8 30 16 5 8 9 11 9
7 0 -3 3 -13 6 -22 4 -11 1 -16 -11 -16 -11 0 -15 -5 -12 -14 3 -8 -1 -17 -9
-20 -12 -4 -14 -1 -9 14 8 26 -6 26 -25 0 -26 -36 -45 -24 -43 28 1 6 -4 12
-9 12 -6 0 -8 -18 -6 -40 2 -27 0 -40 -9 -40 -16 0 -26 17 -12 22 5 2 7 11 3
21 -3 10 -12 16 -20 13 -7 -3 -24 4 -38 15 -22 18 -25 18 -19 3 4 -12 3 -15
-5 -10 -7 4 -12 1 -12 -8 0 -8 5 -18 10 -21 6 -3 10 -13 10 -21 0 -8 -4 -14
-10 -14 -5 0 -10 7 -10 15 0 8 -6 15 -14 15 -9 0 -12 -8 -8 -25 2 -15 0 -25
-7 -25 -6 0 -11 9 -11 19 0 10 -7 21 -15 25 -9 3 -15 0 -15 -9 0 -8 -7 -15
-15 -15 -10 0 -14 7 -12 23 2 12 2 18 0 12 -5 -15 -65 -47 -72 -39 -3 4 0 9 7
11 6 3 12 10 12 16 0 8 -4 7 -12 -1 -17 -17 -58 -15 -58 3 0 8 -5 15 -11 15
-5 0 -7 -4 -4 -10 8 -12 -45 -13 -64 -1 -11 7 -10 10 4 18 22 13 12 19 -42 28
-29 4 -43 3 -43 -4 0 -12 11 -14 48 -11 20 1 21 -1 11 -24 -13 -28 -34 -34
-42 -13 -3 6 -6 1 -7 -13 -1 -14 -4 -19 -7 -12 -7 17 -32 15 -40 -3 -5 -14 -8
-14 -24 1 -11 9 -19 23 -19 31 0 15 -9 16 -30 3 -12 -8 -13 -13 -2 -30 10 -17
10 -20 -4 -20 -8 0 -13 4 -10 9 6 9 -26 51 -39 51 -4 0 -4 -7 -1 -16 3 -8 2
-12 -4 -9 -6 3 -10 -3 -10 -14 0 -15 -6 -19 -25 -17 -29 3 -52 22 -41 33 4 4
11 2 15 -6 6 -10 10 -9 14 4 4 9 3 14 -2 10 -5 -3 -11 0 -13 6 -4 11 -58 23
-58 13 0 -3 9 -14 20 -26 18 -19 27 -48 16 -48 -2 0 -15 17 -27 38 -12 20 -24
39 -26 41 -2 3 -10 -4 -18 -15 -13 -17 -14 -17 -15 -2 0 24 -16 31 -33 14 -8
-8 -17 -12 -21 -9 -3 4 -6 -1 -6 -10 0 -9 -5 -17 -11 -17 -5 0 -7 5 -4 10 3 6
-3 10 -14 10 -11 0 -22 -4 -25 -9 -7 -11 -46 -2 -46 11 0 5 -7 2 -16 -6 -8 -9
-13 -24 -10 -33 3 -10 1 -25 -5 -33 -8 -12 -9 -10 -4 7 4 15 0 26 -15 36 -11
7 -18 16 -15 19 3 2 -2 5 -10 5 -8 0 -15 -4 -15 -9 0 -5 -4 -7 -9 -4 -11 7
-23 -22 -15 -35 3 -5 13 -5 25 1 14 8 19 7 19 -3 0 -8 -10 -12 -27 -11 -44 2
-45 3 -39 19 3 9 0 15 -9 15 -8 0 -15 6 -15 14 0 8 -5 18 -12 22 -6 4 -8 3 -5
-4 4 -5 3 -21 -2 -34 -8 -19 -10 -19 -10 -4 -1 12 -6 16 -16 12 -8 -3 -15 -1
-15 4 0 6 -5 10 -11 10 -6 0 -9 -7 -5 -15 7 -19 -1 -19 -21 0 -17 17 -33 11
-33 -12 0 -13 -2 -14 -17 -2 -9 8 -14 9 -10 3 9 -15 -28 -25 -41 -12 -13 13
-4 40 11 31 6 -3 7 -1 3 5 -8 13 -36 5 -36 -10 0 -5 -7 -16 -15 -24 -13 -14
-15 -13 -16 3 -1 10 -1 21 0 26 0 4 -3 7 -9 7 -5 0 -10 -7 -10 -15 0 -8 -4
-15 -10 -15 -5 0 -10 -8 -11 -17 0 -11 -3 -13 -6 -5 -7 18 -23 15 -24 -5 -1
-16 -2 -16 -6 -2 -4 18 -53 21 -53 4 0 -5 -8 2 -18 18 l-19 27 -11 -22 c-8
-18 -11 -19 -11 -5 -1 9 -8 17 -16 17 -8 0 -15 4 -15 9 0 16 -36 19 -55 5 -17
-13 -16 -14 15 -14 32 0 32 -1 16 -19 -21 -23 -56 -34 -56 -18 0 8 -3 7 -9 -1
-6 -11 -11 -10 -25 3 -9 9 -16 12 -16 6 0 -6 -7 -8 -16 -4 -14 5 -16 2 -10
-23 4 -16 12 -31 17 -32 5 -2 7 -8 3 -13 -3 -5 2 -9 11 -9 9 0 15 -6 12 -12
-2 -7 -9 -12 -15 -11 -6 2 -23 -2 -36 -7 -15 -5 -28 -6 -31 0 -3 5 -13 6 -22
3 -11 -4 -14 -3 -9 5 5 8 2 10 -8 6 -9 -3 -16 -10 -16 -15 0 -14 -40 -11 -41
4 0 6 -5 -1 -11 -18 -6 -16 -17 -36 -25 -43 -7 -7 -13 -20 -13 -27 0 -9 -6
-12 -15 -9 -9 4 -23 -4 -35 -17 l-19 -24 -1 22 c0 23 -15 39 -23 26 -3 -5 -8
-24 -12 -43 -7 -31 -6 -33 9 -21 13 11 17 11 22 -3 8 -21 21 -20 27 2 3 12 5
11 6 -6 1 -13 5 -20 11 -17 6 4 16 2 23 -3 7 -5 22 -8 35 -7 18 1 21 -2 16
-18 -17 -54 -36 -87 -49 -87 -20 0 -30 21 -15 30 8 5 15 18 17 30 2 12 -1 19
-6 15 -5 -3 -12 -1 -15 4 -9 15 -43 1 -55 -22 -11 -21 -11 -20 -8 6 3 15 0 30
-4 33 -5 3 -9 -2 -9 -10 0 -9 -5 -16 -11 -16 -8 0 -10 -12 -6 -36 6 -39 0 -64
-15 -64 -6 0 -7 7 -4 16 4 10 1 14 -6 11 -7 -2 -13 -13 -13 -25 0 -12 -5 -22
-10 -22 -6 0 -10 4 -10 9 0 5 -4 13 -9 18 -5 4 -6 -3 -3 -17 3 -14 2 -32 -3
-40 -7 -11 -10 -8 -11 15 0 17 -3 24 -6 17 -4 -9 -9 -10 -18 -2 -9 8 -14 6
-19 -5 -7 -18 -36 -20 -36 -2 0 6 8 26 18 42 10 17 23 42 29 56 11 25 10 26
-9 21 -14 -3 -19 -1 -14 6 4 7 2 12 -3 12 -11 0 -15 -13 -12 -37 4 -26 -9 -12
-18 20 l-9 32 -1 -32 c-1 -17 -5 -34 -10 -38 -6 -3 -8 20 -6 57 2 35 1 50 -2
33 -8 -49 -25 -56 -19 -7 3 23 1 42 -5 42 -5 0 -9 -5 -9 -12 0 -6 -2 -9 -5 -6
-11 10 7 37 21 31 11 -4 13 2 8 28 -6 32 -6 33 9 14 13 -15 16 -17 17 -5 0 26
-39 52 -67 45 -20 -5 -24 -3 -20 9 4 9 2 16 -4 16 -7 0 -8 -12 -4 -32 l7 -32
-25 17 c-37 24 -50 22 -36 -5 9 -19 9 -21 -2 -11 -7 7 -18 13 -24 13 -5 0 -3
-5 5 -10 13 -9 13 -11 0 -20 -21 -14 -27 -12 -34 6 -4 10 1 25 10 35 17 19 10
44 -8 33 -7 -5 -9 -2 -5 8 4 12 1 14 -14 11 -21 -6 -25 -23 -9 -39 9 -9 -4
-61 -25 -94 -8 -13 -7 -13 8 -1 12 9 17 10 17 2 0 -7 5 -9 11 -5 7 4 6 -3 -2
-17 -7 -13 -13 -37 -14 -52 -2 -23 2 -28 17 -24 21 6 22 3 7 -25 -7 -13 -8
-23 -1 -30 7 -7 5 -16 -6 -29 -18 -21 -47 -25 -58 -7 -4 6 -3 8 4 4 7 -4 10 4
10 23 -1 29 -2 30 -27 16 -20 -10 -30 -10 -42 -1 -14 10 -14 13 -2 24 11 11
11 17 2 28 -9 11 -4 21 25 49 21 19 35 35 32 35 -3 0 2 12 10 28 13 24 12 27
-4 30 -9 2 -22 10 -27 17 -6 7 -20 15 -30 17 -17 2 -20 -2 -18 -27 1 -16 0
-24 -3 -17 -11 23 -24 12 -24 -22 0 -18 -7 -39 -15 -46 -12 -10 -15 -10 -15 1
0 25 -20 -13 -20 -38 0 -13 -5 -23 -11 -23 -5 0 -7 -5 -4 -10 4 -6 9 -8 13 -6
4 2 7 -7 7 -20 0 -13 -6 -24 -13 -24 -7 0 -10 5 -6 11 4 8 0 8 -15 0 -18 -10
-20 -9 -14 6 6 16 5 16 -11 4 -16 -13 -17 -12 -11 15 l6 29 -15 -25 c-9 -15
-15 -19 -16 -10 0 26 12 60 22 60 5 0 6 -5 2 -12 -4 -6 -3 -8 3 -5 6 4 14 23
17 42 4 19 11 35 15 35 5 0 12 11 15 25 4 14 13 25 21 25 8 0 14 3 14 8 -1 4
-1 16 0 27 1 17 3 18 11 5 5 -8 10 -12 10 -8 0 3 3 13 6 21 4 11 -2 14 -20 12
-24 -3 -25 0 -23 36 1 21 5 39 10 39 4 0 7 -5 7 -11 0 -5 5 -7 10 -4 6 3 10
-3 10 -15 0 -12 4 -19 9 -16 4 3 7 24 5 46 -2 37 7 52 21 31 3 -6 23 -9 44 -8
28 2 37 -1 34 -10 -3 -7 -9 -13 -13 -13 -4 0 -11 -7 -14 -16 -4 -12 -1 -14 14
-9 16 5 20 2 21 -17 l2 -23 4 24 c5 27 29 54 49 57 15 2 11 -10 -15 -40 -15
-18 -15 -18 5 -8 12 6 24 9 27 6 3 -3 8 3 11 14 7 21 36 38 36 22 0 -6 -4 -10
-10 -10 -5 0 -10 -5 -10 -11 0 -5 5 -7 12 -3 7 5 8 3 2 -7 -12 -20 -14 -39 -3
-39 5 0 14 9 21 19 11 18 13 18 24 3 10 -14 12 -13 18 6 4 12 13 22 19 22 8 0
8 3 -1 9 -11 7 -11 9 2 14 12 5 16 0 16 -24 0 -17 -5 -39 -10 -50 -8 -15 -8
-19 2 -17 7 2 15 12 18 22 5 17 8 15 22 -13 16 -35 21 -33 32 12 5 19 2 29 -8
33 -8 3 -12 12 -9 20 4 12 8 12 21 2 13 -11 14 -10 8 10 -5 13 -3 22 3 22 10
0 15 -13 13 -31 -1 -4 7 -5 18 -2 12 3 17 10 12 21 -5 14 -3 15 10 5 8 -7 19
-9 23 -5 5 4 5 1 0 -7 -4 -8 -2 -16 5 -21 7 -4 13 -20 13 -35 0 -17 2 -22 7
-15 4 7 7 23 5 36 -1 13 1 21 6 19 4 -3 12 3 18 12 5 10 12 15 15 12 8 -8 -43
-99 -55 -99 -5 0 -9 8 -9 18 0 10 -6 27 -14 37 -13 18 -14 17 -40 -7 -23 -21
-25 -26 -12 -31 10 -4 13 -12 9 -24 -6 -16 -5 -16 10 -4 9 7 17 9 17 3 0 -15
-26 -22 -38 -10 -7 7 -10 2 -9 -16 1 -14 8 -26 15 -26 6 0 12 -4 12 -10 0 -5
-4 -10 -10 -10 -5 0 -6 -8 -3 -17 5 -14 8 -14 11 -2 5 14 21 29 33 29 12 0 2
-42 -12 -52 -11 -8 -11 -9 3 -5 9 3 19 1 22 -6 3 -7 4 2 3 20 0 17 5 38 12 47
7 8 10 20 6 26 -3 5 1 13 9 16 9 3 13 10 10 15 -3 5 -1 9 5 9 6 0 15 18 21 40
6 22 16 40 21 40 6 0 8 8 5 17 -4 10 -4 14 0 10 4 -4 13 1 20 11 12 15 12 13
5 -15 -7 -23 -6 -30 2 -27 14 5 18 64 6 64 -5 0 -9 5 -9 11 0 6 7 9 15 5 8 -3
15 -1 15 3 0 12 -110 13 -111 1 -1 -6 -2 -14 -3 -19 0 -5 -5 -13 -10 -18 -5
-4 -6 4 -2 20 6 24 4 27 -18 27 -13 0 -26 -6 -29 -12 -3 -10 -8 -9 -22 2 -16
14 -17 13 -11 -8 7 -21 5 -22 -20 -18 -15 3 -32 13 -37 22 -9 15 -11 14 -23
-7 -11 -21 -13 -22 -19 -6 -4 9 -11 17 -17 17 -5 0 -6 -4 -3 -10 3 -5 -3 -10
-14 -10 -15 0 -19 5 -15 18 5 16 5 16 -6 -1 -8 -13 -15 -15 -30 -7 -10 5 -26
7 -34 4 -9 -3 -16 -1 -16 4 0 6 -9 10 -20 9 -11 -1 -20 -7 -20 -15 0 -7 -4
-11 -9 -7 -6 3 -14 -3 -20 -12 -6 -10 -11 -13 -11 -6 0 6 5 15 10 18 26 16 7
30 -45 32 -33 1 -53 -2 -50 -8 4 -5 -5 -9 -19 -9 -14 0 -26 5 -26 10 0 6 -4
10 -10 10 -5 0 -7 -6 -4 -14 3 -8 -3 -16 -15 -19 -18 -4 -19 -2 -10 14 12 22
-9 27 -29 7 -10 -10 -15 -10 -21 1 -6 10 -10 10 -16 2 -4 -7 -11 -8 -18 -3 -8
5 -28 0 -54 -13 -33 -17 -40 -24 -30 -34 9 -10 8 -11 -7 -5 -13 5 -17 4 -12
-4 3 -6 1 -14 -5 -18 -7 -4 -9 -3 -6 3 4 6 0 16 -7 22 -11 9 -14 9 -12 -1 1
-7 5 -19 9 -26 5 -6 5 -17 2 -22 -3 -5 -1 -10 4 -10 6 0 11 4 11 9 0 5 9 11
20 14 11 3 20 2 20 -1 0 -11 -17 -34 -24 -33 -22 3 -28 -1 -23 -19 3 -11 1
-20 -4 -20 -5 0 -9 -7 -9 -15 0 -9 -7 -27 -16 -40 -12 -18 -13 -29 -6 -38 8
-9 4 -12 -15 -14 -19 -1 -22 1 -12 8 10 6 11 9 1 9 -9 0 -10 5 -2 19 8 17 7
20 -10 18 -19 -1 -24 -10 -21 -30 1 -5 -3 -6 -9 -2 -6 3 -8 9 -6 13 2 4 -12 7
-31 8 -30 1 -34 -2 -29 -19 5 -21 -19 -53 -29 -38 -3 5 0 13 6 17 6 3 9 19 5
34 -4 22 -1 29 14 33 10 3 21 0 23 -6 2 -6 10 -8 19 -4 12 4 15 15 12 41 -2
21 0 36 6 36 5 0 10 -4 10 -10 0 -5 5 -10 10 -10 15 0 12 19 -5 37 -23 22 -11
27 24 9 22 -12 32 -13 37 -4 4 7 3 8 -4 4 -7 -4 -12 -2 -12 3 0 6 -8 11 -17
11 -10 0 -14 3 -8 8 14 10 19 62 6 62 -6 0 -7 -8 -4 -17 6 -16 5 -16 -10 -4
-27 21 -85 23 -97 3 -7 -13 -8 -10 -4 13 5 30 5 30 -40 32 -29 1 -46 -3 -46
-10 0 -7 -5 -5 -10 3 -8 12 -10 12 -10 1 0 -8 -7 -11 -20 -8 -10 3 -21 0 -24
-7 -3 -6 -3 1 -1 16 8 58 0 66 -71 62 -35 -2 -72 -8 -82 -13 -29 -15 -72 -8
-72 12 0 14 -4 16 -19 7 -13 -7 -22 -7 -26 0 -3 5 -11 10 -17 10 -6 0 -6 -6 2
-15 12 -14 10 -15 -16 -10 -16 3 -74 8 -129 10 -55 2 -147 7 -205 10 -58 3
-118 6 -135 6 -51 -1 -95 18 -88 37 3 9 -5 5 -19 -11 -13 -15 -27 -24 -32 -20
-11 11 -80 3 -88 -10 -4 -7 -8 -7 -8 -2 0 6 -27 10 -61 10 -58 0 -61 -2 -76
-33 -8 -17 -19 -32 -23 -32 -9 0 -20 26 -19 43 0 7 3 4 7 -5 6 -15 9 -13 23
10 l15 27 -68 -2 c-37 -1 -68 1 -68 5 0 4 -21 7 -47 6 -27 0 -54 4 -62 10 -11
8 -13 8 -7 -1 5 -10 1 -11 -16 -5 -13 4 -40 7 -60 6 -21 0 -38 4 -38 9 0 7 -4
7 -12 -1 -8 -8 -15 -9 -25 -1 -9 8 -17 8 -27 0 -12 -10 -53 -10 -76 -1 -3 1
-9 2 -14 1 -4 -1 -14 4 -22 10 -11 9 -14 8 -14 -2 0 -8 -6 -5 -15 7 -8 11 -15
14 -15 7 0 -18 -20 -16 -20 1 0 23 -33 29 -47 10 -8 -11 -13 -13 -13 -5 0 7
-8 11 -18 9 -18 -3 -22 1 -22 21 0 16 37 19 76 5 28 -10 42 -10 52 -2 10 9 14
6 19 -10 7 -28 17 -28 36 1 8 12 19 18 23 14 5 -4 3 -12 -5 -16 -10 -7 -9 -10
3 -14 9 -4 16 -2 16 2 0 10 41 8 58 -3 7 -4 12 -1 12 6 0 10 2 10 9 -1 6 -8
19 -12 35 -9 15 3 29 2 32 -3 2 -5 15 -4 29 1 16 6 25 5 29 -3 5 -9 7 -9 12 0
4 10 9 9 21 -2 9 -10 24 -13 41 -9 54 13 66 44 16 44 -13 0 -24 5 -24 10 0 6
11 10 24 10 25 0 41 -22 37 -52 -1 -10 4 -18 13 -18 8 0 21 -3 30 -6 10 -4 16
-1 16 9 0 13 21 15 145 12 80 -1 161 1 180 5 20 4 35 4 35 -1 0 -5 7 -9 15 -9
9 0 20 -10 25 -22 9 -23 9 -23 9 -2 1 12 8 25 17 28 24 9 29 0 13 -21 -7 -10
-9 -15 -5 -11 5 4 15 3 23 -3 8 -8 13 -8 13 -1 0 6 -6 13 -12 15 -8 3 -5 6 5
6 10 1 27 -4 37 -9 14 -8 21 -6 28 6 6 11 12 13 16 6 4 -6 13 -9 21 -5 8 3 15
1 15 -4 0 -5 49 -9 110 -8 61 1 110 -1 110 -5 0 -13 424 1 438 14 3 3 11 1 19
-6 7 -6 16 -8 20 -5 3 4 12 2 19 -4 10 -8 22 -7 45 5 24 12 35 13 45 5 10 -9
14 -9 14 0 0 6 7 11 16 11 8 0 12 -5 9 -10 -10 -16 24 -23 42 -9 9 8 14 9 10
3 -4 -7 2 -14 16 -18 34 -9 67 -7 67 4 0 12 22 9 33 -5 5 -7 10 -7 15 0 14 20
34 16 27 -5 -4 -12 -2 -20 5 -20 7 0 14 9 17 20 3 11 12 20 19 20 8 0 14 -9
14 -20 0 -24 14 -25 71 -5 24 9 45 11 48 6 6 -9 53 -7 70 4 6 3 14 -1 17 -10
5 -12 17 -16 48 -13 22 2 45 8 49 13 5 6 6 -3 2 -19 -5 -24 -4 -27 7 -19 7 6
45 11 83 12 39 0 84 5 102 10 17 5 34 7 37 3 3 -3 6 0 6 7 0 7 4 10 9 6 5 -3
12 -1 16 4 3 6 14 2 25 -9 25 -25 37 -25 45 1 5 14 10 17 19 10 7 -6 47 -9 89
-8 54 2 73 0 67 -8 -17 -20 21 -41 65 -34 l40 5 -30 8 c-57 15 -59 16 -47 28
7 7 46 12 92 12 60 1 79 4 75 14 -3 8 7 12 33 11 20 -1 28 -4 17 -6 -17 -3
-20 -10 -17 -38 3 -21 10 -35 18 -35 8 0 14 -8 15 -17 0 -14 2 -13 9 5 7 17
16 22 40 20 16 -1 30 -6 30 -10 0 -5 14 -2 30 7 17 9 30 13 30 9 0 -4 8 0 17
7 14 12 16 12 8 0 -6 -11 -3 -13 19 -7 14 3 26 3 26 -1 0 -5 16 -8 35 -9 22 0
34 4 32 10 -3 6 -10 10 -17 8 -6 -1 -10 5 -8 15 2 10 11 17 19 15 20 -5 39 -4
74 3 22 5 26 4 15 -4 -18 -12 -9 -24 13 -15 9 3 13 12 10 20 -4 10 0 12 11 8
10 -4 15 -13 12 -20 -3 -7 -1 -16 4 -19 6 -4 10 0 10 8 0 11 17 15 70 16 39 1
80 5 93 10 12 5 31 4 44 -2 25 -11 61 -1 47 13 -14 14 -57 19 -71 8 -9 -7 -13
-7 -13 2 0 9 -3 10 -13 1 -8 -6 -16 -8 -20 -5 -3 3 -20 7 -39 10 -18 2 -44 6
-58 8 -14 3 -54 10 -89 16 -36 6 -68 13 -72 16 -4 2 -11 0 -14 -6 -5 -8 -11
-7 -22 1 -12 10 -16 10 -24 -2 -7 -11 -9 -10 -9 6 0 11 -4 15 -8 10 -8 -12
-111 -14 -129 -2 -7 5 -13 4 -13 -1 0 -17 -39 -1 -42 16 -2 13 -9 10 -32 -13
-18 -19 -26 -23 -23 -12 4 9 2 17 -3 17 -6 0 -10 -7 -10 -15 0 -17 -16 -20
-25 -6 -5 9 -17 11 -97 13 -23 1 -39 7 -43 16 -5 12 -8 12 -25 -3 -11 -10 -20
-13 -20 -8 0 6 -9 13 -20 16 -27 7 -25 21 5 37 22 12 27 11 39 -5 12 -16 13
-16 19 -1 9 22 36 21 31 -1 -4 -15 1 -18 29 -17 19 1 39 4 46 8 6 4 18 3 25
-3 9 -7 19 -6 34 5 20 14 22 14 22 -5 0 -12 4 -21 9 -21 5 0 7 10 5 23 -4 19
-3 20 4 3 5 -11 11 -15 15 -10 3 6 25 11 48 13 23 1 46 4 51 7 5 3 14 1 21 -4
7 -6 29 -10 50 -9 21 1 42 -5 46 -12 6 -9 13 -9 34 0 15 7 27 16 27 21 0 13
56 9 86 -7 26 -13 30 -13 41 2 9 12 32 17 90 19 43 2 70 1 61 -2 -10 -3 -18
-10 -18 -16 0 -7 -19 -9 -55 -4 -45 5 -55 3 -55 -9 0 -17 -3 -16 139 -19 70
-2 106 -6 109 -14 2 -7 8 -12 13 -12 6 0 8 4 5 9 -3 4 6 13 19 19 14 7 25 20
25 29 0 14 -2 15 -9 4 -6 -9 -32 -15 -81 -16 -61 -2 -71 0 -68 14 2 12 23 19
83 27 102 14 97 14 120 4z m550 -12 c-3 -13 -3 -18 2 -13 13 17 62 39 70 32 3
-4 -2 -7 -12 -7 -10 0 -16 -3 -12 -6 3 -3 43 -6 88 -6 46 0 93 -4 106 -9 16
-6 22 -5 18 1 -4 6 8 9 29 8 24 -2 36 -8 37 -18 1 -8 5 -4 9 10 4 14 8 19 9
13 1 -7 9 -13 19 -13 14 0 15 2 2 10 -8 5 -10 10 -4 10 6 0 19 -10 28 -22 8
-13 13 -16 10 -7 -4 14 5 16 68 14 40 -2 84 -4 98 -4 23 -1 23 -2 8 -18 -14
-13 -20 -14 -32 -3 -16 12 -22 4 -17 -23 1 -4 -28 -7 -63 -5 -35 1 -62 6 -60
10 3 4 1 8 -5 8 -5 0 -13 -5 -16 -10 -4 -7 -13 -7 -26 1 -12 6 -79 9 -174 7
-138 -3 -181 2 -142 15 6 2 -1 2 -18 -1 -30 -5 -182 -4 -260 2 -22 2 -53 4
-69 5 -23 1 -26 4 -17 15 9 11 44 14 161 13 83 -1 150 1 150 6 0 4 5 7 11 7 6
0 8 -9 4 -22z m-6510 -11 c6 -1 13 -6 17 -12 5 -6 8 -5 8 3 0 10 60 12 303 8
166 -2 317 -7 336 -12 27 -6 32 -4 26 6 -6 10 -4 12 9 7 10 -4 25 -7 34 -7 16
-1 15 -2 0 -14 -25 -19 -22 -26 10 -26 21 0 24 2 12 10 -13 8 -12 10 3 10 10
0 16 3 14 8 -3 4 27 5 66 2 56 -3 62 -5 30 -8 -24 -2 -43 -7 -43 -13 0 -5 3
-8 8 -8 4 1 18 1 32 -1 21 -1 22 -3 7 -9 -10 -4 -18 -11 -17 -16 1 -5 -4 -11
-11 -14 -7 -2 -9 1 -5 8 4 6 1 12 -6 12 -7 1 -24 3 -38 4 -14 1 -30 -5 -36
-14 -7 -9 -16 -13 -20 -8 -4 4 -2 7 5 7 7 0 9 5 6 10 -7 11 -53 3 -72 -12 -14
-11 -33 -2 -33 15 0 8 3 8 9 -1 6 -10 11 -9 22 4 12 15 12 17 -1 12 -8 -3 -23
-1 -33 4 -14 7 -29 2 -64 -26 -52 -41 -63 -44 -64 -18 0 14 -2 14 -9 -3 -7
-18 -9 -18 -15 -3 -5 13 -12 15 -30 8 -19 -7 -23 -6 -18 6 4 10 0 12 -12 8
-10 -4 -21 -1 -26 7 -7 12 -12 12 -30 1 -17 -11 -23 -11 -29 -2 -5 9 -9 9 -14
1 -4 -6 -21 -9 -39 -7 -24 3 -32 8 -30 22 1 15 -1 15 -17 -5 -14 -20 -26 -24
-60 -23 -24 1 -45 4 -48 7 -3 2 -13 0 -23 -5 -19 -11 -52 -3 -44 11 3 4 30 7
61 6 46 -3 54 -1 49 12 -4 12 -2 12 9 -1 17 -23 23 -23 36 3 11 19 10 20 -45
14 -36 -5 -60 -3 -69 5 -10 8 -16 8 -21 0 -4 -7 -28 -9 -68 -5 -34 4 -93 8
-132 10 -38 2 -72 5 -75 5 -3 1 11 8 30 15 30 12 83 13 155 2z m680 -257 c-3
-11 -2 -20 3 -20 15 0 33 26 24 35 -4 5 -1 5 6 1 6 -4 12 -13 12 -20 0 -15
-47 -39 -61 -31 -11 7 -12 -6 -1 -20 11 -16 104 -12 110 4 3 10 0 12 -12 8 -9
-4 -14 -3 -11 2 3 6 15 9 26 8 15 -1 19 -6 15 -22 -5 -19 -4 -19 9 -2 8 11 16
14 19 8 4 -6 13 -8 21 -4 11 4 14 0 9 -13 -5 -17 -4 -17 13 2 17 19 49 22 38
3 -4 -5 1 -6 9 -3 9 3 13 10 10 15 -3 5 1 9 10 9 8 0 17 6 20 13 3 6 5 0 3
-15 -4 -24 -2 -26 20 -17 13 5 23 5 23 -1 0 -5 13 -5 31 0 16 5 37 6 45 3 8
-3 14 0 14 7 0 7 8 9 20 5 11 -3 20 -2 20 3 0 4 12 9 28 10 15 1 45 5 67 7 22
3 48 6 58 7 9 1 17 6 17 11 0 5 7 4 15 -3 12 -10 15 -10 15 0 0 9 3 10 13 1 8
-6 16 -8 19 -5 3 3 10 -8 16 -25 9 -25 8 -29 -4 -24 -18 7 -18 -4 1 -23 13
-14 15 -14 15 0 0 9 4 16 9 16 5 0 8 11 5 23 -3 21 0 24 27 25 25 1 28 -2 18
-14 -6 -8 -9 -17 -6 -21 4 -3 12 6 18 21 7 15 20 26 31 26 11 0 16 -4 13 -10
-3 -5 1 -10 9 -10 9 0 16 5 16 10 0 20 21 9 30 -15 5 -14 14 -25 20 -25 7 0 9
-9 4 -22 -6 -20 -5 -21 10 -6 9 9 16 26 16 38 0 23 31 41 38 22 2 -7 8 -10 13
-6 5 3 9 1 9 -5 0 -6 7 -8 15 -5 8 4 15 2 15 -3 0 -5 32 -8 73 -5 39 2 89 4
109 4 20 1 35 5 32 10 -7 11 47 -1 61 -13 13 -13 27 -11 19 2 -4 8 0 9 15 4
16 -5 21 -2 21 11 0 16 1 16 15 -2 8 -10 15 -14 15 -9 0 6 5 3 10 -5 6 -10 10
-11 10 -2 0 6 5 12 10 12 20 0 10 -48 -16 -75 -20 -22 -23 -30 -12 -36 10 -7
10 -9 1 -9 -7 0 -13 -9 -13 -19 0 -11 -5 -23 -10 -26 -6 -4 -8 -10 -6 -14 3
-4 0 -13 -6 -21 -8 -12 -9 -12 -4 2 3 10 1 20 -4 23 -6 4 -10 -1 -10 -10 0
-12 -5 -15 -16 -11 -9 3 -20 6 -25 6 -17 0 -9 20 9 21 13 0 12 2 -5 9 -13 5
-23 14 -23 20 0 5 -3 10 -7 10 -9 0 -33 -49 -33 -67 0 -28 -18 -11 -25 24 -4
24 -9 32 -15 24 -4 -8 -13 -10 -19 -7 -6 4 -11 3 -11 -3 0 -5 3 -11 8 -14 4
-2 1 -2 -5 -1 -7 2 -13 -2 -13 -9 0 -8 -3 -9 -8 -1 -4 6 -16 15 -26 21 -19 10
-18 11 3 22 12 7 21 8 20 4 -1 -4 -1 -14 0 -22 1 -17 61 63 61 82 0 20 -42 18
-57 -3 -14 -20 -40 -29 -28 -10 4 6 -5 5 -19 -2 -14 -6 -26 -16 -26 -21 0 -6
-3 -8 -6 -5 -3 4 -1 15 5 26 9 17 7 19 -24 16 -19 -1 -37 2 -41 7 -3 5 -10 9
-15 9 -6 0 -7 -4 -4 -10 9 -14 -19 -12 -33 2 -10 10 -15 10 -20 1 -4 -6 -23
-14 -42 -16 -19 -3 -36 -6 -38 -6 -1 -1 5 -16 15 -33 13 -25 18 -29 21 -15 2
9 7 17 12 17 5 0 6 8 3 18 -6 15 -5 15 10 3 15 -12 17 -11 17 3 0 9 5 16 10
16 6 0 10 -5 10 -11 0 -6 7 -9 15 -6 8 4 17 2 20 -4 4 -5 3 -9 -2 -8 -21 4
-40 -3 -63 -21 -18 -14 -19 -18 -6 -14 18 7 18 6 1 -19 -16 -24 -16 -27 -1
-27 9 0 16 -7 16 -16 0 -14 2 -15 17 -3 13 11 17 11 20 1 3 -6 9 -10 14 -6 5
3 9 -4 9 -15 0 -25 -16 -36 -24 -16 -3 8 -11 15 -18 15 -8 0 -9 -3 -3 -8 6 -4
1 -16 -13 -30 l-24 -23 7 23 c7 23 7 23 -9 3 -14 -18 -15 -19 -16 -2 0 10 -4
15 -10 12 -5 -3 -10 -2 -10 4 0 5 9 12 19 16 30 9 34 34 5 30 -14 -1 -28 -6
-32 -10 -4 -4 4 -4 18 -1 l25 7 -25 -20 c-14 -11 -27 -18 -29 -15 -2 2 -10 -1
-18 -8 -10 -8 -17 -8 -25 0 -6 6 -17 8 -24 5 -11 -4 -13 5 -9 42 5 49 -6 55
-13 7 -2 -15 -7 -28 -13 -30 -5 -2 -9 -11 -9 -20 -1 -15 -2 -15 -14 1 -14 18
-15 18 -25 0 -12 -20 -12 -20 -15 20 -2 30 8 44 19 26 4 -6 17 4 31 25 27 40
36 43 54 22 14 -17 40 -10 40 11 0 11 -11 14 -42 12 -47 -3 -71 -15 -61 -32 3
-6 1 -7 -5 -3 -6 4 -9 13 -5 21 3 10 -1 15 -12 15 -12 0 -15 -5 -11 -16 4 -10
2 -14 -6 -11 -7 2 -12 10 -10 16 1 6 -2 11 -8 11 -5 0 -11 -4 -11 -10 -1 -5
-2 -14 -3 -20 0 -5 -4 -9 -7 -7 -3 1 -14 -5 -24 -13 -17 -14 -18 -14 -6 8 12
22 11 23 -8 12 -12 -6 -21 -17 -21 -25 0 -8 -6 -15 -14 -15 -9 0 -12 8 -8 25
3 18 0 25 -11 25 -8 0 -20 7 -27 15 -10 12 -16 13 -26 4 -11 -9 -14 -6 -14 14
0 25 -1 25 -29 11 -16 -8 -34 -28 -41 -44 -12 -30 -25 -38 -32 -21 -2 8 -48
19 -95 23 -7 1 -13 5 -13 10 0 5 -7 8 -16 6 -10 -2 -19 3 -21 10 -3 7 1 10 11
6 9 -3 16 -2 16 4 0 6 3 17 6 26 4 11 0 16 -14 16 -11 0 -23 -8 -27 -17 -6
-16 -8 -16 -18 -2 -29 38 -62 28 -69 -20 -5 -38 -25 -37 -21 1 3 27 1 29 -6
13 -9 -19 -10 -19 -10 4 -1 18 -4 21 -14 13 -7 -6 -22 -9 -33 -6 -14 4 -24 -1
-31 -18 -9 -17 -12 -19 -12 -6 -1 17 -34 42 -43 32 -3 -2 -16 -7 -29 -9 -13
-3 -28 -10 -34 -17 -14 -18 -48 -20 -41 -3 3 9 0 12 -10 8 -7 -3 -14 0 -14 6
0 6 -4 11 -9 11 -5 0 -7 -8 -4 -18 2 -10 -4 -26 -15 -36 -19 -17 -20 -17 -18
1 0 10 5 21 11 25 14 10 1 19 -34 23 -27 4 -31 1 -31 -20 0 -14 5 -25 10 -25
7 0 6 -8 -2 -22 -11 -22 -12 -21 -24 22 -10 36 -19 41 -16 10 0 -4 -15 -6 -33
-6 -19 0 -32 2 -30 5 3 2 -5 10 -18 16 -16 8 -26 9 -36 1 -11 -9 -13 -6 -6 13
5 16 4 21 -4 17 -7 -5 -11 2 -11 18 0 14 5 26 11 26 5 0 8 -3 5 -8 -2 -4 3
-16 11 -27 13 -16 15 -17 10 -2 -5 13 -1 17 19 17 14 0 22 -4 19 -10 -4 -6 7
-9 27 -6 25 2 34 9 36 25 2 12 -2 21 -9 21 -7 0 -10 2 -7 5 6 6 69 -25 80 -40
5 -6 12 -4 18 5 5 8 10 11 10 6 0 -5 7 -2 16 5 23 19 45 17 68 -4 11 -9 22
-14 25 -10 3 5 14 13 25 18 11 7 20 24 21 44 3 31 17 50 38 51 5 0 5 -9 2 -20z
m2522 6 c57 0 103 -4 103 -8 0 -8 -23 -12 -54 -9 -10 0 -25 -4 -32 -10 -8 -6
-14 -8 -14 -3 0 5 -4 3 -9 -4 -6 -11 -11 -10 -25 3 -31 31 -63 -2 -33 -35 10
-12 9 -12 -6 0 -16 12 -20 12 -28 -1 -7 -10 -8 -5 -4 16 5 28 5 28 -5 6 -8
-18 -13 -21 -24 -12 -7 6 -16 8 -19 4 -4 -3 -7 0 -7 9 0 8 -7 15 -15 15 -9 0
-14 -6 -11 -13 3 -8 1 -16 -4 -19 -6 -4 -10 0 -10 8 0 8 -6 17 -12 19 -20 8
-39 -2 -31 -15 4 -7 -4 -4 -19 5 -14 9 -29 13 -34 8 -5 -4 -18 -4 -29 0 -18 8
-17 10 13 21 17 8 32 16 32 20 0 3 39 4 88 2 48 -3 133 -6 189 -7z m-837 -23
c0 -2 -4 -12 -9 -22 -8 -13 -5 -17 11 -18 32 -3 32 -10 -1 -45 -33 -35 -38
-48 -20 -48 6 0 9 -6 6 -13 -3 -8 -1 -20 4 -28 7 -11 9 -11 9 4 0 9 5 17 10
17 6 0 10 -8 10 -17 0 -10 4 -24 9 -32 6 -9 10 4 12 41 3 45 1 54 -10 50 -9
-3 -12 -1 -7 6 4 7 14 12 23 12 10 0 13 6 9 16 -3 8 -2 12 4 9 5 -3 7 8 3 28
-5 33 18 69 34 53 4 -4 1 -11 -6 -15 -13 -8 -7 -52 7 -50 21 3 28 -4 27 -28 0
-16 -5 -28 -12 -28 -6 0 -15 -3 -19 -7 -4 -5 -2 -8 5 -8 7 0 9 -10 5 -27 l-6
-28 14 25 c32 56 51 80 65 80 13 0 13 -3 3 -15 -8 -9 -9 -15 -2 -15 6 0 14 5
18 11 3 6 15 9 25 6 10 -3 22 -1 25 4 4 6 11 6 19 -1 10 -8 15 -8 21 1 4 7 3
10 -2 7 -14 -9 -33 17 -24 32 5 8 10 9 14 2 4 -6 12 -9 19 -6 8 3 13 -6 15
-22 3 -37 7 -39 31 -15 19 19 21 19 30 3 7 -12 10 -13 11 -3 0 10 3 11 13 2 8
-6 17 -7 22 -3 4 4 4 -4 1 -18 -7 -23 -6 -24 8 -6 8 10 21 16 28 14 7 -3 19 2
26 11 11 13 12 13 7 1 -4 -8 1 -6 9 4 16 20 16 20 31 0 8 -10 15 -23 15 -29 0
-5 9 0 19 13 22 25 41 29 41 7 0 -19 10 -19 46 0 26 13 29 13 32 -1 2 -9 10
-13 18 -10 8 3 14 1 14 -5 0 -6 5 -7 10 -4 6 3 10 0 10 -7 0 -8 12 -13 30 -14
22 -1 31 4 37 20 8 24 8 21 -1 59 -3 15 -2 27 3 27 5 0 11 -10 13 -22 2 -13
11 -24 21 -26 13 -3 17 3 17 23 0 20 4 26 15 21 8 -3 15 0 15 7 0 8 4 6 10 -3
12 -18 13 -30 3 -29 -21 3 -28 -3 -29 -26 -1 -14 2 -22 7 -19 5 3 9 14 9 25 0
10 4 18 9 16 5 -1 16 6 23 16 13 17 14 17 14 -2 0 -12 -4 -21 -9 -21 -5 0 -7
-16 -5 -35 2 -19 -1 -37 -7 -39 -10 -4 21 -10 38 -7 5 1 5 -4 1 -10 -5 -8 -3
-9 5 -5 7 5 9 15 5 25 -3 9 -8 25 -9 36 -2 11 -4 20 -5 20 -1 0 -3 8 -5 17 -4
23 14 35 27 17 8 -11 9 -10 4 3 -6 19 9 34 19 18 4 -7 12 -7 25 0 26 14 27 13
26 -12 -1 -22 5 -24 44 -19 6 0 10 8 10 16 0 8 7 15 15 15 18 0 18 -5 5 -31
-7 -13 -7 -19 0 -19 5 0 10 -10 10 -22 1 -23 1 -23 17 -3 12 15 14 16 10 3 -3
-9 0 -21 7 -27 18 -15 40 12 33 39 -7 27 7 25 22 -2 6 -13 9 -15 7 -5 -3 9 -1
17 4 17 6 0 10 9 10 19 0 29 17 34 39 12 11 -11 23 -16 27 -13 3 4 4 -6 2 -21
-4 -20 -2 -25 5 -18 6 6 10 29 8 52 -1 30 2 40 11 36 7 -2 13 -14 12 -27 0
-13 7 -31 17 -41 16 -16 17 -16 23 4 9 34 7 40 -10 33 -9 -4 -14 -1 -12 5 2 7
19 13 36 14 30 3 32 1 19 -14 -27 -31 -30 -43 -11 -39 15 2 18 -2 16 -22 -2
-21 0 -20 13 9 8 18 12 38 8 45 -3 6 4 1 16 -11 11 -12 21 -33 21 -47 0 -21
-6 -26 -34 -31 -29 -6 -34 -11 -31 -31 2 -22 1 -23 -14 -10 -9 8 -25 16 -36
18 -17 3 -20 -2 -18 -32 1 -19 -1 -27 -3 -17 -8 26 -24 20 -24 -9 0 -17 -4
-23 -12 -18 -10 6 -10 4 0 -8 21 -26 -8 -30 -35 -5 -13 11 -23 15 -23 9 0 -8
-7 -9 -25 -2 -16 6 -25 6 -25 0 0 -6 5 -10 11 -10 5 0 8 -4 4 -9 -3 -6 -14 -8
-24 -6 -21 4 -37 -20 -20 -30 15 -10 46 4 52 24 4 17 39 23 53 8 9 -9 -24 -58
-39 -56 -24 3 -37 -1 -37 -12 0 -7 10 -9 25 -7 14 3 25 1 25 -3 0 -5 5 -9 11
-9 6 0 8 7 4 18 -4 12 -3 14 5 6 6 -6 8 -18 4 -27 -7 -18 -24 -23 -24 -7 0 12
-42 9 -51 -3 -4 -5 -19 -2 -34 6 -18 9 -24 17 -16 21 6 4 11 2 11 -3 0 -6 7
-11 16 -11 9 0 14 7 12 17 -2 12 -15 16 -55 17 -29 0 -53 2 -53 4 0 2 14 8 30
13 41 15 38 24 -10 24 -28 1 -40 -3 -40 -13 0 -8 -10 -22 -22 -33 -20 -17 -21
-18 -3 -12 17 6 18 5 5 -9 -11 -11 -19 -13 -27 -6 -15 12 -15 12 -4 -28 7 -23
5 -31 -5 -31 -7 0 -11 3 -9 7 2 3 0 12 -6 20 -6 10 -9 11 -9 3 0 -22 -16 -14
-29 14 -10 22 -14 25 -21 12 -7 -12 -48 -17 -70 -9 -14 6 -36 5 -46 -2 -6 -5
-10 5 -11 27 -1 25 4 36 18 40 21 7 24 16 8 32 -7 7 -2 10 17 7 33 -3 47 3 38
18 -4 6 -10 5 -15 -3 -5 -8 -9 -9 -9 -3 0 5 -13 9 -30 8 -16 -1 -34 4 -41 12
-12 15 -33 9 -23 -7 3 -5 10 -7 15 -4 5 4 9 2 9 -4 0 -10 -39 -8 -78 4 -19 6
-20 10 -10 24 10 13 8 13 -7 -1 -21 -19 -30 -65 -10 -48 16 14 27 0 13 -17 -8
-11 -7 -12 6 -7 12 5 15 2 10 -9 -3 -9 -12 -18 -20 -21 -9 -3 -12 -10 -9 -16
3 -5 0 -10 -8 -10 -10 0 -13 7 -10 20 4 13 0 20 -10 20 -8 0 -17 -9 -20 -20
-5 -21 -27 -28 -27 -9 0 5 4 8 8 5 15 -9 34 51 23 72 -5 10 -8 28 -5 40 3 11
1 29 -6 39 -10 16 -10 16 -5 -4 5 -17 2 -23 -10 -23 -12 0 -15 6 -9 23 6 20 5
20 -15 -5 -19 -23 -31 -61 -14 -45 3 4 12 2 20 -4 10 -9 13 -8 13 2 0 11 2 11
10 -1 14 -22 12 -43 -2 -34 -8 5 -7 1 2 -10 13 -16 12 -20 -5 -32 -12 -9 -21
-11 -23 -4 -2 5 -10 10 -18 10 -8 0 -14 9 -14 20 0 11 -7 20 -15 20 -8 0 -15
-8 -15 -17 0 -15 -2 -15 -9 -4 -6 9 -6 22 0 32 8 15 5 17 -21 14 -34 -4 -43 4
-28 25 8 12 9 12 4 -2 -6 -20 4 -24 21 -7 17 17 5 38 -17 32 -26 -7 -48 -72
-29 -84 10 -6 7 -8 -9 -6 -18 1 -22 6 -18 23 5 20 4 21 -19 11 -13 -7 -29 -23
-35 -36 -9 -20 -13 -22 -21 -10 -5 7 -9 22 -9 32 0 9 -4 17 -10 17 -5 0 -10
-6 -10 -13 0 -7 -9 -18 -19 -24 -16 -10 -20 -9 -26 10 -4 12 -8 27 -9 32 -2
11 -10 11 -40 -1 -17 -7 -18 -4 -13 24 5 25 3 30 -8 26 -10 -4 -13 -14 -9 -29
3 -13 0 -26 -7 -31 -9 -5 -10 -2 -6 10 4 10 1 24 -8 32 -13 13 -16 13 -21 1
-3 -8 -4 -20 -2 -28 3 -16 -33 -20 -43 -6 -4 6 -10 0 -14 -12 -7 -23 -13 -25
-35 -11 -10 6 -22 4 -37 -5 -20 -13 -22 -13 -17 0 5 11 2 13 -9 9 -9 -3 -23 3
-34 15 -19 22 -39 27 -45 11 -1 -5 -13 -7 -26 -4 -20 6 -21 8 -6 18 9 7 14 21
11 32 -4 17 -5 16 -6 -3 -1 -27 -7 -28 -28 -8 -8 9 -18 13 -22 9 -3 -4 -1 -9
6 -11 8 -3 4 -13 -12 -27 -14 -13 -25 -29 -25 -35 0 -8 -5 -9 -19 -2 -10 6
-21 7 -25 4 -3 -3 -7 0 -8 8 0 8 -2 21 -2 29 -1 8 -7 14 -14 12 -14 -2 -28 25
-18 35 3 3 13 0 22 -8 16 -13 17 -11 10 14 -4 19 -3 26 4 22 5 -3 10 -19 10
-36 l0 -29 21 21 c12 12 22 32 22 45 0 13 5 24 13 24 7 0 11 -6 8 -14 -4 -11
0 -13 14 -9 11 2 23 0 26 -6 12 -18 32 -12 33 9 1 11 -4 20 -13 20 -8 0 -14 7
-14 16 0 14 -3 14 -15 4 -13 -11 -14 -10 -10 3 4 8 2 18 -4 22 -6 3 -11 -1
-11 -9 0 -23 -17 -20 -23 4 -3 11 -10 20 -17 20 -6 0 -8 -5 -4 -12 5 -8 2 -9
-10 -5 -10 4 -21 7 -25 7 -4 0 -7 8 -8 19 -1 14 3 17 18 14 10 -3 27 1 36 8
15 12 16 12 11 -3 -8 -20 11 -29 48 -22 22 4 25 2 20 -13 -4 -12 1 -9 14 7 13
17 20 20 20 10 1 -10 4 -9 10 5 5 11 9 14 9 7 1 -7 6 -10 11 -7 6 4 8 11 5 16
-4 5 -1 9 4 9 6 0 11 -8 12 -17 0 -15 2 -15 9 2 12 28 12 37 -2 29 -7 -4 -8
-3 -4 4 6 10 36 6 36 -5z m-2547 -19 c6 15 10 16 22 6 12 -10 18 -10 31 1 14
11 18 11 28 -4 10 -12 23 -15 54 -11 34 4 42 2 42 -11 0 -12 -6 -15 -20 -10
-12 4 -20 2 -20 -5 0 -6 5 -8 10 -5 16 10 12 -11 -5 -25 -8 -7 -15 -9 -15 -4
0 4 -5 3 -11 -3 -6 -6 -17 -9 -24 -7 -7 3 -16 1 -20 -5 -3 -6 -11 -11 -16 -11
-6 0 -8 4 -5 8 3 5 -7 8 -22 7 -15 -1 -33 3 -41 9 -12 9 -13 7 -8 -7 6 -15 4
-16 -13 -7 -11 6 -20 16 -20 22 0 7 -6 3 -14 -7 -12 -16 -16 -17 -30 -6 -14
12 -19 11 -34 -2 -14 -12 -19 -13 -29 -2 -6 7 -9 16 -5 20 4 4 -9 4 -28 0 -19
-4 -41 -15 -49 -26 -18 -25 -35 -25 -21 1 9 16 8 19 -7 14 -17 -5 -17 -5 0 6
21 13 22 30 3 30 -8 0 -18 5 -22 11 -5 8 1 10 18 6 19 -5 28 -2 32 9 5 13 14
15 42 9 20 -3 59 -8 87 -10 28 -2 53 -8 55 -14 5 -14 32 12 33 31 0 7 4 4 8
-6 7 -18 8 -18 14 -2z m4222 -15 c-5 -15 -4 -19 4 -15 7 5 11 -5 12 -26 1 -24
3 -27 6 -10 2 12 8 20 13 17 4 -3 7 2 6 11 -2 25 32 43 44 24 6 -9 6 -16 0
-18 -6 -2 -10 -10 -10 -18 0 -19 26 -18 34 2 4 12 9 12 18 3 13 -12 16 -69 4
-87 -3 -6 -1 -12 6 -14 8 -3 6 -7 -5 -11 -9 -3 -16 -3 -16 1 1 4 0 23 -1 42
-2 25 -4 29 -7 13 -4 -22 -13 -27 -41 -24 -10 2 -11 -2 -2 -19 6 -11 8 -26 4
-32 -4 -7 -3 -8 4 -4 7 4 12 1 12 -9 0 -9 -7 -16 -17 -14 -10 1 -25 1 -33 0
-12 -1 -11 -4 3 -12 9 -6 27 -7 38 -4 18 6 19 5 8 -13 -7 -12 -17 -19 -21 -16
-4 3 -5 -2 -2 -10 3 -9 1 -16 -5 -16 -6 0 -10 -3 -9 -7 4 -22 -16 -43 -34 -37
-15 4 -19 2 -16 -12 2 -12 -7 -23 -25 -32 -29 -14 -53 -8 -29 7 18 11 -5 61
-27 61 -12 0 -13 2 -3 8 7 5 10 17 6 28 -4 13 -3 15 3 6 8 -10 12 -10 22 2 7
8 21 13 31 11 19 -4 35 19 31 44 -1 7 2 10 8 6 6 -3 11 1 11 9 0 9 7 16 15 16
10 0 14 9 12 29 -1 16 -5 27 -9 25 -4 -2 -9 0 -13 5 -3 6 -12 8 -20 4 -8 -3
-15 -1 -15 5 0 5 -10 9 -22 8 -11 0 -23 5 -25 12 -3 6 2 12 11 12 9 0 16 4 16
9 0 16 19 61 25 61 4 0 3 -10 0 -21z m1378 -138 c-3 -14 -9 -27 -13 -29 -4 -1
-16 -9 -26 -17 -17 -13 -18 -14 -1 -15 9 0 17 -5 17 -12 0 -6 11 -1 25 12 20
19 25 20 25 7 0 -11 5 -14 16 -10 8 3 13 12 10 20 -3 8 -1 11 4 8 15 -9 12
-35 -5 -41 -8 -4 -22 -1 -30 6 -9 8 -15 8 -15 2 0 -6 -3 -19 -7 -29 -6 -16 -5
-16 10 -5 19 16 38 7 30 -14 -5 -13 -7 -13 -14 -2 -6 9 -8 4 -7 -14 l2 -28 27
26 c19 18 28 22 31 12 4 -10 10 -10 31 -1 18 8 27 9 27 2 0 -6 5 -7 10 -4 6 3
10 2 10 -4 0 -6 7 -7 17 -4 11 4 14 3 9 -5 -4 -7 -4 -12 -1 -12 3 0 11 14 16
30 6 17 15 30 20 30 4 0 6 -7 3 -15 -4 -8 -1 -15 5 -15 6 0 11 7 11 16 0 8 5
12 11 9 7 -5 2 -16 -13 -32 -14 -15 -22 -34 -20 -49 3 -20 0 -23 -15 -17 -10
4 -24 14 -31 22 -10 14 -11 14 -5 -3 4 -13 3 -17 -5 -12 -7 4 -12 2 -12 -3 0
-23 -22 -9 -35 22 -8 17 -14 27 -15 20 0 -6 -3 -20 -6 -30 -5 -15 -4 -16 6 -3
9 13 11 12 8 -5 -2 -11 -11 -19 -20 -19 -9 1 -16 -6 -16 -15 0 -9 -3 -24 -7
-33 -5 -14 -2 -18 14 -18 12 0 21 -6 21 -16 0 -10 -6 -13 -19 -9 -10 3 -24 -1
-31 -10 -7 -8 -10 -16 -6 -16 3 -1 10 -2 15 -3 21 -3 23 -17 6 -30 -17 -12
-21 -12 -31 2 -8 11 -16 13 -25 6 -13 -9 -29 -10 -54 -4 -5 1 -17 3 -25 4 -20
1 -22 54 -2 65 18 10 12 41 -11 55 -13 8 -20 8 -26 -3 -16 -26 -29 -3 -20 36
12 54 12 103 -1 83 -8 -12 -10 -12 -11 5 0 15 -3 14 -11 -8 l-10 -28 -24 22
c-17 16 -24 18 -24 8 0 -8 -9 -15 -20 -15 -15 0 -20 6 -18 21 2 12 9 19 20 17
9 -1 20 3 24 9 4 8 3 9 -4 5 -17 -10 -32 2 -25 20 4 10 9 12 18 4 14 -12 25
-3 24 19 0 12 -3 11 -9 -4 -9 -19 -9 -19 -16 3 -3 12 -10 22 -15 22 -5 0 -6
-6 -3 -14 3 -8 1 -17 -5 -21 -7 -4 -8 0 -4 10 4 12 1 16 -13 14 -23 -4 -64 17
-64 33 0 7 4 7 13 -1 8 -6 17 -8 21 -4 11 11 51 11 59 -1 5 -8 10 -6 18 4 9
13 10 12 5 -2 -3 -10 -1 -18 4 -18 6 0 10 5 10 10 0 6 9 10 20 10 14 0 20 -7
21 -22 0 -13 5 -32 10 -43 7 -16 8 -14 3 10 -4 23 -3 27 7 18 6 -6 18 -9 26
-6 8 3 19 0 25 -8 7 -10 8 -6 3 14 -4 20 -2 28 7 26 27 -3 37 2 43 20 10 31
36 15 28 -18z m-409 15 c19 7 46 -23 39 -42 -3 -9 0 -19 7 -24 10 -6 10 -12 0
-31 -7 -13 -9 -21 -5 -17 10 10 47 -11 40 -22 -3 -6 1 -7 11 -3 13 5 15 2 8
-13 -5 -10 -9 -32 -9 -49 0 -17 -9 -38 -21 -50 -12 -11 -27 -31 -33 -43 -7
-13 -15 -21 -18 -18 -3 2 4 18 16 34 25 36 26 42 6 42 -19 0 -35 -31 -36 -72
0 -27 -2 -30 -9 -13 -5 11 -9 14 -9 8 -1 -7 -5 -13 -11 -13 -5 0 -7 7 -3 16 5
13 3 15 -13 6 -18 -9 -19 -7 -18 31 0 23 3 51 6 62 15 50 19 80 8 65 -5 -8
-10 -10 -10 -5 1 32 44 55 61 32 3 -5 9 1 12 12 4 17 1 21 -19 21 -15 0 -24 6
-24 16 0 10 6 14 15 10 10 -4 15 1 15 14 0 17 -4 18 -24 10 -18 -6 -28 -5 -37
6 -6 8 -10 15 -8 17 35 20 44 23 47 16 2 -4 9 -6 16 -3z m1097 -115 c-13 -23
-15 -72 -3 -70 24 4 41 -4 47 -21 10 -30 26 -24 20 8 l-5 27 11 -25 c11 -24
11 -24 19 -5 5 11 9 16 10 10 1 -5 5 -1 10 10 6 14 8 8 6 -23 -3 -38 -16 -74
-16 -44 0 7 -5 12 -11 12 -6 0 -8 -7 -5 -16 3 -8 -1 -28 -9 -43 -8 -16 -12
-31 -10 -35 3 -3 -3 1 -13 10 -12 11 -13 18 -5 21 7 2 9 11 6 19 -4 10 0 12
11 8 9 -3 16 -1 16 5 0 6 -5 11 -11 11 -5 0 -8 4 -5 9 4 5 -2 7 -13 4 -12 -3
-17 -11 -14 -23 3 -12 -3 -22 -16 -29 -18 -10 -21 -9 -21 8 0 14 -5 19 -15 15
-13 -5 -13 -9 -3 -22 11 -13 10 -14 -9 -3 -20 10 -23 9 -23 -6 0 -10 -5 -25
-11 -33 -9 -13 -10 -13 -6 2 3 9 0 24 -7 34 -12 16 -14 15 -19 -8 -5 -20 -12
-25 -26 -21 -13 3 -28 -4 -43 -19 -13 -13 -29 -23 -35 -22 -7 1 -17 2 -23 3
-5 0 -10 7 -10 15 0 8 -4 17 -9 20 -5 3 -8 -6 -8 -19 0 -15 5 -25 14 -25 8 0
11 -4 8 -10 -3 -5 0 -10 7 -11 7 0 4 -4 -7 -8 -11 -5 -25 -4 -32 1 -7 6 -13 4
-16 -4 -4 -9 -6 -7 -6 4 -1 9 5 18 12 21 6 2 0 4 -15 4 -18 0 -25 -4 -21 -13
3 -8 0 -14 -6 -14 -6 0 -11 8 -12 18 0 14 -2 14 -9 -3 -7 -16 -9 -17 -9 -3 -1
9 -3 22 -4 30 -2 7 -2 10 0 6 9 -16 32 -8 26 8 -5 14 -2 16 20 10 22 -5 29 -2
42 23 11 23 12 31 2 35 -6 3 2 4 18 1 17 -2 24 -2 18 1 -7 3 -13 13 -13 21 0
13 -3 13 -15 3 -9 -7 -18 -10 -22 -6 -3 3 -1 6 5 6 17 0 15 37 -1 43 -9 3 -12
16 -9 37 6 41 -14 32 -23 -10 -4 -17 -13 -30 -21 -30 -8 0 -17 -13 -20 -30 -4
-16 -13 -35 -20 -41 -18 -14 -17 -11 1 41 8 23 12 47 8 53 -3 6 -1 7 5 3 7 -4
12 -1 12 9 0 9 -5 13 -11 10 -6 -4 -16 1 -23 11 -8 10 -20 15 -29 11 -9 -3
-19 -2 -22 2 -3 5 2 12 11 15 20 8 54 -2 54 -15 0 -5 5 -9 10 -9 6 0 10 9 10
21 0 15 6 20 23 18 26 -2 55 8 79 28 13 12 20 12 37 1 14 -8 24 -9 29 -3 4 6
17 11 30 13 19 3 22 -1 22 -35 -1 -31 -3 -35 -11 -20 -14 24 -33 21 -49 -8
-15 -27 -7 -46 12 -27 15 15 31 16 22 0 -5 -8 -2 -9 10 -5 10 4 15 3 11 -3 -3
-6 -15 -10 -25 -10 -10 0 -22 -4 -25 -10 -3 -5 0 -7 8 -4 8 3 18 0 22 -6 6 -9
10 -9 16 1 7 11 9 10 9 -3 0 -10 5 -18 10 -18 6 0 8 10 4 24 -3 13 -1 27 5 30
6 4 11 14 11 22 0 9 -5 12 -12 8 -7 -5 -8 -3 -2 7 4 8 7 24 6 35 -3 19 1 21
36 17 27 -3 43 0 48 9 13 21 18 -17 5 -41z m259 -74 c0 -5 -5 -5 -11 -1 -7 4
-10 1 -7 -6 7 -21 24 -23 41 -5 14 13 15 10 10 -32 -5 -47 -5 -48 15 -30 20
18 20 18 8 -18 -17 -47 -36 -67 -36 -37 0 22 -1 22 -18 5 -11 -10 -23 -27 -27
-38 -7 -17 -10 -13 -15 20 -4 22 -8 34 -9 28 0 -7 -5 -13 -11 -13 -5 0 -7 7
-3 16 3 9 13 14 24 11 12 -3 19 0 19 10 0 9 -6 13 -15 9 -8 -3 -15 -1 -15 4 0
6 -4 10 -10 10 -5 0 -10 -6 -10 -13 0 -8 -13 -25 -29 -39 -15 -14 -35 -36 -44
-48 -8 -12 -20 -19 -26 -15 -14 8 -14 32 1 41 8 5 9 2 5 -9 -10 -26 8 -20 20
6 7 15 8 29 2 38 -7 11 -9 11 -9 -3 0 -10 -5 -18 -11 -18 -6 0 -8 7 -5 16 3 9
6 19 6 24 0 4 8 6 18 3 15 -4 18 1 14 30 -2 21 1 38 9 42 9 6 11 3 6 -8 -4
-12 -2 -14 10 -10 8 3 19 0 24 -8 8 -11 9 -10 7 5 -2 10 3 21 10 23 7 3 12 -4
12 -16 0 -23 15 -28 26 -9 5 7 3 8 -6 3 -10 -6 -11 -4 -6 11 5 10 11 27 14 37
4 15 7 16 13 5 5 -7 9 -17 9 -21z"/>
<path d="M7311 5440 c-1 -14 10 -61 24 -105 26 -86 30 -111 16 -119 -4 -3 -8
7 -8 22 0 15 -7 45 -16 67 -16 39 -16 39 -16 10 0 -16 4 -48 8 -70 5 -22 12
-56 16 -75 11 -51 -4 -30 -20 27 l-13 48 0 -95 c0 -52 5 -101 10 -108 6 -7 8
-15 4 -19 -3 -3 -6 -1 -6 5 0 7 -4 12 -10 12 -6 0 -9 -6 -7 -12 1 -7 -5 -13
-13 -13 -8 0 -21 -4 -28 -9 -12 -7 -11 15 4 62 5 16 -4 15 -22 -2 -19 -20 -19
-86 1 -86 16 0 19 -9 9 -34 -12 -30 -22 -16 -34 47 -6 34 -12 67 -14 73 -1 7
-7 18 -13 25 -7 10 -8 37 -1 89 8 70 7 76 -12 92 -20 16 -26 39 -13 51 3 4 7
18 8 31 0 16 -4 22 -13 18 -11 -4 -13 1 -7 18 5 15 4 20 -4 16 -6 -4 -11 0
-11 10 0 12 -5 10 -22 -11 -12 -15 -21 -40 -21 -55 0 -40 24 -121 34 -114 5 3
9 -7 9 -21 0 -14 -4 -24 -9 -21 -4 3 -6 -25 -3 -62 2 -37 8 -69 13 -72 13 -9
9 -132 -5 -152 -7 -10 -15 -16 -17 -14 -2 2 -5 -11 -7 -30 -1 -22 2 -33 8 -29
5 3 10 12 10 18 0 7 9 23 20 37 15 19 20 21 20 8 0 -9 -5 -18 -11 -20 -8 -3
-13 -49 -15 -138 -3 -87 0 -128 5 -115 5 11 11 52 12 90 1 39 4 59 7 45 4 -23
5 -24 12 -5 8 20 8 20 16 1 5 -13 3 -21 -4 -24 -15 -5 -16 -134 -2 -148 6 -6
6 -23 -2 -49 l-11 -40 -9 34 c-7 24 -12 31 -20 23 -8 -8 -5 -39 10 -109 15
-74 21 -88 21 -58 2 60 13 118 21 106 3 -6 5 -46 4 -89 -2 -43 1 -84 6 -92 7
-11 10 -2 11 30 l1 45 9 -50 c5 -27 7 -66 4 -85 -4 -26 -3 -31 5 -20 9 14 8
-6 -5 -72 -3 -19 22 -33 28 -15 2 6 3 -9 3 -33 -1 -25 3 -46 8 -47 5 -1 12 -7
17 -15 4 -7 6 19 2 57 -8 100 -7 125 5 137 8 8 10 1 6 -28 l-6 -39 21 25 c17
21 21 22 21 7 0 -10 4 -15 10 -12 5 3 13 -7 17 -22 9 -34 7 -248 -2 -320 -5
-36 -3 -53 4 -53 6 0 11 -13 11 -30 0 -37 19 -80 36 -80 7 0 10 -8 7 -19 -6
-25 15 -37 34 -18 13 13 13 18 0 43 -15 31 -28 109 -31 189 -1 28 -9 64 -17
80 -9 17 -14 38 -11 49 3 13 0 16 -9 11 -8 -5 -10 -4 -5 4 4 6 12 8 18 5 7 -5
9 0 6 14 -4 12 -2 20 3 16 5 -3 9 -14 9 -24 0 -10 4 -20 10 -22 5 -1 12 -25
15 -53 4 -27 10 -54 15 -60 4 -5 11 -32 15 -60 4 -27 12 -53 17 -56 4 -3 10
-36 13 -72 4 -60 2 -67 -14 -67 -12 0 -23 -11 -30 -30 -7 -22 -7 -29 1 -24 7
5 9 -1 4 -20 -6 -25 -5 -26 15 -16 22 12 42 4 21 -9 -20 -12 -4 -37 22 -36 27
0 66 43 66 72 1 47 49 246 64 262 16 18 16 21 0 53 -9 18 -28 49 -41 70 -13
20 -30 60 -38 90 -60 234 -89 340 -122 448 -2 9 10 30 30 50 21 20 33 40 30
49 -3 11 0 10 11 -3 21 -26 30 -15 22 28 -8 42 -25 58 -19 18 3 -21 2 -23 -6
-11 -9 14 -11 61 -9 159 4 119 -7 250 -24 300 -39 110 -39 111 -53 96 -10 -10
-12 -30 -8 -70 5 -49 4 -56 -10 -50 -9 3 -18 24 -22 47 -4 23 -15 51 -24 62
-15 19 -15 19 3 5 17 -14 18 -13 13 5 -3 11 -8 52 -12 90 -6 64 -11 83 -43
155 l-11 25 0 -25z m66 -535 c-18 -14 -28 -43 -17 -50 6 -4 10 -1 10 5 0 10
24 40 32 40 2 0 2 -18 0 -40 -2 -22 -9 -40 -14 -40 -6 0 -8 -9 -5 -20 6 -22
-12 -90 -24 -90 -4 0 -6 17 -4 38 4 35 4 35 -4 6 -16 -61 -40 -75 -36 -21 4
50 6 54 15 27 4 -14 6 40 3 120 -2 79 -1 142 2 139 3 -3 6 -18 7 -32 3 -31 18
-37 18 -7 0 11 5 20 11 20 5 0 7 5 4 10 -3 6 -3 16 2 23 5 7 9 -15 11 -53 2
-46 -1 -67 -11 -75z"/>
<path d="M7736 4992 c-4 -7 -2 -20 6 -29 15 -18 13 -22 -13 -41 -15 -11 -17
-17 -8 -33 10 -19 9 -20 -10 -9 -12 6 -22 18 -23 28 -1 9 -2 24 -4 32 -1 8 -2
19 -3 24 -1 5 -8 3 -16 -4 -12 -10 -12 -15 2 -37 10 -15 17 -47 18 -76 0 -40
4 -51 18 -53 19 -3 36 23 30 46 -2 8 2 4 10 -9 8 -13 12 -33 9 -45 -5 -21 -5
-21 17 -1 l23 20 -13 -28 c-11 -23 -10 -30 0 -37 11 -6 11 -8 0 -12 -9 -3 -8
-6 4 -11 9 -3 17 -2 17 4 0 6 5 7 10 4 6 -3 10 5 10 19 0 14 -5 28 -11 31 -6
5 -8 22 -3 49 7 43 8 51 5 105 -1 26 -4 32 -17 27 -16 -6 -37 9 -46 34 -3 11
-6 11 -12 2z"/>
<path d="M7675 4674 c-6 -33 -9 -36 -15 -19 -19 45 -10 -26 11 -90 11 -35 17
-70 13 -77 -6 -9 -3 -9 9 1 14 11 17 11 17 0 0 -8 7 -22 14 -32 13 -16 14 -15
18 12 2 17 1 28 -4 25 -4 -3 -8 6 -8 20 0 19 4 24 15 19 9 -3 15 -2 14 3 -1 5
0 20 1 34 l2 25 7 -24 c6 -22 8 -23 23 -8 21 21 46 12 54 -19 3 -13 10 -24 15
-24 12 0 11 17 -1 25 -6 4 -8 10 -5 15 3 5 -2 21 -11 35 -11 17 -13 29 -6 38
5 6 6 21 2 32 -5 15 -9 9 -14 -28 -4 -26 -12 -47 -18 -47 -5 0 -8 7 -4 15 3 9
0 15 -9 15 -8 0 -15 6 -15 13 0 8 -4 7 -10 -3 -9 -13 -11 -13 -20 0 -6 10 -10
11 -10 3 0 -7 -7 -13 -15 -13 -8 0 -15 5 -15 11 0 6 -7 9 -15 6 -11 -5 -12 -2
-3 17 7 16 7 30 0 41 -8 15 -11 11 -17 -21z"/>
</g>
</svg>
