<?xml version="1.0" standalone="no"?>
<!DOCTYPE svg PUBLIC "-//W3C//DTD SVG 20010904//EN"
 "http://www.w3.org/TR/2001/REC-SVG-20010904/DTD/svg10.dtd">
<svg version="1.0" xmlns="http://www.w3.org/2000/svg"
 width="300.000000pt" height="200.000000pt" viewBox="0 0 300.000000 200.000000"
 preserveAspectRatio="xMidYMid meet">
<metadata>
Created by potrace 1.10, written by Peter Selinger 2001-2011
</metadata>
<g transform="translate(0.000000,200.000000) scale(0.100000,-0.100000)"
fill="#ff0000" stroke="none">
<path d="M1 1548 c1 -249 3 -445 6 -435 7 28 31 20 49 -18 15 -33 32 -50 21
-22 -19 50 -18 57 3 57 11 0 37 -9 58 -19 25 -13 70 -21 142 -26 l106 -7 61
38 c36 23 62 46 63 56 0 9 20 34 45 55 25 20 45 42 45 48 0 40 76 70 210 84
108 12 204 38 288 77 62 30 88 36 165 40 88 5 129 17 197 58 45 27 135 65 184
77 40 10 66 9 150 -5 55 -9 121 -18 145 -20 58 -6 157 -73 250 -172 39 -41 71
-78 71 -82 0 -12 -136 -32 -270 -39 -96 -6 -109 -8 -80 -16 65 -17 67 -18 45
-27 -18 -8 -18 -9 6 -9 14 -1 29 -5 35 -10 17 -16 98 -28 122 -18 17 8 26 6
40 -6 10 -10 22 -14 26 -10 9 10 36 13 36 4 0 -4 -6 -13 -12 -21 -7 -8 -3 -6
8 3 17 14 23 15 27 5 4 -9 14 -4 32 17 14 17 25 26 24 20 -3 -21 1 -35 12 -35
6 0 8 9 4 23 -4 12 7 2 24 -23 l31 -45 -32 -10 c-18 -6 -48 -18 -66 -28 -24
-13 -37 -15 -52 -7 -11 6 -57 10 -102 9 -46 0 -92 2 -103 6 -42 14 -72 28
-130 57 -105 54 -178 79 -189 67 -8 -9 -8 -10 0 -6 7 4 11 1 10 -7 0 -8 15
-25 34 -38 31 -21 36 -30 41 -80 8 -76 74 -160 138 -177 14 -4 26 -14 26 -22
0 -8 16 -22 35 -31 42 -21 125 -25 114 -6 -4 7 -11 30 -15 53 -3 22 -10 52
-14 68 -7 27 -6 27 39 27 35 0 44 -3 40 -14 -3 -8 -1 -17 5 -21 6 -3 11 0 12
7 1 7 4 2 8 -12 5 -16 13 -24 25 -22 15 3 16 0 6 -20 -15 -31 42 32 82 90 18
26 37 42 50 42 15 0 18 -3 11 -12 -16 -20 -12 -47 6 -40 9 3 10 7 4 9 -8 3 -5
16 8 38 12 19 18 39 14 45 -3 5 -4 10 -1 10 10 0 66 -115 61 -128 -2 -7 -1
-11 3 -8 5 3 15 -11 24 -30 16 -35 16 -35 -9 -45 -13 -5 -33 -9 -44 -9 -27 0
-86 -26 -107 -46 -16 -17 -16 -17 8 -10 56 17 73 19 66 7 -5 -8 0 -8 20 -1 15
6 29 8 32 6 2 -3 13 -1 24 5 11 6 36 12 56 14 40 4 66 30 58 58 -10 38 23 -4
38 -50 16 -46 22 -148 8 -127 -12 19 -132 22 -247 6 -60 -8 -130 -16 -155 -17
-25 -1 -59 -5 -77 -9 -39 -9 -47 3 -28 40 13 25 13 30 0 44 -23 22 -151 26
-190 6 -24 -12 -31 -13 -33 -3 -3 15 -89 40 -104 31 -7 -4 -8 -2 -4 4 4 6 -6
18 -23 26 -23 12 -31 13 -34 3 -3 -7 -9 -1 -15 13 -5 14 -25 39 -44 55 -32 29
-78 86 -78 99 0 3 8 -1 18 -10 34 -32 157 -104 177 -104 17 0 16 2 -7 14 -49
26 -123 87 -137 114 -12 23 -9 22 20 -9 38 -40 75 -59 65 -34 -6 17 6 13 36
-13 24 -20 39 -7 28 24 -6 14 -10 40 -10 58 0 26 -8 38 -40 62 -27 19 -43 41
-50 66 -9 31 -61 98 -76 98 -2 0 -23 -12 -46 -26 -27 -17 -43 -23 -46 -15 -7
20 -38 12 -83 -21 -24 -18 -65 -40 -91 -49 -26 -10 -61 -27 -77 -38 -54 -39
-79 -43 -112 -20 -42 30 -67 20 -162 -64 -158 -139 -271 -205 -432 -252 -106
-30 -151 -32 -157 -7 -6 20 -54 46 -108 57 -33 7 -34 7 -20 -11 8 -10 10 -15
3 -11 -6 4 -14 3 -18 -2 -3 -6 8 -17 24 -26 41 -21 48 -35 17 -35 -14 0 -26 6
-26 13 0 7 -18 23 -40 37 -22 14 -40 28 -40 31 0 4 -7 9 -15 13 -29 11 3 -31
42 -55 21 -13 31 -25 24 -27 -22 -7 -120 99 -153 166 -33 67 -52 82 -37 30 13
-46 11 -56 -6 -34 -8 11 -15 36 -15 57 0 20 -7 42 -15 49 -13 11 -15 -54 -15
-534 l0 -546 1392 1 c944 1 1382 4 1358 11 -19 5 -105 14 -190 18 -187 10
-242 17 -251 31 -3 6 -8 10 -10 9 -10 -4 -65 15 -77 26 -10 10 -9 15 5 23 10
6 14 11 10 11 -11 0 11 21 47 44 23 15 41 17 83 13 30 -3 60 -12 66 -20 7 -8
37 -22 67 -32 30 -9 69 -23 87 -31 17 -8 44 -14 61 -14 16 0 43 -5 60 -11 25
-9 42 -8 77 5 51 17 52 16 57 -44 l3 -35 78 -3 77 -3 0 1001 0 1000 -1500 0
-1500 0 1 -452z m1763 231 c8 -9 5 -10 -14 -5 -14 3 -56 6 -95 7 -51 0 -65 3
-50 10 26 12 145 3 159 -12z m-154 -19 c0 -6 -23 -9 -52 -9 -45 1 -49 2 -23 9
44 11 75 11 75 0z m27 -7 c-4 -3 -10 -3 -14 0 -3 4 0 7 7 7 7 0 10 -3 7 -7z
m70 -10 c-4 -3 -10 -3 -14 0 -3 4 0 7 7 7 7 0 10 -3 7 -7z m73 -23 c8 -5 11
-10 5 -10 -5 0 -17 5 -25 10 -8 5 -10 10 -5 10 6 0 17 -5 25 -10z m-327 -35
c-3 -8 -10 -15 -17 -15 -6 0 -21 -3 -33 -6 -34 -9 -27 10 10 28 36 17 49 15
40 -7z m457 -1 c0 -2 -9 0 -20 6 -11 6 -20 13 -20 16 0 2 9 0 20 -6 11 -6 20
-13 20 -16z m-183 -11 c-20 -2 -52 -2 -70 0 -17 2 0 4 38 4 39 0 53 -2 32 -4z
m-360 -20 c-4 -3 -10 -3 -14 0 -3 4 0 7 7 7 7 0 10 -3 7 -7z m-30 -10 c-4 -3
-10 -3 -14 0 -3 4 0 7 7 7 7 0 10 -3 7 -7z m-482 -33 c-9 -16 -18 -30 -21 -30
-2 0 2 14 11 30 9 17 18 30 21 30 2 0 -2 -13 -11 -30z m422 -6 c-3 -3 -12 -4
-19 -1 -8 3 -5 6 6 6 11 1 17 -2 13 -5z m-809 -24 c-7 -10 -14 -17 -17 -15 -4
4 18 35 25 35 2 0 -1 -9 -8 -20z m352 -4 c0 -4 -127 -89 -150 -100 -8 -4 3 9
25 29 22 19 58 44 80 54 48 23 45 22 45 17z m-340 -157 c0 -6 -4 -7 -10 -4 -5
3 -10 11 -10 16 0 6 5 7 10 4 6 -3 10 -11 10 -16z m121 -37 c-21 -41 -41 -62
-41 -43 0 5 5 13 10 16 15 9 12 27 -2 19 -7 -4 0 7 16 24 16 18 31 30 33 28 3
-2 -5 -22 -16 -44z m-103 -17 c-6 -14 -13 -23 -16 -21 -7 7 9 46 18 46 5 0 4
-11 -2 -25z m-8 -50 c0 -8 -4 -15 -10 -15 -5 0 -7 7 -4 15 4 8 8 15 10 15 2 0
4 -7 4 -15z m62 -8 c-6 -7 -20 -33 -30 -57 l-19 -45 2 40 c3 56 3 55 28 65 30
12 31 12 19 -3z m1068 -162 c0 -8 -2 -15 -4 -15 -2 0 -6 7 -10 15 -3 8 -1 15
4 15 6 0 10 -7 10 -15z m660 -95 c-26 -37 -51 -53 -29 -20 8 14 19 31 23 38 4
6 12 12 17 12 6 0 1 -13 -11 -30z m-2136 -194 l40 -39 -29 7 c-17 4 -42 10
-57 13 -15 3 -26 9 -23 13 2 4 -7 18 -20 30 -32 30 -32 47 0 26 29 -19 41 -21
28 -3 -6 6 -13 21 -16 32 -5 13 1 9 15 -10 12 -16 40 -48 62 -69z m1095 24 c1
-8 -8 -2 -18 14 -11 16 -17 36 -13 45 4 12 9 8 18 -14 7 -17 13 -37 13 -45z
m1311 56 c0 -2 -7 -7 -16 -10 -8 -3 -12 -2 -9 4 6 10 25 14 25 6z m-820 -107
c0 -4 -9 -7 -19 -6 -11 0 -18 4 -15 8 2 4 -3 12 -11 19 -8 7 -12 17 -9 22 6
10 54 -29 54 -43z m-471 1 c11 -24 11 -24 -3 -6 -9 11 -16 24 -16 30 0 12 5 7
19 -24z m572 -30 c8 0 7 5 -2 18 -13 16 -13 16 7 0 24 -21 38 -23 28 -5 -5 8
-2 8 9 -2 9 -7 17 -11 17 -7 0 6 23 -11 67 -51 22 -19 25 -51 3 -38 -4 2 -19
-4 -33 -15 -30 -24 -72 -27 -64 -6 4 9 -12 29 -38 52 -24 20 -42 41 -39 45 2
4 -1 11 -7 15 -8 4 -9 3 -5 -4 11 -18 -10 -14 -25 5 -10 11 -10 14 -1 9 6 -4
12 -2 12 4 0 6 11 5 30 -5 16 -8 34 -15 41 -15z m-541 -20 c6 -11 8 -20 6 -20
-3 0 -10 9 -16 20 -6 11 -8 20 -6 20 3 0 10 -9 16 -20z m707 -57 c-4 -3 -7 0
-7 7 0 7 3 10 7 7 3 -4 3 -10 0 -14z m190 10 c-4 -3 -10 -3 -14 0 -3 4 0 7 7
7 7 0 10 -3 7 -7z m443 -62 c0 -8 -70 -41 -86 -41 -14 0 12 24 40 36 37 16 46
17 46 5z m-130 -28 c0 -2 -21 -13 -47 -25 -26 -11 -54 -29 -62 -38 -15 -17
-65 -32 -144 -45 -21 -3 -45 -9 -53 -12 -9 -3 -14 1 -14 13 0 9 3 15 6 11 5
-5 27 10 59 40 7 7 43 17 81 24 38 6 79 17 91 23 21 11 83 17 83 9z m278 -188
c-3 -13 -1 -26 4 -27 5 -2 11 -21 14 -43 4 -28 3 -36 -4 -26 -6 8 -8 20 -5 28
3 9 0 11 -10 7 -9 -3 -18 -11 -20 -18 -9 -23 -119 -55 -222 -66 -55 -5 -116
-14 -135 -20 -37 -10 -120 -14 -120 -5 0 3 7 17 16 31 13 19 15 37 10 79 -3
32 -2 56 4 60 13 8 50 -13 50 -29 0 -24 44 -53 83 -54 20 -1 37 2 37 7 0 4 26
4 58 -1 64 -10 118 -3 139 18 8 8 28 14 44 14 20 0 29 5 29 16 0 9 -5 12 -12
8 -7 -4 -8 -3 -4 4 4 6 14 8 23 5 13 -5 15 -2 11 15 -4 12 -2 22 4 22 6 0 8
-11 6 -25z"/>
<path d="M516 1283 c-6 -14 -5 -15 5 -6 7 7 10 15 7 18 -3 3 -9 -2 -12 -12z"/>
<path d="M2733 393 c4 -3 10 -3 14 0 3 4 0 7 -7 7 -7 0 -10 -3 -7 -7z"/>
<path d="M1652 1311 c-23 -6 -22 -7 16 -29 22 -12 48 -22 58 -22 37 0 207 -62
193 -71 -7 -4 -18 -5 -24 -2 -5 3 -5 0 2 -7 16 -17 129 -28 119 -11 -4 6 -12
9 -17 6 -5 -4 -9 -1 -9 5 0 7 -7 9 -16 6 -11 -4 -15 -2 -11 8 9 23 -64 64
-145 82 -40 9 -85 23 -100 30 -29 15 -31 15 -66 5z"/>
<path d="M1780 1300 c14 -4 39 -8 55 -8 29 0 29 0 5 8 -14 4 -38 8 -55 8 -29
0 -29 0 -5 -8z"/>
<path d="M691 1273 c-12 -14 -21 -28 -22 -32 0 -3 -2 -17 -5 -30 -2 -13 2 -31
10 -40 8 -9 17 -29 20 -45 10 -55 65 -86 66 -38 1 9 7 2 16 -17 8 -19 17 -31
20 -28 3 3 1 15 -5 26 -9 16 -9 19 2 15 8 -3 17 1 20 9 9 25 0 52 -17 51 -22
-2 -20 17 5 66 12 23 19 44 15 47 -3 3 -13 -10 -21 -30 -18 -42 -24 -47 -18
-13 4 18 -1 25 -19 30 -17 4 -20 8 -10 14 10 7 7 13 -12 25 -24 16 -26 16 -45
-10z m73 -127 c-3 -15 -8 -25 -11 -23 -2 3 -1 17 3 31 3 15 8 25 11 23 2 -3 1
-17 -3 -31z m-47 -3 c-4 -3 -7 0 -7 7 0 7 3 10 7 7 3 -4 3 -10 0 -14z"/>
<path d="M990 1185 c0 -8 4 -15 10 -15 5 0 7 7 4 15 -4 8 -8 15 -10 15 -2 0
-4 -7 -4 -15z"/>
<path d="M830 1120 c0 -7 3 -10 7 -7 3 4 3 10 0 14 -4 3 -7 0 -7 -7z"/>
<path d="M880 1110 c0 -5 5 -10 10 -10 6 0 10 5 10 10 0 6 -4 10 -10 10 -5 0
-10 -4 -10 -10z"/>
<path d="M830 1091 c0 -6 4 -13 10 -16 6 -3 7 1 4 9 -7 18 -14 21 -14 7z"/>
<path d="M2380 965 c-14 -8 -20 -14 -15 -14 6 0 21 6 35 14 14 8 21 14 15 14
-5 0 -21 -6 -35 -14z"/>
<path d="M2300 913 l-25 -25 33 16 c18 9 30 21 27 26 -8 12 -5 14 -35 -17z"/>
<path d="M1908 913 c6 -2 18 -2 25 0 6 3 1 5 -13 5 -14 0 -19 -2 -12 -5z"/>
<path d="M2545 860 c-3 -6 1 -7 9 -4 18 7 21 14 7 14 -6 0 -13 -4 -16 -10z"/>
</g>
</svg>
