<?xml version="1.0" standalone="no"?>
<!DOCTYPE svg PUBLIC "-//W3C//DTD SVG 20010904//EN"
 "http://www.w3.org/TR/2001/REC-SVG-20010904/DTD/svg10.dtd">
<svg version="1.0" xmlns="http://www.w3.org/2000/svg"
 width="300.000000pt" height="200.000000pt" viewBox="0 0 300.000000 200.000000"
 preserveAspectRatio="xMidYMid meet">
<metadata>
Created by potrace 1.10, written by Peter Selinger 2001-2011
</metadata>
<g transform="translate(0.000000,200.000000) scale(0.050000,-0.050000)"
fill="#351c75" stroke="none">
<path d="M0 3898 c0 -62 7 -97 17 -83 16 27 12 163 -6 181 -6 6 -11 -38 -11
-98z"/>
<path d="M51 3965 c8 -19 16 -57 17 -84 1 -34 16 -53 48 -60 26 -6 62 -38 80
-70 19 -33 52 -75 74 -94 22 -18 34 -40 27 -47 -19 -18 -117 49 -117 80 0 14
-15 37 -34 53 -23 18 -29 19 -19 2 21 -35 -18 -31 -54 5 -17 17 -40 30 -52 30
-29 0 -27 -66 3 -96 15 -15 16 -24 3 -24 -13 0 -22 -65 -23 -167 l-3 -167 70
-38 c49 -26 75 -31 85 -16 8 12 41 36 74 53 l60 31 -65 37 c-71 41 -100 87
-54 87 49 0 33 35 -26 57 l-55 20 65 1 c36 1 65 13 65 26 0 18 6 18 22 2 13
-13 36 -18 51 -12 28 11 112 -65 201 -180 37 -47 50 -53 84 -35 26 14 44 14
52 1 19 -31 70 -24 70 11 0 16 -16 36 -35 43 -19 7 -39 18 -45 25 -26 29 -145
84 -166 76 -13 -5 -41 7 -62 28 -56 54 40 52 148 -3 90 -46 100 -48 100 -20 0
12 -25 32 -55 45 -67 30 -93 54 -111 101 -8 20 -21 33 -29 28 -8 -5 -33 -1
-55 8 -29 12 -18 15 40 11 44 -4 96 1 115 11 26 13 35 9 35 -14 0 -18 9 -27
20 -20 13 8 13 -5 0 -40 -26 -68 -26 -70 12 -70 20 0 28 11 21 29 -10 28 43
59 102 61 55 1 30 36 -55 77 -49 24 -90 54 -90 68 0 14 -7 25 -15 25 -8 0 -29
0 -47 0 -21 0 -28 -11 -21 -30 10 -26 4 -25 -38 2 -54 36 -64 53 -21 36 15 -6
34 -1 41 11 7 11 -1 21 -18 21 -37 0 -40 23 -6 57 20 20 19 28 -5 43 -18 11
-34 10 -41 -1 -13 -22 -74 -17 -116 9 -19 12 -18 0 5 -45 39 -75 41 -95 4 -65
-15 13 -40 21 -55 18 -18 -4 -27 13 -26 48 0 50 -2 52 -32 20 -18 -19 -29 -47
-23 -64 5 -17 -4 -13 -23 10 -17 22 -32 51 -32 65 -1 14 -20 25 -43 25 -33 0
-39 -8 -27 -35z m380 -166 c20 -32 -11 -64 -40 -40 -13 11 -29 16 -35 11 -5
-6 -9 2 -9 16 0 30 67 40 84 13z m-251 -419 c0 -22 -60 -43 -83 -28 -29 18 21
68 54 55 16 -6 29 -18 29 -27z"/>
<path d="M550 3944 c46 -45 56 -48 100 -24 85 45 62 80 -50 77 l-100 -2 50
-51z"/>
<path d="M854 3966 c7 -19 17 -24 20 -13 5 13 36 16 83 8 41 -8 97 -12 124
-10 27 2 56 -7 64 -19 8 -12 15 -13 15 -2 0 20 189 22 275 2 25 -5 45 -3 45 4
0 18 325 16 354 -2 13 -8 26 -4 30 9 8 23 26 24 236 10 61 -4 153 -1 205 7 58
9 95 6 95 -5 0 -11 12 -10 28 3 20 17 30 18 36 1 5 -16 47 -17 146 -3 80 11
143 11 147 1 3 -9 13 -13 22 -8 35 22 321 32 321 12 0 -19 146 -16 460 7 39 3
83 -4 99 -16 22 -17 25 -16 14 3 -9 14 -8 25 2 25 9 0 29 -11 44 -25 21 -20
24 -20 13 0 -10 16 0 25 27 25 22 0 41 -7 41 -16 0 -8 18 -15 40 -15 22 0 40
6 40 13 0 22 348 15 375 -7 17 -13 25 -13 25 1 0 11 32 20 71 20 40 0 77 5 84
12 6 7 -800 12 -1791 12 -1688 0 -1802 -2 -1790 -34z"/>
<path d="M5155 3986 c36 -5 94 -5 130 0 36 4 7 8 -65 8 -71 0 -101 -4 -65 -8z"/>
<path d="M5449 3982 c14 -22 309 -21 323 1 6 9 -67 17 -162 17 -96 0 -167 -8
-161 -18z"/>
<path d="M5869 3985 c33 -5 75 -27 95 -50 36 -41 36 -41 36 12 0 50 -5 53 -95
50 -67 -2 -77 -6 -36 -12z"/>
<path d="M5836 3590 c-5 -6 -68 -19 -138 -29 -70 -9 -218 -37 -328 -61 -216
-47 -528 -23 -671 51 -303 156 -927 -250 -713 -464 21 -21 16 26 -8 80 -16 35
-16 59 -1 86 21 35 23 35 35 -8 7 -25 20 -45 28 -45 21 0 45 -92 48 -180 1
-46 -6 -68 -23 -65 -28 6 -30 -26 -5 -85 17 -39 17 -39 19 3 3 105 51 83 51
-24 0 -85 9 -115 45 -149 29 -26 45 -32 45 -16 1 18 6 17 20 -4 11 -16 21 -21
22 -10 5 42 11 61 26 95 18 39 -18 209 -52 250 -15 18 -12 25 12 25 21 0 32
-17 32 -51 0 -28 9 -46 19 -40 11 7 14 27 7 45 -9 23 -5 28 14 16 20 -12 22
-3 10 42 -74 278 -83 376 -33 363 24 -6 39 -4 33 5 -5 8 3 26 19 39 22 18 30
14 41 -19 16 -51 9 -61 -49 -65 -38 -3 -43 -12 -33 -62 7 -32 12 -75 12 -96 0
-20 10 -35 22 -32 13 3 27 -6 32 -20 5 -14 0 -25 -12 -25 -12 0 -22 -10 -22
-21 0 -12 9 -16 20 -9 12 7 20 -15 20 -56 0 -37 6 -125 13 -193 12 -119 11
-125 -27 -113 -54 17 -99 -72 -55 -109 25 -20 29 -16 24 23 -3 32 5 48 25 48
24 0 31 -35 35 -176 2 -100 -3 -171 -13 -165 -10 6 -13 30 -7 53 10 39 7 40
-35 18 -42 -22 -43 -27 -13 -44 38 -21 44 -234 10 -301 -14 -26 -11 -31 11
-23 21 8 26 0 18 -30 -6 -23 -18 -42 -26 -42 -8 0 -20 -18 -26 -40 -6 -22 -2
-35 8 -29 23 14 23 -2 0 -46 -10 -19 -28 -73 -41 -119 -12 -46 -36 -98 -53
-115 -17 -17 -25 -40 -18 -51 7 -12 -2 -14 -22 -6 -30 11 -33 3 -22 -66 13
-77 -19 -208 -50 -208 -9 0 -16 20 -16 45 0 25 -9 59 -20 75 -22 34 -31 -60
-22 -233 6 -113 -29 -163 -50 -73 -8 31 -26 80 -40 109 -15 29 -45 136 -67
238 -43 198 -56 218 -130 204 -25 -5 -52 1 -60 13 -7 12 -31 22 -53 22 -22 0
-35 8 -29 18 12 20 -92 62 -157 62 -34 1 -36 4 -13 19 26 17 26 20 0 30 -17 7
-32 32 -34 56 -3 35 1 38 16 15 12 -20 24 -23 34 -9 10 14 37 13 85 -4 67 -24
67 -25 15 -26 -48 -1 -84 -41 -37 -41 10 0 33 -5 50 -12 21 -8 39 5 54 39 13
29 32 47 41 41 9 -6 17 22 17 62 0 88 30 150 73 150 26 0 27 6 8 29 -14 16
-19 49 -11 75 10 36 8 39 -8 16 -15 -20 -21 -22 -22 -5 0 14 -10 25 -22 25
-13 0 -17 -15 -9 -35 9 -24 7 -29 -7 -15 -29 29 -50 218 -23 201 12 -8 21 -40
21 -72 0 -33 10 -59 23 -59 15 0 18 30 9 95 -8 52 -14 113 -14 135 0 33 -3 34
-19 10 -14 -21 -17 -7 -12 48 5 52 24 91 56 117 26 21 38 34 27 28 -13 -6 -19
28 -17 89 1 54 -4 98 -12 98 -19 0 -160 -162 -164 -189 -2 -12 -7 -43 -11 -71
-18 -118 -24 -388 -7 -340 15 45 17 43 19 -26 2 -89 43 -145 79 -109 16 16 23
16 23 1 0 -12 -14 -27 -30 -33 -17 -7 -29 -19 -28 -27 7 -42 -4 -86 -21 -86
-11 0 -14 15 -7 32 9 26 3 30 -29 20 -31 -10 -40 -5 -38 22 2 23 -10 35 -32
33 -19 -1 -30 6 -24 15 6 10 24 18 40 18 35 0 39 39 4 42 -14 2 -31 2 -38 1
-7 -1 -24 12 -38 28 -20 25 -19 28 6 18 17 -6 37 -2 44 10 19 30 -75 27 -107
-4 -22 -20 -29 -20 -36 0 -13 35 -46 31 -46 -6 0 -17 -31 -44 -69 -60 -37 -15
-74 -38 -81 -49 -7 -11 -52 -20 -100 -20 -49 0 -90 -10 -95 -24 -5 -16 -63
-22 -189 -19 -180 5 -227 -10 -250 -78 -3 -11 -56 -24 -116 -29 -182 -13 -328
-34 -365 -53 -28 -15 -35 -10 -35 22 0 28 13 41 41 41 24 0 36 9 28 21 -7 12
-25 17 -39 12 -16 -6 -24 3 -21 23 5 27 25 33 93 31 49 -2 71 1 50 7 -30 8
-32 14 -10 28 22 14 21 17 -7 18 -19 0 -35 9 -35 20 0 11 15 20 32 20 25 0 28
6 11 26 -16 20 -15 35 2 55 14 16 17 22 7 14 -9 -7 -42 -1 -72 15 -55 28 -55
28 -68 -51 -11 -71 -18 -79 -71 -79 -32 0 -64 -9 -71 -20 -7 -12 11 -15 49 -7
49 10 61 5 61 -22 0 -18 -9 -28 -20 -21 -27 17 -100 -7 -100 -33 0 -11 -14
-34 -31 -51 -40 -40 -24 -55 29 -27 23 12 42 40 42 62 0 22 14 39 31 39 21 0
28 -12 22 -35 -34 -120 -34 -121 -79 -110 -24 6 -38 4 -30 -4 7 -9 -8 -39 -35
-68 -27 -29 -49 -74 -49 -99 0 -26 -8 -62 -18 -80 -12 -23 -9 -42 10 -60 23
-21 28 -20 28 3 0 16 18 33 40 39 22 6 40 7 40 2 0 -17 -81 -88 -100 -88 -21
0 -27 -26 -21 -88 3 -27 -5 -34 -27 -25 -18 6 -32 4 -32 -5 0 -26 87 -43 108
-22 11 11 8 30 -8 50 -30 36 -20 55 16 32 37 -22 10 -183 -28 -168 -16 5 -28
23 -28 38 0 15 -7 28 -16 28 -8 0 -15 -32 -15 -71 1 -58 8 -69 36 -62 19 5 35
2 35 -7 0 -24 -137 -35 -160 -12 -13 13 -20 12 -20 -3 0 -12 18 -28 40 -35 22
-7 41 -19 41 -26 1 -8 6 -34 10 -59 5 -25 1 -45 -9 -45 -11 0 -35 -6 -55 -14
-35 -13 -35 -12 -2 39 31 48 15 102 -20 67 -6 -7 0 -12 15 -12 19 0 17 -10 -7
-37 -22 -24 -29 -51 -20 -75 13 -35 11 -35 -24 -9 -22 16 -32 22 -24 12 8 -10
-1 -36 -20 -59 -34 -41 -34 -41 5 -9 22 17 55 29 74 26 19 -3 33 4 30 15 -2
12 8 25 23 31 21 7 23 -2 12 -38 -9 -26 -14 -76 -12 -112 2 -36 -4 -65 -15
-65 -10 0 -15 -16 -12 -35 4 -19 8 -42 8 -51 1 -9 11 -11 22 -4 11 7 20 2 20
-11 0 -13 -12 -19 -28 -13 -15 6 -37 1 -50 -12 -16 -16 -29 -15 -47 3 -14 14
-16 24 -5 22 43 -8 72 2 60 21 -7 12 -21 15 -31 9 -11 -6 -19 3 -19 21 0 18 8
27 19 21 11 -7 12 11 2 47 -11 37 -9 66 5 80 32 32 0 52 -36 22 -18 -15 -27
-39 -21 -55 6 -15 -3 -48 -19 -71 l-30 -43 0 47 c0 39 -5 43 -29 23 -16 -13
-24 -37 -18 -52 7 -18 -1 -29 -21 -29 -20 0 -32 17 -32 46 0 25 -11 57 -24 70
-19 19 -11 24 34 24 45 0 53 5 34 24 -36 36 -29 60 14 47 21 -7 44 -4 50 6 6
10 0 18 -13 18 -74 -3 -116 7 -105 26 7 11 28 18 47 15 27 -5 32 9 28 78 -3
46 4 89 15 96 25 15 27 104 2 119 -25 15 -42 91 -20 91 10 0 18 -13 18 -29 0
-42 38 -59 52 -22 7 17 1 46 -14 63 -37 45 -43 108 -10 108 42 0 59 65 23 91
-37 27 -20 51 24 34 23 -9 27 -4 14 17 -25 40 -28 76 -8 89 30 18 -3 69 -45
69 -34 0 -38 9 -26 55 30 120 30 127 -6 107 -24 -13 -34 -47 -35 -116 -3 -114
-37 -189 -79 -173 -17 6 -30 22 -30 36 0 45 -70 93 -96 67 -19 -19 -24 -14
-24 20 0 32 13 45 45 46 34 2 36 5 10 12 -19 5 -35 26 -35 47 0 52 28 49 66
-6 l30 -45 -5 51 c-4 46 1 50 52 43 64 -10 79 33 27 76 -48 40 -38 98 15 87
40 -9 42 -7 12 17 -18 15 -32 45 -32 67 1 75 -5 84 -60 84 -108 1 -127 5 -115
25 7 11 -9 20 -37 20 -66 0 -79 -46 -21 -74 27 -12 43 -14 37 -4 -6 9 2 12 19
6 16 -6 26 -22 21 -35 -5 -12 20 -43 56 -68 45 -31 54 -45 30 -45 -19 0 -35
-7 -35 -16 0 -20 -84 -16 -120 6 -17 10 -31 8 -35 -5 -4 -13 -23 -18 -41 -13
-22 7 -18 -1 11 -23 25 -19 45 -43 45 -54 0 -11 -12 -10 -29 4 -19 16 -40 18
-63 5 -32 -18 -31 -21 6 -41 22 -12 47 -16 54 -8 8 7 19 -7 25 -31 6 -24 24
-44 39 -44 16 0 28 -8 28 -19 0 -29 -43 -49 -57 -26 -7 11 -35 27 -63 35 -42
14 -46 11 -25 -14 14 -16 18 -36 10 -44 -7 -8 2 -8 21 -1 19 7 34 4 34 -7 0
-22 -67 -43 -137 -44 -36 0 -44 8 -34 33 7 19 22 75 33 125 47 211 78 278 125
268 42 -8 42 -8 -3 19 -25 15 -40 33 -33 39 13 14 25 66 27 123 2 29 12 35 47
25 126 -33 145 -36 115 -14 -16 12 -20 22 -7 22 12 0 36 -20 54 -45 27 -38 34
-41 51 -15 18 26 28 25 79 -5 75 -44 82 -44 69 5 -7 26 -29 41 -63 42 l-53 2
50 16 c28 9 38 17 23 18 -18 1 -24 17 -17 42 6 22 4 41 -3 43 -7 1 -32 4 -55
7 -91 10 -148 32 -148 58 0 18 18 24 55 18 l55 -9 -50 28 c-56 32 -80 27 -80
-16 0 -16 -13 -29 -30 -29 -16 0 -30 6 -30 14 0 12 44 148 53 163 2 3 27 -9
55 -28 28 -18 65 -28 80 -22 16 6 34 -3 40 -20 7 -16 22 -23 35 -15 14 9 18 5
10 -8 -8 -12 4 -31 25 -43 55 -30 83 -26 69 9 -6 17 -24 30 -39 30 -16 0 -22
12 -15 30 6 17 26 30 44 30 29 1 29 3 3 20 -16 11 -22 20 -11 20 10 0 2 13
-19 28 -32 23 -34 33 -13 59 27 32 16 73 -19 73 -11 0 -15 -8 -9 -18 6 -10 -7
-14 -29 -8 -22 6 -40 19 -40 30 0 10 11 12 25 4 14 -8 5 8 -20 35 -45 49 -42
77 6 77 14 0 23 -15 22 -33 -2 -18 10 -37 25 -42 18 -7 22 -2 12 16 -12 18 -5
22 24 15 38 -10 39 -8 11 48 -24 48 -38 56 -87 49 -47 -8 -58 -2 -58 29 0 36
4 37 70 9 38 -16 74 -21 80 -12 5 10 0 21 -13 25 -28 10 -41 76 -15 76 10 0
18 9 18 20 0 11 -13 20 -30 20 -16 0 -30 17 -30 39 0 21 -9 44 -20 51 -29 18
-103 -9 -89 -32 8 -12 -8 -14 -39 -7 -55 14 -68 -7 -28 -47 19 -19 12 -24 -31
-24 -32 0 -50 -9 -43 -20 7 -11 -6 -20 -28 -20 -57 0 -47 -78 12 -93 25 -6 46
-19 46 -29 0 -10 13 -18 28 -18 15 0 27 11 27 25 -3 70 6 102 24 84 44 -44
-57 -290 -117 -285 -71 5 -125 136 -57 136 30 0 35 -6 18 -26 -16 -19 -10 -32
21 -52 91 -57 73 75 -21 153 -36 29 -111 34 -93 6 6 -11 -6 -37 -28 -59 -24
-24 -31 -42 -17 -47 12 -4 1 -27 -25 -51 -30 -27 -37 -44 -20 -44 14 0 21 -5
15 -12 -7 -7 -24 -5 -38 4 -23 14 -67 17 -136 10 -12 -1 -13 -20 -3 -47 12
-31 30 -43 59 -39 29 5 43 -4 43 -27 0 -26 -11 -30 -55 -19 -114 29 -129 29
-118 1 6 -16 -7 -32 -33 -39 -37 -10 -39 -15 -14 -32 27 -18 14 -29 -26 -22
-10 2 -11 -6 -4 -18 8 -13 25 -14 50 0 58 31 84 24 71 -18 -11 -34 -2 -37 79
-33 65 4 89 -2 83 -19 -6 -16 7 -21 39 -15 29 6 48 0 48 -14 0 -13 9 -18 20
-11 11 7 34 4 52 -6 23 -13 26 -23 11 -32 -13 -8 -23 -32 -23 -53 0 -22 -9
-39 -20 -39 -11 0 -20 10 -20 21 0 44 -49 75 -75 48 -34 -37 -109 -13 -95 31
9 27 1 33 -40 29 -27 -3 -50 1 -50 8 0 8 -18 14 -40 14 -22 0 -40 -8 -40 -18
0 -10 -27 -13 -60 -6 -46 9 -71 2 -103 -30 l-43 -43 54 14 c36 9 64 3 84 -18
17 -17 57 -28 88 -26 31 2 70 -7 87 -22 17 -14 49 -20 72 -12 24 7 41 4 41 -9
0 -11 26 -21 57 -21 71 0 87 -16 62 -63 -27 -49 -59 -47 -59 3 0 22 -9 40 -20
40 -11 0 -20 -9 -20 -20 0 -12 -21 -15 -50 -8 -43 11 -48 7 -37 -25 24 -66 30
-70 58 -33 15 20 28 26 28 13 1 -12 18 -27 40 -32 91 -24 25 -100 -74 -85 -62
9 -85 6 -76 -8 7 -12 -1 -22 -18 -22 -43 0 -39 17 14 60 25 20 41 40 35 44
-99 70 -258 122 -229 74 10 -15 0 -18 -31 -8 -25 8 -40 6 -34 -4 6 -9 -12 -19
-39 -22 -28 -2 -59 -9 -69 -15 -24 -15 -2 -51 29 -46 25 4 131 -22 162 -39 10
-6 1 -18 -20 -26 -37 -15 -37 -16 6 -29 24 -7 39 -23 31 -35 -8 -14 0 -15 26
-4 78 34 202 36 215 2 11 -31 -44 -44 -149 -34 -17 2 -54 -5 -81 -15 -53 -21
-126 6 -106 38 6 11 2 19 -9 19 -11 0 -25 -9 -32 -20 -7 -11 -3 -20 9 -20 11
0 21 -10 21 -22 0 -13 -18 -18 -40 -12 -22 6 -45 3 -50 -6 -6 -9 -33 -14 -61
-11 -37 4 -46 0 -30 -16 33 -33 25 -59 -17 -48 -42 11 -98 -15 -78 -36 8 -7
40 -16 72 -18 31 -3 68 -11 81 -19 12 -8 48 -2 78 14 96 50 194 76 202 54 3
-11 26 -19 50 -18 33 2 35 5 8 12 -53 14 -42 46 15 46 28 0 50 -8 50 -18 0 -9
19 -22 42 -28 60 -16 37 -61 -38 -76 -81 -16 -125 -53 -110 -91 7 -18 1 -29
-16 -26 -53 7 -98 -1 -98 -18 0 -10 19 -17 43 -15 24 1 46 -9 49 -23 3 -15 0
-16 -5 -5 -8 15 -18 15 -36 1 -19 -16 -33 -13 -51 9 -28 34 -120 41 -120 9 0
-14 -33 -18 -88 -12 -59 7 -92 2 -98 -14 -12 -31 38 -102 54 -77 15 24 92 20
96 -6 4 -22 -54 -43 -170 -60 -41 -7 -70 -20 -64 -30 6 -9 1 -23 -10 -30 -11
-7 -16 -20 -10 -30 11 -18 -96 -103 -124 -98 -42 7 -66 -5 -66 -32 0 -16 13
-30 30 -30 17 0 30 -10 30 -21 0 -13 18 -16 45 -8 105 33 106 33 70 4 -19 -16
-28 -36 -20 -45 8 -8 -13 -11 -47 -7 -43 7 -61 1 -61 -18 0 -17 14 -24 36 -18
21 5 32 1 26 -9 -6 -10 -24 -18 -40 -18 -42 0 -36 -40 6 -42 22 -1 15 -9 -20
-21 -30 -11 -55 -33 -55 -49 0 -23 9 -25 40 -8 29 15 40 15 40 0 0 -46 69 18
91 83 17 50 37 69 80 77 31 6 53 18 48 27 -9 17 130 93 170 93 12 0 34 20 49
45 27 43 29 43 44 5 30 -79 -13 -129 -97 -113 -14 3 -20 -8 -13 -26 15 -37 18
-38 74 -8 67 36 93 81 71 122 -14 27 -11 35 13 35 18 0 27 9 20 20 -7 12 -23
15 -34 7 -14 -8 -16 -4 -7 12 11 18 22 18 37 3 12 -12 40 -22 63 -22 34 -1 36
-4 11 -20 -16 -11 -20 -20 -8 -20 13 0 18 -21 13 -50 -5 -27 -18 -50 -27 -50
-10 0 -17 -7 -16 -15 10 -59 -7 -147 -32 -172 -36 -37 -39 -61 -5 -41 20 11
20 8 0 -13 -14 -15 -25 -45 -25 -68 -1 -34 -4 -36 -20 -11 -14 22 -19 23 -20
4 0 -15 -9 -21 -20 -14 -11 7 -20 3 -20 -9 0 -11 10 -21 22 -21 17 0 16 -8 0
-28 -18 -22 -18 -30 1 -36 58 -20 -39 -236 -105 -236 -21 0 -38 -10 -38 -21 0
-12 9 -16 20 -9 11 7 20 2 20 -11 0 -16 -20 -20 -61 -12 -38 8 -56 5 -49 -7 7
-11 30 -20 51 -20 58 0 47 -32 -22 -60 -45 -19 -57 -34 -48 -63 13 -42 -39
-53 -63 -14 -10 17 -3 19 24 9 25 -10 31 -8 18 6 -12 12 -48 14 -93 3 -59 -13
-72 -11 -63 12 14 36 -47 14 -97 -36 -39 -39 -50 -117 -17 -117 11 0 18 11 15
25 -3 16 13 23 43 20 26 -3 69 8 94 25 26 16 51 30 56 30 14 0 8 -120 -6 -123
-7 -1 -43 -5 -80 -8 -62 -5 -114 -44 -90 -68 6 -5 19 3 29 20 10 16 19 20 19
8 0 -12 -11 -33 -25 -47 -21 -22 -11 -24 52 -13 111 20 180 54 149 74 -19 12
-13 25 24 51 48 35 59 39 116 44 15 1 20 12 13 24 -10 16 -3 16 24 2 32 -17
37 -13 37 36 0 48 -5 53 -37 36 -52 -27 -60 -9 -15 32 36 33 42 33 122 -8 46
-24 89 -38 95 -32 6 6 -5 17 -24 24 -27 11 -29 17 -8 30 18 12 3 18 -43 18
-38 0 -83 10 -100 21 -21 14 -3 17 64 9 72 -7 92 -4 85 16 -14 36 131 71 225
54 l76 -14 -60 -26 -60 -26 50 -13 c28 -8 55 -8 60 0 6 8 69 14 140 15 72 0
202 7 290 14 131 10 153 8 120 -12 -22 -14 -46 -33 -53 -43 -7 -12 -17 -10
-26 3 -7 12 -24 22 -37 22 -17 -1 -16 -5 2 -17 21 -13 20 -22 -5 -42 -17 -14
-31 -41 -32 -58 0 -18 -14 -2 -30 35 -16 37 -35 62 -42 56 -7 -7 -2 -25 10
-40 18 -22 12 -33 -28 -51 -68 -31 -74 -30 -128 21 l-47 43 14 -54 c12 -51 10
-53 -29 -33 -29 16 -49 17 -67 2 -19 -16 -25 -13 -25 8 0 17 13 30 29 30 24 0
24 5 3 31 -24 29 -28 28 -48 -6 -11 -20 -37 -33 -56 -29 -20 4 -30 15 -24 26
6 10 -3 18 -20 18 -18 0 -37 -12 -43 -27 -6 -17 -29 -23 -64 -17 -49 9 -51 7
-26 -24 16 -18 40 -29 54 -24 13 5 30 -4 36 -20 6 -17 3 -25 -6 -19 -10 6 -13
-8 -7 -32 7 -29 4 -39 -11 -30 -12 8 -31 -4 -43 -25 -27 -51 -27 -55 6 -55 17
0 24 15 19 41 -7 29 -4 34 9 16 13 -19 24 -12 41 25 13 28 37 51 54 51 39 0
39 -4 -18 -70 -52 -60 -51 -131 1 -88 31 27 18 -30 -19 -77 -13 -17 -10 -25
11 -25 39 0 65 121 31 143 -38 23 -7 41 79 45 73 4 78 1 71 -47 -6 -48 -5 -48
22 9 31 67 26 89 -24 91 -28 2 -27 5 6 19 62 27 95 23 83 -8 -6 -16 3 -34 20
-40 22 -9 27 -2 17 26 -6 21 -2 44 9 51 12 8 21 -1 21 -19 0 -24 11 -29 40
-20 24 8 52 0 71 -19 18 -17 50 -31 72 -31 21 0 34 -9 27 -20 -14 -22 12 -36
90 -47 27 -4 50 -15 51 -25 1 -66 44 -94 79 -54 22 26 49 37 75 30 28 -7 37
-3 27 13 -8 13 -2 23 14 23 34 0 59 74 32 91 -10 6 -18 25 -18 41 0 18 10 24
23 16 15 -9 18 -5 9 9 -8 13 -23 19 -32 13 -9 -6 -23 -1 -31 12 -10 16 -19 14
-31 -5 -25 -40 -22 -57 12 -57 17 0 30 -9 30 -20 0 -12 -19 -10 -49 3 -38 18
-57 17 -81 -3 -26 -22 -29 -20 -18 12 12 35 11 35 -21 -2 -19 -22 -28 -29 -21
-15 7 14 3 25 -9 25 -37 0 -23 33 45 107 38 41 86 73 110 73 24 0 44 10 44 21
0 43 -150 11 -151 -32 0 -22 -13 -36 -27 -33 -37 8 -83 -59 -70 -101 6 -19 1
-35 -11 -35 -11 0 -21 10 -21 22 0 12 -15 17 -32 10 -25 -10 -30 -3 -22 28 6
22 2 40 -9 40 -11 0 -14 9 -6 21 9 15 20 14 38 0 20 -17 29 -11 37 21 7 25 21
36 34 28 22 -14 83 49 69 71 -3 6 31 11 76 11 49 0 86 11 91 26 6 19 -19 24
-97 20 -113 -6 -159 28 -69 50 30 8 46 22 38 35 -9 15 17 18 84 9 54 -7 118
-13 143 -14 25 -1 39 -11 33 -21 -7 -11 -42 -17 -79 -14 -37 3 -72 1 -78 -5
-20 -21 287 -32 589 -22 223 7 995 -11 1016 -23 12 -8 26 -6 32 4 16 25 115
11 136 -21 15 -20 21 -21 29 -1 7 17 21 19 45 6 41 -22 122 -20 122 3 0 9 -14
16 -32 16 -20 0 -28 11 -21 29 6 17 3 35 -6 40 -10 6 -21 0 -26 -13 -8 -24
-302 -27 -340 -3 -10 6 -154 14 -321 19 -496 12 -930 37 -946 53 -25 26 7 40
89 39 70 -1 78 4 78 48 0 27 15 65 32 85 42 46 41 56 -5 68 -29 8 -42 -3 -52
-41 -9 -37 -17 -44 -29 -26 -12 20 -24 15 -48 -20 l-33 -47 0 45 c0 24 11 44
25 44 19 1 18 5 -2 18 -21 13 -23 48 -11 154 8 76 13 158 12 183 -2 25 5 45
16 45 10 0 14 26 7 58 -13 66 20 98 64 61 42 -35 36 0 -7 39 -46 41 -52 118
-9 126 29 5 28 10 -4 42 -20 20 -30 42 -23 49 7 7 23 2 36 -11 54 -54 75 -17
26 47 -95 125 -113 142 -100 94 7 -25 5 -45 -4 -45 -10 0 -19 23 -21 50 -5 54
62 74 82 25 6 -15 10 -11 11 10 1 19 11 35 21 35 11 0 15 -13 8 -30 -6 -16 -2
-30 8 -30 31 0 70 56 56 79 -8 12 -5 21 5 21 25 0 67 -51 53 -64 -6 -6 12 -6
39 -1 35 6 65 -6 102 -43 61 -62 66 -63 63 -17 -2 22 10 34 32 32 32 -2 44 17
37 60 -2 9 8 13 22 8 14 -5 23 -24 20 -42 -3 -18 6 -33 20 -33 19 -1 17 -6 -4
-20 -24 -16 -21 -19 15 -20 42 0 55 21 46 69 -2 11 16 2 41 -20 25 -21 39 -29
32 -16 -8 13 0 28 16 34 17 7 30 3 30 -8 0 -10 7 -18 15 -17 40 7 52 -5 25
-22 -23 -16 -19 -19 20 -15 41 4 51 -5 56 -51 4 -31 20 -61 35 -67 17 -7 30
-41 31 -84 2 -66 4 -68 18 -23 25 77 23 256 -3 297 -35 57 -7 133 50 138 42 4
47 -3 38 -40 -11 -40 -8 -42 21 -18 18 15 50 21 74 13 36 -11 40 -7 30 33 -8
33 4 65 39 105 50 57 60 50 52 -33 -2 -24 11 -35 40 -35 29 0 40 9 32 28 -6
16 3 34 20 40 42 16 47 15 47 -9 0 -36 -54 -79 -99 -79 -58 0 -51 -33 10 -45
33 -6 56 1 69 23 10 17 20 23 21 12 1 -11 5 -36 9 -56 5 -27 -2 -33 -32 -23
-28 9 -43 -1 -58 -41 -27 -72 -26 -75 22 -49 30 16 39 16 29 1 -8 -13 1 -22
19 -22 49 0 30 -88 -20 -96 -88 -14 -101 -29 -40 -46 37 -11 63 -10 67 2 3 11
14 20 24 20 10 0 13 -14 6 -30 -6 -16 -28 -30 -49 -30 -21 0 -37 -7 -36 -15 8
-47 -5 -68 -34 -57 -22 9 -29 4 -22 -15 6 -16 0 -39 -13 -52 -18 -18 -11 -19
27 -5 28 10 51 29 53 41 1 13 3 32 5 43 1 11 18 20 37 20 28 -1 29 -4 7 -18
-15 -10 -21 -28 -13 -40 7 -12 22 -17 32 -11 11 6 19 2 19 -10 0 -11 -9 -21
-20 -21 -11 0 -20 -16 -20 -35 1 -30 3 -31 20 -5 15 23 19 17 20 -28 0 -57 1
-57 40 -22 32 29 40 31 40 6 0 -16 23 -42 51 -57 l52 -27 -45 -17 c-30 -11
-50 -8 -60 8 -8 14 -43 27 -78 29 -34 3 -76 16 -92 29 -26 23 -99 37 -228 46
-31 2 -48 -7 -45 -22 3 -14 -14 -25 -37 -25 -34 0 -38 -6 -20 -28 18 -21 15
-29 -15 -37 -29 -8 -38 1 -38 38 0 26 12 47 28 47 51 0 27 35 -29 44 -47 7
-56 1 -53 -33 1 -23 -5 -46 -15 -53 -11 -7 -12 -39 -1 -79 l17 -66 42 46 c24
25 51 40 62 34 10 -7 43 10 73 37 29 28 66 50 81 50 37 0 64 -45 32 -56 -18
-6 -17 -14 4 -31 38 -31 5 -201 -36 -186 -15 6 -31 -2 -37 -17 -6 -15 0 -31
13 -35 40 -14 32 -115 -9 -115 -19 0 -40 8 -46 19 -19 30 -131 80 -131 58 0
-11 -8 -14 -18 -8 -10 6 -16 -11 -13 -39 3 -27 -2 -50 -10 -50 -34 0 -124 -42
-113 -52 6 -6 29 -1 52 11 27 14 42 15 42 2 0 -11 -21 -25 -46 -32 -54 -13
-66 -81 -18 -94 49 -12 84 4 84 38 0 16 9 24 20 17 11 -7 20 -3 20 9 0 11 -10
21 -22 21 -16 0 -15 9 2 30 13 16 20 42 14 57 -19 48 13 72 55 42 37 -27 37
-30 1 -69 -42 -46 -28 -55 17 -10 36 36 95 19 79 -23 -6 -16 -24 -25 -39 -19
-24 10 -38 -25 -29 -75 2 -10 -10 -13 -27 -6 -17 6 -31 3 -31 -8 0 -50 156
-20 169 34 10 42 18 48 37 27 19 -19 18 -27 -1 -34 -68 -25 -9 -42 125 -36 95
4 150 -1 150 -14 0 -14 30 -16 85 -7 47 8 136 15 199 16 70 1 110 9 102 21 -7
12 -2 14 14 4 14 -9 72 -16 128 -15 263 3 269 4 278 40 8 30 10 30 12 2 2 -30
59 -32 637 -24 349 5 721 9 825 9 290 0 279 -7 278 179 -1 118 -9 163 -33 183
-28 23 -30 20 -20 -20 8 -30 2 -50 -17 -57 -15 -6 -28 -20 -28 -31 0 -11 15
-15 32 -8 25 10 30 3 22 -28 -6 -22 -2 -40 8 -40 10 0 18 -8 18 -18 0 -10 -20
-14 -45 -9 -43 9 -42 8 5 -21 28 -17 38 -31 23 -31 -17 -1 -22 -13 -15 -33 9
-24 4 -29 -19 -20 -18 6 -38 12 -46 12 -7 0 1 9 17 20 26 17 25 19 -4 20 -37
0 -74 54 -65 95 3 15 1 17 -4 5 -13 -25 -61 -26 -76 -1 -7 11 12 32 41 47 44
23 48 30 19 41 -22 8 -28 5 -19 -10 9 -15 5 -18 -9 -9 -13 8 -19 22 -13 31 5
9 -15 33 -45 52 -54 35 -55 35 -20 -4 43 -49 44 -67 5 -67 -16 0 -44 23 -63
51 -24 38 -37 45 -49 26 -9 -15 -6 -32 8 -41 13 -9 17 -16 8 -16 -22 0 50 -72
86 -86 22 -8 19 -11 -10 -12 -22 -1 -52 -20 -65 -42 -37 -58 -65 -49 -65 20 0
33 -9 60 -20 60 -12 0 -30 21 -42 47 -33 73 -117 50 -107 -29 4 -33 12 -67 18
-77 6 -10 0 -21 -14 -26 -14 -5 -41 17 -60 48 -36 59 -64 71 -85 37 -22 -36
-94 -23 -85 15 4 19 20 32 35 29 22 -5 22 -1 -1 27 -35 43 -42 89 -12 89 32
-1 129 -79 98 -80 -14 0 -25 -10 -25 -22 0 -12 14 -17 31 -10 21 8 26 3 17
-13 -8 -15 -7 -18 4 -8 24 22 23 219 -2 238 -12 9 -10 15 6 15 26 0 32 -12 53
-105 14 -64 84 -77 105 -20 7 19 25 42 40 51 15 9 21 26 14 37 -8 14 2 17 28
8 22 -7 47 -3 54 9 7 11 20 16 30 10 9 -6 31 4 48 21 18 18 32 22 32 10 0 -11
16 -5 36 15 26 26 35 60 30 115 -5 61 -2 70 13 39 10 -22 19 -65 20 -95 0 -30
12 -55 25 -55 44 0 -34 -62 -82 -65 -62 -5 -101 -75 -42 -75 24 0 37 -9 30
-20 -27 -44 52 -92 82 -50 36 49 35 72 -2 57 -16 -6 -30 -2 -30 8 0 26 120 76
165 68 24 -4 35 8 35 35 0 57 -65 181 -95 182 -16 0 -25 30 -24 85 3 151 39
183 95 85 19 -33 23 -16 21 95 -2 150 -9 163 -40 74 -22 -61 -30 -63 -132 -24
-14 5 -25 -6 -25 -24 0 -33 -19 -32 -115 4 -14 5 -25 -1 -25 -13 0 -12 -18
-22 -40 -22 -22 0 -40 -9 -40 -20 0 -11 -35 -20 -77 -20 -81 0 -143 -46 -143
-107 0 -19 -16 -33 -39 -33 -21 0 -48 -16 -59 -35 -19 -33 -21 -32 -21 3 -1
45 -26 27 -34 -23 -3 -19 6 -41 19 -49 18 -11 17 -15 -3 -16 -23 0 -23 -6 -3
-30 20 -24 20 -36 0 -60 -21 -25 -21 -29 2 -20 21 8 28 -10 29 -69 1 -58 -5
-74 -22 -60 -13 11 -41 18 -61 16 -89 -8 -108 2 -108 61 0 31 -13 68 -29 81
-25 21 -28 15 -22 -37 5 -34 0 -62 -10 -62 -11 0 -19 -9 -19 -20 0 -11 12 -20
26 -20 15 0 44 -14 65 -30 33 -25 33 -28 4 -18 -27 10 -35 1 -35 -39 0 -63
-27 -82 -61 -42 -19 23 -20 36 -2 54 65 65 -38 76 -152 15 -60 -32 -66 -40
-30 -40 25 0 45 9 45 19 0 11 14 15 30 8 38 -14 39 -87 1 -87 -16 0 -34 9 -41
20 -21 34 -50 22 -50 -19 0 -25 -10 -36 -27 -29 -17 6 -23 29 -18 59 11 55 1
59 -60 26 -41 -22 -41 -23 -5 -50 39 -28 24 -36 -53 -28 -35 3 -39 -45 -8 -73
10 -9 10 -2 1 14 -13 25 -11 26 12 4 24 -22 24 -28 0 -43 -32 -20 -82 -6 -82
22 0 11 -9 14 -20 7 -12 -7 -20 13 -20 49 0 37 10 61 27 61 51 0 122 96 95
128 -14 16 -23 41 -21 56 8 60 -2 116 -22 116 -12 0 -18 -38 -15 -95 3 -52 -3
-97 -14 -100 -22 -6 -24 2 -27 108 -2 41 -10 67 -18 59 -20 -20 -20 -192 -1
-192 34 0 13 -32 -43 -63 -59 -34 -86 -18 -66 39 7 19 16 20 35 4 21 -18 25
-14 16 19 -6 22 -18 41 -27 41 -8 0 -13 16 -10 35 3 19 -4 60 -14 90 -14 40
-12 64 5 85 21 25 16 30 -33 29 -50 -2 -52 -4 -17 -19 22 -9 28 -18 14 -19
-15 0 -21 -10 -14 -21 17 -28 30 -226 13 -210 -7 7 -14 19 -15 27 -9 75 -35
122 -58 103 -19 -16 -27 -9 -34 25 -11 58 2 99 26 84 10 -6 18 21 18 60 0 39
7 70 15 69 58 -10 84 6 80 47 -4 36 5 44 50 46 82 2 95 26 72 135 -16 74 -15
103 6 129 19 23 20 28 2 18 -14 -9 -25 -6 -25 7 0 12 -9 17 -19 11 -11 -7 -14
-25 -8 -42 6 -16 1 -29 -11 -29 -24 0 -18 290 7 315 8 8 27 -3 43 -25 18 -24
21 -42 9 -46 -12 -4 -7 -21 10 -38 26 -26 36 -27 55 -6 19 20 18 23 -3 10 -21
-11 -24 -5 -14 27 9 27 5 43 -9 43 -12 0 -16 10 -8 23 10 16 21 13 39 -11 21
-29 26 -29 36 -3 6 16 3 35 -8 42 -10 6 -19 33 -19 59 0 26 -8 53 -19 59 -11
7 -11 34 2 70 15 43 13 72 -9 112 l-28 55 -22 -63 c-19 -55 -17 -63 12 -63 27
-1 29 -4 6 -18 -17 -11 -23 -35 -16 -61 9 -35 6 -39 -17 -20 -19 15 -25 52
-19 116 16 161 22 186 51 204 20 13 21 18 4 19 -14 0 -24 7 -23 15 7 40 -5 52
-24 25 -19 -27 -20 -27 -13 0 5 17 19 30 32 30 13 0 22 9 22 20 -1 11 -14 19
-30 17 -16 -1 -24 6 -18 15 6 10 1 18 -12 18 -17 0 -18 8 -3 25 11 14 23 47
27 73 8 55 57 83 57 33 0 -18 22 -40 50 -51 33 -12 45 -29 38 -49 -7 -17 -22
-25 -35 -18 -13 7 -7 -4 12 -24 52 -56 89 -12 57 67 -13 31 -22 66 -20 76 7
27 -24 88 -44 88 -10 0 -18 -13 -18 -30 0 -34 -31 -40 -49 -11 -7 11 8 42 32
70 27 31 50 43 57 30 8 -11 13 9 13 45 0 36 -3 55 -8 41 -5 -14 -17 -20 -27
-14 -10 6 -18 -3 -18 -20 0 -17 -9 -31 -20 -31 -11 0 -20 11 -20 25 -1 18 -6
17 -18 -3 -14 -22 -20 -20 -28 10 -6 24 -10 14 -12 -26 -1 -35 -10 -69 -21
-75 -24 -15 -48 62 -28 94 9 14 19 43 22 65 3 22 21 51 39 65 18 13 27 30 20
37 -15 16 -61 -29 -79 -77 -8 -19 -23 -35 -34 -35 -28 0 -26 27 3 56 18 18 16
30 -11 49 -46 34 -23 102 30 88 46 -12 52 57 7 82 -26 14 -26 22 -3 54 21 29
34 32 65 14 36 -21 36 -22 -6 -22 -32 -1 -41 -10 -33 -32 9 -22 18 -24 38 -8
38 31 72 -41 61 -130 -6 -46 -2 -67 12 -59 13 8 15 -2 7 -29 -11 -34 -5 -43
26 -43 55 0 76 41 36 70 -52 38 -52 119 1 126 37 6 42 -1 35 -45 -10 -53 24
-70 63 -31 14 14 34 7 63 -20 24 -22 47 -40 52 -40 20 0 -1 64 -26 79 -21 13
-20 18 2 27 19 8 20 11 2 12 -37 3 -30 36 10 46 40 10 115 -25 116 -54 0 -11
11 -42 24 -70 12 -27 34 -90 49 -140 15 -49 37 -88 48 -86 11 2 18 -23 16 -55
-5 -72 7 -75 32 -9 18 47 60 70 60 33 0 -10 24 -13 53 -7 45 8 50 5 32 -26
-11 -20 -16 -51 -11 -70 5 -20 -5 -40 -24 -47 -22 -9 -30 -4 -25 12 9 28 -31
75 -64 75 -11 0 -21 -9 -21 -20 0 -11 -13 -20 -30 -20 -16 0 -30 -16 -30 -35
0 -21 6 -26 15 -14 21 30 85 52 85 29 0 -10 25 -48 57 -84 70 -82 96 -140 108
-246 5 -41 31 -69 62 -70 10 0 9 11 -2 25 -20 25 -67 199 -57 209 3 3 47 -34
97 -83 124 -118 483 -264 426 -173 -7 12 -5 22 6 22 11 0 23 -8 26 -17 4 -10
27 -24 52 -32 50 -15 70 77 20 95 -19 7 -19 15 -2 34 21 22 -37 109 -73 110
-39 1 -60 36 -39 62 17 20 18 28 1 28 -12 0 -21 7 -20 15 10 63 -6 125 -33
125 -16 0 -38 20 -48 45 -10 25 -19 36 -20 25 -2 -11 -15 2 -30 29 -27 49 -27
48 -27 -28 0 -77 52 -149 109 -150 15 -1 22 -36 18 -101 -3 -62 4 -101 17
-101 104 -8 155 -33 115 -57 -15 -9 -26 -22 -25 -29 3 -18 -2 -18 -43 -2 -19
7 -29 22 -22 33 8 13 -12 15 -55 6 -105 -22 -108 -22 -102 7 4 18 -6 24 -26
16 -36 -14 -129 28 -169 76 -36 43 29 43 73 0 17 -17 43 -27 57 -21 15 5 31
-1 36 -14 8 -18 10 -18 11 0 1 14 16 20 32 13 17 -6 30 -1 30 11 0 12 -8 22
-19 22 -10 0 -34 16 -53 35 -34 33 -35 33 -23 0 8 -19 5 -35 -6 -35 -10 0 -19
10 -19 22 0 12 -13 17 -30 11 -16 -7 -30 -4 -30 5 0 25 -66 16 -97 -13 -14
-14 -35 -20 -47 -13 -13 9 -12 18 5 28 17 11 12 20 -18 29 -24 8 -43 27 -43
44 0 16 -8 24 -18 18 -9 -6 -22 7 -28 29 -6 22 -2 45 8 51 11 7 17 0 13 -15
-3 -15 9 -24 29 -20 21 3 35 -11 40 -40 5 -38 18 -46 79 -46 41 0 80 -7 89
-15 26 -27 39 -16 43 35 3 28 -5 50 -16 50 -12 0 -16 -8 -11 -17 6 -10 -12
-18 -40 -18 -46 0 -51 7 -43 59 8 57 6 59 -50 48 -60 -12 -133 44 -134 103 -1
24 -12 29 -86 33 -19 1 -34 11 -34 22 1 11 25 18 55 15 80 -7 127 17 64 34
-40 10 -88 98 -56 102 3 0 40 5 81 11 63 9 73 6 63 -20 -7 -18 -2 -32 11 -32
13 0 18 -8 12 -18 -6 -9 3 -29 20 -43 17 -14 28 -40 25 -59 -3 -19 1 -35 9
-37 48 -10 53 3 26 67 -16 39 -21 70 -11 70 26 0 -21 125 -60 160 -42 38 -31
94 12 58 15 -12 28 -34 28 -47 0 -35 79 -114 101 -100 11 6 19 1 19 -12 0 -18
7 -18 28 0 23 18 33 16 49 -13 20 -35 22 -35 57 0 35 35 35 36 -4 21 -34 -12
-36 -10 -15 16 22 27 14 29 -61 18 -60 -10 -94 -5 -111 13 -27 29 -12 74 18
55 11 -6 19 -2 19 10 0 11 9 21 20 21 29 0 25 -55 -5 -67 -14 -5 -5 -11 19
-11 33 -2 42 6 32 30 -10 26 -3 30 31 19 29 -9 43 -5 43 13 0 19 -31 26 -109
25 -70 0 -113 8 -119 24 -10 26 64 24 133 -4 20 -7 48 -3 64 10 21 18 39 18
70 2 30 -16 41 -16 41 0 0 55 66 4 73 -56 6 -63 -5 -74 -66 -67 -26 3 -13 -72
15 -89 10 -6 12 3 6 20 -20 51 54 65 87 16 16 -24 41 -38 57 -32 32 13 37 59
8 77 -11 7 -14 -2 -7 -22 9 -23 5 -31 -15 -24 -15 5 -28 19 -28 31 0 12 -7 28
-15 37 -27 27 -16 53 13 29 23 -19 28 -16 24 12 -3 19 -16 38 -29 43 -13 4
-23 16 -23 26 0 10 23 4 50 -14 56 -36 73 -1 25 51 -20 21 -20 28 0 35 14 5
25 31 25 58 0 46 -126 75 -164 38z m-1149 -116 c33 -26 54 -60 50 -80 -6 -29
-20 -23 -82 33 -41 36 -69 72 -62 80 21 20 33 16 94 -33z m-522 -141 c6 -24
16 -57 23 -75 9 -21 3 -31 -18 -31 -17 0 -36 20 -42 46 -7 25 -24 56 -40 68
-36 31 -18 58 30 45 21 -5 42 -29 47 -53z m1188 -26 c0 -15 -7 -27 -16 -27 -9
0 -17 14 -17 30 0 17 -10 30 -22 30 -12 0 -17 -13 -11 -28 6 -18 -13 -40 -53
-59 -50 -24 -57 -33 -30 -43 18 -7 38 -26 44 -43 6 -16 3 -24 -7 -18 -10 7
-24 3 -31 -9 -7 -11 -21 -20 -32 -20 -11 0 -15 8 -9 19 6 10 3 23 -7 30 -21
13 -19 48 5 86 9 14 6 25 -6 25 -11 0 -21 12 -21 28 0 16 21 27 52 27 28 0 60
9 72 21 26 26 89 -8 89 -49z m-4006 -336 c6 -17 2 -35 -9 -42 -30 -19 -78 6
-78 40 0 39 72 41 87 2z m-307 -86 c0 -14 -12 -25 -27 -25 -23 0 -30 48 -15
100 5 17 41 -49 42 -75z m127 -13 c18 7 33 2 33 -10 0 -12 -22 -22 -50 -22
-27 0 -50 11 -50 25 -1 17 -7 15 -20 -5 -11 -16 -20 -20 -20 -8 0 35 25 49 51
27 13 -11 39 -14 56 -7z m123 8 c7 -11 34 -20 60 -20 26 0 53 -9 60 -21 9 -13
-14 -17 -63 -11 -43 5 -88 10 -101 11 -14 0 -20 15 -13 31 13 35 39 39 57 10z
m-330 -62 c0 -13 18 -18 42 -12 64 17 170 -104 119 -135 -26 -17 -121 9 -121
32 0 11 8 14 19 8 10 -6 24 -3 30 7 6 11 3 25 -7 31 -11 6 -25 2 -32 -9 -8
-13 -26 -13 -53 2 -36 19 -39 17 -28 -20 15 -45 -16 -56 -66 -24 -22 14 -19
29 18 80 48 63 79 79 79 40z m206 -284 c-7 -13 2 -11 21 4 34 28 98 0 69 -29
-30 -30 -140 -27 -128 3 7 17 12 40 12 51 0 11 9 14 20 7 12 -7 14 -23 6 -36z
m-433 -258 c24 -24 25 -35 6 -47 -16 -9 -20 -7 -12 7 8 11 5 27 -5 33 -11 6
-25 3 -32 -8 -7 -13 -25 -12 -50 3 -20 13 -34 30 -30 37 15 22 90 7 123 -25z
m2757 -213 c-6 -6 9 -22 34 -36 43 -24 43 -26 6 -26 -54 0 -116 50 -124 99 -6
39 -4 39 45 8 27 -19 45 -38 39 -45z m-2550 28 c0 -74 -42 -110 -91 -79 -53
35 -47 57 21 74 59 14 70 15 70 5z m361 -24 c14 -14 11 -29 -10 -46 -25 -21
-33 -20 -42 5 -17 45 -67 19 -54 -27 5 -22 0 -39 -13 -39 -28 0 -29 73 -2 90
12 7 17 19 12 27 -14 22 87 12 109 -10z m3180 -300 c8 -78 -2 -103 -36 -98
-19 3 -42 -5 -50 -17 -10 -15 -14 -13 -15 5 0 15 18 31 40 37 22 6 35 18 29
27 -6 10 -23 12 -40 6 -38 -15 -37 22 1 60 19 19 23 35 10 43 -11 7 -20 21
-20 31 0 33 77 -57 81 -94z m-3441 -30 c0 -11 -18 -14 -40 -7 -22 7 -41 5 -42
-4 -9 -91 -7 -126 8 -126 9 0 11 -9 3 -21 -7 -11 -2 -34 12 -50 29 -35 -2 -39
-42 -4 -15 14 -9 3 15 -25 38 -45 39 -53 11 -78 -26 -25 -34 -24 -54 4 -19 26
-30 28 -50 8 -21 -19 -24 -14 -13 26 8 28 17 64 21 80 4 17 17 55 29 85 11 30
15 55 9 55 -7 0 12 23 41 50 52 48 92 51 92 7z m900 -27 c0 -38 -9 -70 -20
-70 -22 0 -27 60 -8 108 19 50 28 38 28 -38z m1571 41 c38 -37 37 -58 -2 -43
-24 9 -30 1 -25 -33 7 -54 156 -104 171 -59 11 33 65 -8 65 -49 0 -16 14 -33
30 -40 17 -6 30 -27 30 -47 0 -19 14 -46 30 -60 17 -14 29 -35 28 -47 -1 -17
-4 -17 -10 0 -7 15 -33 17 -82 6 -39 -9 -93 -8 -118 2 -26 10 -59 13 -74 8
-16 -6 -25 6 -25 32 0 35 9 40 53 32 50 -10 52 -8 31 38 -13 27 -32 49 -43 50
-11 1 -2 10 20 19 34 15 30 17 -23 19 -114 2 -185 103 -107 151 12 7 15 21 9
31 -18 29 10 22 42 -10z m-2371 -42 c0 -40 20 -36 74 14 27 26 46 34 46 19 0
-57 65 -99 104 -67 26 22 29 18 21 -25 -5 -27 -18 -50 -28 -50 -10 0 -16 -16
-13 -35 4 -24 -5 -33 -29 -29 -19 3 -35 -4 -35 -15 0 -40 -4 -51 -24 -76 -14
-17 -14 -25 0 -25 11 0 16 -18 10 -40 -6 -22 -19 -40 -28 -40 -37 0 -16 -52
32 -81 48 -29 48 -31 10 -54 -31 -20 -37 -19 -28 3 6 17 -8 32 -36 39 -68 17
-132 129 -72 125 23 -1 46 12 51 28 6 21 3 23 -9 6 -11 -15 -28 -17 -46 -6
-24 15 -24 20 5 31 27 10 29 18 9 40 -80 90 -96 129 -53 129 12 0 16 -9 9 -20
-11 -18 15 -29 55 -22 8 1 15 -11 15 -28 0 -16 14 -30 30 -30 39 0 38 4 -13
90 -26 44 -53 68 -70 62 -19 -8 -27 7 -27 50 0 35 8 55 20 48 11 -7 20 -25 20
-41z m2520 -24 c-2 -64 -96 -86 -116 -27 -5 15 -1 22 9 16 11 -6 32 -3 48 7
35 22 59 24 59 4z m-2860 -51 c0 -23 -66 -194 -75 -194 -6 0 -21 14 -33 31
-21 28 -30 28 -97 0 -87 -36 -96 -17 -34 71 26 36 60 58 89 58 26 0 53 9 60
20 11 18 90 30 90 14z m4912 -78 c23 -44 26 -67 11 -72 -14 -4 -18 -27 -11
-56 8 -31 4 -48 -13 -48 -13 0 -37 -16 -51 -35 -25 -32 -27 -32 -27 -1 -1 18
7 39 18 45 10 6 13 61 7 121 -13 127 14 146 66 46z m-2212 -7 c38 -8 80 -37
80 -55 0 -15 -8 -14 -24 2 -13 13 -45 24 -70 24 -28 0 -46 12 -46 31 0 20 9
26 25 15 14 -8 30 -16 35 -17z m-2409 -58 c40 -39 38 -44 -31 -78 -33 -16 -60
-24 -60 -16 1 20 39 76 40 57 0 -9 9 -11 21 -3 14 8 14 21 -2 41 -31 37 -5 36
32 -1z m-651 -21 c20 -24 20 -36 0 -60 -27 -32 -70 -42 -51 -12 6 10 -7 14
-29 8 -22 -6 -46 -19 -51 -28 -6 -10 -23 -18 -38 -18 -50 0 -8 81 57 109 81
36 83 36 112 1z m5128 18 c26 -10 26 -16 5 -38 -31 -30 -101 -46 -108 -25 -22
66 23 94 103 63z m-248 -55 c0 -14 14 -43 32 -64 26 -32 29 -33 21 -5 -6 19
-3 40 8 47 10 6 20 -3 22 -20 1 -17 4 -40 7 -51 3 -11 6 -29 8 -40 1 -11 18
-20 37 -20 27 -1 29 -5 8 -18 -14 -9 -26 -22 -25 -29 1 -7 2 -24 1 -38 -1 -38
-59 47 -59 87 0 24 -12 31 -37 25 -27 -7 -41 3 -50 36 -19 72 -15 141 7 127
11 -7 20 -24 20 -37z m-3336 -48 c-7 -36 -15 -41 -36 -23 -39 32 -35 69 8 69
28 0 35 -11 28 -46z m3961 -90 c-16 -33 -43 -12 -55 45 -19 89 12 119 39 38
13 -37 20 -75 16 -83z m-5034 43 c6 -10 1 -18 -11 -18 -12 0 -17 -9 -10 -20 7
-12 21 -15 31 -9 11 6 19 3 19 -8 0 -10 -27 -22 -59 -27 -32 -5 -55 -2 -50 6
5 8 0 18 -10 21 -11 4 -15 26 -9 50 11 42 74 45 99 5z m1060 -91 c2 -63 -1
-68 -22 -39 -19 26 -27 28 -34 8 -7 -21 -4 111 3 143 8 36 51 -54 53 -112z
m1749 44 c0 -27 -9 -54 -20 -61 -11 -7 -20 -28 -20 -46 1 -26 5 -28 17 -8 11
17 35 22 72 13 36 -10 46 -20 30 -29 -13 -9 -18 -26 -10 -38 8 -13 -2 -23 -23
-24 -34 -3 -34 -3 1 -12 31 -8 28 -17 -28 -67 -41 -36 -60 -68 -52 -88 10 -27
6 -28 -32 -8 -41 21 -42 20 -18 -10 25 -29 23 -33 -17 -33 -35 0 -42 9 -34 40
7 27 0 40 -20 40 -40 0 -22 45 29 71 37 18 38 24 11 41 -26 16 -28 28 -8 64
13 25 31 41 40 35 9 -5 12 12 7 39 -5 27 -19 44 -30 37 -11 -7 -16 0 -10 15 5
15 20 26 33 23 13 -3 28 8 35 25 18 47 47 35 47 -19z m129 -17 c10 9 11 5 4
-8 -18 -31 -89 -25 -102 9 -6 15 -2 22 9 15 11 -7 20 4 21 24 0 30 5 28 26
-10 14 -25 33 -38 42 -30z m415 -34 c12 0 9 -15 -7 -34 -15 -18 -17 -28 -4
-20 13 8 27 -3 33 -26 6 -22 4 -40 -3 -40 -42 1 -68 47 -75 133 -7 86 -6 91
14 42 12 -30 31 -55 42 -55z m-3177 26 c14 5 26 -8 28 -30 2 -25 -7 -36 -23
-30 -14 6 -25 -2 -25 -18 0 -15 12 -28 26 -28 15 0 27 8 27 19 0 21 78 50 94
34 6 -6 -4 -26 -22 -44 -18 -18 -26 -42 -19 -54 8 -14 22 -9 37 12 33 44 50
42 50 -7 0 -22 -12 -40 -28 -40 -15 0 -32 -20 -39 -45 -11 -43 -10 -44 18 -6
16 21 29 30 29 20 0 -19 -43 -185 -67 -261 -13 -40 -8 -42 132 -39 179 5 287
-35 224 -83 -27 -21 -68 -26 -135 -19 -125 15 -169 -1 -120 -40 32 -26 26 -27
-54 -14 -49 8 -123 13 -164 10 -40 -2 -79 6 -87 18 -7 12 -37 31 -66 43 l-53
22 50 15 50 15 -55 2 c-89 3 -63 36 30 37 47 1 97 4 113 8 15 4 31 -4 36 -18
6 -17 -12 -25 -56 -25 -77 0 -66 -17 25 -39 37 -9 85 -24 106 -32 37 -15 37
-13 -4 44 l-43 60 49 97 c27 53 49 105 49 115 0 30 -50 4 -52 -27 -2 -47 -53
-137 -70 -127 -9 6 -12 26 -6 45 6 19 -3 12 -20 -16 -20 -33 -31 -40 -33 -20
-1 21 -5 22 -12 5 -6 -14 -17 -25 -26 -25 -26 0 3 109 33 127 22 12 23 23 5
44 -33 40 -4 71 54 56 47 -11 49 -10 24 30 -15 24 -33 43 -42 43 -8 0 -16 29
-17 65 -2 36 -7 49 -12 30 -5 -19 -18 -35 -29 -35 -10 0 -14 8 -8 18 6 10 1
22 -12 26 -13 5 -17 25 -8 52 11 37 20 41 54 22 22 -11 51 -17 64 -12z m762
-5 c6 -10 2 -24 -10 -31 -14 -10 -15 -21 0 -39 15 -17 14 -74 -2 -186 -26
-186 -37 -211 -83 -194 -19 7 -28 23 -21 35 8 11 16 49 18 82 2 34 16 103 30
152 14 50 23 115 21 145 -5 53 23 75 47 36z m-987 -71 c0 -11 -19 -23 -41 -26
-31 -5 -38 1 -28 26 13 34 69 34 69 0z m2503 -55 c-4 -38 3 -50 29 -48 19 2
38 -13 42 -33 4 -21 -3 -33 -19 -30 -15 4 -27 -7 -27 -24 0 -16 12 -28 26 -25
17 4 24 -16 21 -61 -3 -36 2 -76 10 -90 9 -14 5 -24 -11 -24 -19 -1 -18 -6 4
-22 27 -19 27 -20 0 -13 -16 5 -30 27 -31 51 0 23 -8 49 -18 58 -10 9 -11 5
-4 -8 8 -14 -5 -34 -31 -48 -42 -23 -44 -22 -18 10 20 24 22 40 7 55 -12 12
-17 33 -12 47 14 36 -34 61 -54 29 -12 -20 -27 -21 -62 -4 -39 18 -40 23 -11
24 81 3 114 101 62 184 -10 16 -1 20 29 12 27 -7 38 -4 30 9 -7 12 -1 17 15
11 16 -5 26 -31 23 -60z m-2529 -20 c37 -44 2 -249 -37 -224 -10 6 -15 -30
-11 -80 l6 -91 -67 0 c-37 0 -67 9 -67 20 0 11 16 20 35 20 30 1 31 3 5 20
-26 17 -26 26 4 80 19 33 26 60 17 60 -10 0 -7 27 5 60 16 43 36 60 70 60 25
0 41 8 35 18 -6 10 -29 14 -51 8 -43 -11 -47 -6 -28 42 15 39 55 41 84 7z
m1114 -140 c-8 -69 -19 -132 -24 -140 -15 -26 -49 7 -38 37 6 15 3 28 -7 28
-24 0 0 167 27 185 47 31 55 10 42 -110z m2350 103 c0 -10 -18 -18 -40 -18
-27 0 -40 -13 -40 -41 0 -23 9 -36 20 -29 11 7 20 3 20 -9 0 -11 -11 -22 -25
-23 -19 -1 -19 -4 1 -12 20 -7 17 -17 -10 -37 -47 -36 -97 -38 -73 -3 9 14 1
9 -18 -12 -25 -28 -35 -31 -35 -10 0 15 11 39 24 52 17 17 18 24 1 24 -25 0
-27 78 -2 111 19 26 177 32 177 7z m706 -47 c37 -28 27 -45 -26 -42 -30 1 -40
14 -40 51 0 27 23 24 66 -9z m-1006 -12 c0 -12 -9 -16 -20 -9 -11 7 -20 -1
-20 -17 0 -34 -68 -63 -101 -42 -33 20 39 89 94 89 26 0 47 -10 47 -21z
m-3046 -59 c4 -26 1 -42 -6 -35 -7 7 -30 -7 -51 -31 -21 -25 -33 -31 -29 -14
5 17 14 55 21 86 15 67 54 63 65 -6z m333 -18 c9 -61 7 -65 -20 -37 -20 20
-26 46 -17 74 17 55 24 49 37 -37z m2533 35 c0 -11 -11 -13 -25 -5 -20 11 -20
8 0 -13 38 -41 30 -69 -10 -35 -19 17 -46 27 -60 22 -14 -5 -25 0 -25 12 0 12
14 22 30 22 17 0 30 9 30 19 0 11 14 15 30 8 17 -6 30 -20 30 -30z m260 35 c0
-31 -27 -70 -42 -61 -31 20 -19 -36 16 -75 31 -34 31 -37 1 -25 -65 25 -68
169 -4 169 16 0 29 -4 29 -8z m-546 -97 c32 -44 32 -148 -1 -148 -33 0 -57
108 -28 126 11 7 7 20 -8 29 -16 10 -18 18 -4 18 12 0 30 -11 41 -25z m926
-83 c0 -15 -13 -38 -30 -52 -31 -26 -47 36 -17 67 23 22 47 15 47 -15z m-2545
-117 c-13 -38 -75 -43 -75 -6 0 18 17 31 42 31 24 0 38 -10 33 -25z m-1115
-39 c0 -9 -22 -16 -49 -16 -27 0 -55 -10 -62 -22 -10 -15 0 -18 28 -9 26 8 43
5 43 -8 0 -11 -13 -21 -28 -21 -16 0 -43 -5 -60 -12 -32 -12 -49 69 -21 97 18
17 149 9 149 -9z m860 -492 c6 -5 -16 -4 -47 4 -40 10 -52 7 -42 -9 9 -15 1
-20 -22 -16 -49 10 -59 52 -15 62 32 7 100 -14 126 -41z"/>
<path d="M0 3202 c0 -78 3 -82 60 -82 63 0 81 28 30 47 -16 7 -30 24 -30 40 0
15 -13 39 -30 53 -26 21 -30 13 -30 -58z"/>
<path d="M170 3220 c-16 -26 40 -48 81 -32 40 15 18 52 -31 52 -21 0 -43 -9
-50 -20z"/>
<path d="M4854 3194 c-5 -14 8 -46 28 -72 l38 -46 -4 50 c-3 35 -13 46 -35 38
-27 -10 -27 -7 -4 22 16 19 19 34 8 34 -12 0 -25 -12 -31 -26z"/>
<path d="M3844 3176 c-27 -27 -31 -78 -9 -107 8 -11 1 -4 -17 14 -34 36 -82
15 -68 -30 4 -13 13 -50 20 -82 10 -45 17 -52 31 -30 14 23 18 19 19 -16 0
-25 -10 -45 -22 -45 -13 0 -17 -22 -9 -55 6 -30 13 -113 14 -185 2 -71 10
-150 19 -174 10 -28 8 -47 -8 -53 -16 -7 -17 -16 -4 -26 24 -20 34 -53 45
-152 5 -41 17 -70 26 -64 10 6 12 23 6 40 -6 16 -3 29 8 29 20 0 71 -122 97
-228 10 -41 7 -54 -9 -44 -13 8 -23 39 -23 70 0 30 -6 61 -13 68 -14 15 -66
-44 -66 -76 0 -11 9 -6 20 10 14 21 16 4 6 -57 -11 -77 -9 -85 25 -80 28 5 38
-5 36 -38 -2 -70 82 15 88 88 6 74 44 112 44 44 0 -28 10 -80 22 -114 16 -46
16 -71 0 -90 -16 -19 -15 -26 5 -26 35 0 87 172 57 190 -12 8 -31 39 -43 70
-11 30 -29 50 -39 44 -24 -15 -73 95 -104 238 -20 91 -21 120 -2 126 13 5 24
18 24 30 0 12 -16 6 -37 -12 -36 -33 -63 -26 -63 15 0 12 9 9 20 -8 17 -26 19
-25 20 5 0 19 9 35 20 35 22 0 27 177 7 232 -13 33 -15 32 -29 -3 -13 -34 -16
-33 -18 11 -7 109 -32 188 -56 173 -8 -6 -12 20 -8 58 5 37 19 66 31 63 22 -4
24 7 16 116 -3 53 -40 65 -79 26z m31 -350 c33 -72 32 -122 -5 -159 -26 -26
-30 -26 -30 0 0 16 -5 44 -12 61 -8 22 -1 32 25 33 35 0 35 1 2 21 -19 11 -35
38 -35 59 0 55 26 48 55 -15z m67 -191 c5 -48 -6 -105 -22 -122 -9 -10 -15 20
-13 65 3 74 30 118 35 57z"/>
<path d="M4027 3092 c2 -39 11 -77 19 -85 9 -9 14 19 11 60 -3 42 -12 80 -20
85 -8 5 -13 -22 -10 -60z"/>
<path d="M5724 3119 c4 -12 14 -21 22 -20 7 0 34 1 59 1 36 1 39 4 15 20 -41
26 -105 25 -96 -1z"/>
<path d="M5980 3119 c0 -12 -7 -17 -16 -12 -9 6 -18 -16 -20 -48 -3 -41 4 -59
26 -59 21 0 30 21 30 70 0 39 -4 70 -10 70 -5 0 -10 -10 -10 -21z"/>
<path d="M4760 3102 c0 -12 -13 -22 -30 -22 -33 0 -41 -31 -12 -49 10 -6 22
-1 26 12 14 40 50 2 65 -68 8 -36 19 -55 23 -44 15 36 -22 176 -48 184 -13 5
-24 -1 -24 -13z"/>
<path d="M0 3048 c0 -46 18 -57 77 -49 15 2 21 -6 14 -18 -17 -27 40 -27 91 0
52 28 28 62 -33 47 -37 -9 -49 -4 -49 20 0 18 -7 33 -15 34 -8 0 -31 4 -50 8
-26 5 -35 -7 -35 -42z"/>
<path d="M4925 2987 c-14 -6 -25 -24 -25 -40 0 -16 10 -23 22 -16 15 10 18 0
8 -29 -7 -25 -3 -56 10 -72 13 -16 17 -39 9 -52 -9 -15 -7 -19 6 -11 12 7 26
2 31 -12 5 -14 7 24 3 84 -3 61 -16 113 -28 117 -11 4 -16 16 -10 26 12 20 11
20 -26 5z"/>
<path d="M4326 2931 c-13 -14 -18 -46 -12 -69 17 -66 42 -49 40 28 -1 39 -2
70 -3 69 -1 0 -12 -13 -25 -28z"/>
<path d="M4780 2709 c-30 -79 -4 -140 27 -64 5 14 11 5 11 -20 1 -25 11 -45
21 -45 11 0 7 34 -8 78 -16 43 -23 84 -16 90 6 7 5 12 -2 12 -8 0 -23 -23 -33
-51z"/>
<path d="M5060 2696 c0 -25 -4 -64 -7 -86 -4 -22 -3 -29 1 -15 14 41 43 9 32
-35 -6 -22 -1 -40 11 -40 12 0 16 -15 9 -35 -8 -22 -5 -27 6 -15 10 11 24 24
32 31 8 6 1 37 -16 69 -17 33 -27 73 -22 90 4 17 -4 43 -19 56 -22 21 -27 17
-27 -20z"/>
<path d="M4040 2641 c0 -10 9 -24 20 -31 11 -7 20 -51 20 -97 0 -109 47 -186
70 -114 11 37 18 41 34 19 14 -20 16 -14 7 22 -7 28 -17 80 -22 118 -6 37 -15
75 -21 85 -14 23 -108 22 -108 -2z"/>
<path d="M5260 2550 c0 -19 -9 -27 -23 -18 -15 9 -18 5 -7 -12 10 -16 0 -37
-27 -58 l-43 -32 45 -28 c43 -27 43 -26 15 9 -21 26 -12 23 35 -11 35 -26 70
-64 76 -84 6 -20 27 -36 45 -35 31 0 31 2 -1 21 -59 34 -39 56 40 46 71 -10
72 -9 29 17 -25 15 -38 34 -30 43 9 9 -2 13 -24 9 -29 -5 -42 5 -46 38 -4 25
-15 45 -25 45 -11 0 -19 13 -19 29 0 16 -9 34 -20 41 -11 7 -20 -2 -20 -20z"/>
<path d="M2036 2482 c-18 -21 -27 -44 -21 -50 6 -7 2 -12 -10 -12 -20 0 -51
-62 -54 -106 -1 -8 -14 -23 -29 -33 -15 -9 -23 -30 -16 -47 6 -16 1 -39 -12
-52 -17 -17 -11 -21 26 -14 28 5 55 10 60 11 6 1 -1 9 -15 18 -20 12 -17 26
13 61 22 26 34 60 28 79 -9 23 1 20 32 -12 24 -25 53 -45 64 -45 12 0 7 14
-11 31 -36 37 -39 61 -11 79 11 7 15 -1 9 -16 -9 -23 47 -69 60 -49 9 12 -53
195 -66 195 -8 0 -29 -17 -47 -38z"/>
<path d="M3341 2435 c-13 -47 -28 -96 -34 -110 -16 -39 142 -32 175 8 25 29
23 31 -17 19 -27 -9 -45 -6 -45 7 0 11 13 21 30 21 53 0 -19 138 -73 140 -7 0
-23 -38 -36 -85z"/>
<path d="M4580 2504 c0 -8 14 -35 31 -60 17 -24 26 -44 19 -44 -7 0 1 -14 18
-31 17 -16 25 -43 19 -60 -6 -16 -1 -29 11 -29 14 0 18 -18 11 -45 -6 -26 2
-62 20 -85 30 -38 30 -37 11 16 -26 75 -25 80 10 67 24 -10 27 -4 12 22 -18
35 -22 49 -22 84 0 10 -11 30 -25 45 -14 14 -36 51 -50 81 -22 50 -65 76 -65
39z"/>
<path d="M426 2471 c-30 -17 -18 -23 64 -33 97 -11 98 -12 36 -27 -35 -8 -68
-28 -74 -43 -16 -42 42 -34 88 12 22 22 57 40 79 40 59 0 69 37 13 51 -87 22
-170 22 -206 0z"/>
<path d="M5464 2423 c-18 -12 -12 -22 24 -38 40 -19 54 -17 75 10 17 20 18 27
3 19 -13 -8 -29 -6 -36 6 -15 24 -31 25 -66 3z"/>
<path d="M4012 2388 c-15 -38 3 -73 29 -57 24 15 25 89 1 89 -10 0 -23 -14
-30 -32z"/>
<path d="M5191 2341 c-6 -10 -2 -24 11 -32 13 -8 17 -38 11 -71 -7 -32 -3 -58
8 -58 10 0 19 32 19 70 0 43 -10 70 -25 70 -17 1 -15 7 5 20 18 12 20 20 6 20
-13 0 -29 -8 -35 -19z"/>
<path d="M5654 2328 c5 -15 32 -28 58 -28 62 0 44 49 -21 53 -33 2 -45 -6 -37
-25z"/>
<path d="M5803 2257 c-14 -23 -18 -36 -8 -30 11 6 20 -16 21 -50 2 -75 16 -90
94 -102 33 -5 49 -5 35 0 -14 4 -25 17 -25 29 0 11 -14 15 -31 8 -37 -14 -72
64 -48 109 27 51 -8 84 -38 36z"/>
<path d="M5468 2216 c-7 -11 -28 -15 -47 -10 -27 7 -33 -2 -26 -44 6 -40 3
-45 -12 -23 -12 17 -27 24 -35 16 -7 -8 -3 -27 11 -43 18 -22 18 -40 1 -72
-19 -36 -15 -50 29 -91 l52 -48 -8 64 c-4 36 -14 80 -22 99 -17 41 1 76 39 76
17 0 25 -15 20 -38 -4 -22 5 -43 20 -49 17 -7 23 -27 15 -55 -7 -28 -4 -40 10
-31 13 8 17 -2 11 -27 -7 -27 -1 -40 20 -40 17 0 43 -3 57 -7 15 -3 20 -3 12
2 -8 5 -15 30 -15 55 0 26 -9 53 -20 60 -11 7 -20 28 -20 48 0 20 -18 52 -40
72 -52 47 -51 78 1 64 25 -7 38 -2 34 11 -10 29 -72 37 -87 11z"/>
<path d="M5146 2155 c7 -19 6 -35 -2 -35 -8 0 -15 -32 -16 -70 -1 -73 9 -85
46 -48 22 22 4 149 -25 175 -9 7 -10 -3 -3 -22z"/>
<path d="M4655 2101 c-7 -25 -4 -68 7 -97 11 -28 15 -63 9 -78 -6 -16 -2 -23
9 -16 11 7 20 4 20 -7 0 -11 -7 -23 -15 -28 -8 -5 -4 -6 8 -3 13 3 29 -9 36
-26 6 -18 16 -28 21 -22 5 5 -8 44 -30 87 -22 42 -35 92 -30 110 6 18 3 54 -6
80 l-17 46 -12 -46z"/>
<path d="M4840 2058 c0 -12 -13 -17 -29 -11 -19 7 -27 -2 -25 -28 3 -44 26
-52 41 -14 6 15 10 11 11 -10 1 -19 -5 -35 -15 -35 -9 0 -16 -13 -16 -29 0
-16 9 -24 20 -17 11 7 15 0 8 -19 -7 -17 1 -48 17 -68 28 -35 29 -34 17 12 -8
27 -13 92 -12 145 1 53 -2 96 -7 96 -6 0 -10 -10 -10 -22z"/>
<path d="M4982 2057 c-3 -50 20 -98 40 -86 21 13 24 -18 4 -39 -8 -8 -15 -34
-15 -58 -1 -26 -12 -42 -27 -39 -16 4 -21 -4 -13 -17 10 -15 0 -18 -31 -8 -31
10 -41 7 -31 -8 7 -12 26 -22 41 -22 14 0 30 -7 35 -15 5 -8 6 -4 3 9 -3 12 7
34 23 47 16 13 29 37 29 52 0 16 14 33 30 40 17 6 30 35 30 64 -1 37 -6 45
-18 26 -13 -21 -19 -20 -29 7 -7 18 -21 27 -31 21 -11 -6 -23 4 -28 24 -8 31
-10 31 -12 2z"/>
<path d="M5850 2041 c-9 -15 4 -44 33 -73 48 -48 48 -48 52 -6 1 23 -3 37 -10
30 -7 -7 -23 6 -36 30 -17 31 -28 36 -39 19z"/>
<path d="M5209 1962 c19 -31 -4 -127 -28 -113 -9 6 -13 -7 -7 -29 7 -25 1 -40
-15 -40 -14 0 -20 -6 -13 -13 8 -7 3 -26 -9 -41 -27 -32 -23 -37 45 -53 47
-11 51 -8 43 37 -5 28 -17 50 -26 50 -8 0 -5 27 7 59 17 45 28 54 48 38 20
-17 26 -14 26 11 0 17 -9 32 -20 32 -11 0 -20 13 -20 29 0 16 -10 35 -23 43
-15 9 -18 5 -8 -10z"/>
<path d="M5727 1932 c0 -16 22 -39 50 -51 44 -21 47 -20 24 8 -14 17 -18 31
-8 31 18 1 -35 39 -55 40 -6 0 -11 -13 -11 -28z"/>
<path d="M3784 1885 c1 -19 -5 -51 -13 -70 -9 -20 -7 -35 5 -35 10 0 25 20 31
45 18 65 16 95 -6 95 -10 0 -18 -16 -17 -35z"/>
<path d="M5300 1866 c1 -106 20 -125 72 -73 54 55 60 70 21 55 -16 -6 -43 4
-60 22 -31 30 -33 30 -33 -4z"/>
<path d="M521 1861 c-38 -24 7 -45 69 -32 22 4 45 9 50 10 16 3 -48 40 -70 40
-11 0 -33 -8 -49 -18z"/>
<path d="M1605 1848 c-19 -15 -24 -27 -12 -27 13 -1 36 -6 51 -11 15 -6 44 1
65 17 35 26 35 28 -16 37 -29 6 -69 -2 -88 -16z"/>
<path d="M5025 1751 c5 -27 0 -53 -11 -56 -12 -4 -15 -18 -7 -30 8 -13 27 -18
42 -13 37 15 33 123 -4 137 -23 9 -27 0 -20 -38z"/>
<path d="M4007 1755 c-9 -14 -18 -37 -20 -51 -5 -33 76 15 89 53 10 31 -50 30
-69 -2z"/>
<path d="M2668 1625 c-12 -19 -19 -55 -15 -80 4 -25 -3 -45 -14 -45 -14 0 -14
-12 0 -38 15 -28 14 -42 -4 -49 -19 -8 -19 -10 0 -11 17 -2 19 -16 5 -53 -25
-65 -25 -74 0 -59 11 7 20 3 20 -9 0 -11 -8 -21 -17 -21 -19 0 -15 -134 4
-154 7 -7 -1 -34 -18 -60 -17 -27 -26 -65 -19 -87 16 -48 16 -48 -80 1 -83 42
-170 53 -170 21 0 -11 16 -15 35 -8 27 8 29 6 7 -9 -15 -11 -20 -30 -12 -44
12 -19 19 -18 32 3 13 21 17 18 18 -10 0 -31 5 -34 30 -13 19 15 30 17 30 4 0
-12 -18 -27 -40 -34 -22 -7 -40 -21 -40 -31 0 -11 -15 -19 -34 -19 -30 0 -30
3 3 27 35 26 35 27 -5 38 -24 6 -42 5 -41 -2 6 -44 -6 -84 -22 -74 -10 6 -24
2 -32 -11 -10 -16 -19 -15 -30 4 -10 16 -7 33 6 41 13 8 18 21 10 29 -8 7 -28
2 -45 -12 -24 -20 -30 -20 -31 3 -1 41 -59 -43 -59 -86 0 -31 28 -35 255 -41
369 -9 363 -10 350 85 -9 67 -1 88 52 149 35 39 63 81 63 92 0 11 9 15 20 8
12 -7 14 -23 7 -36 -8 -13 5 -8 27 12 43 38 95 194 64 194 -9 0 -23 -22 -30
-50 -7 -27 -20 -45 -30 -39 -10 6 -19 -5 -19 -25 -1 -28 -5 -26 -20 10 -10 26
-28 41 -39 34 -11 -7 -15 -21 -9 -31 6 -11 -3 -19 -21 -19 -18 0 -28 -7 -22
-17 6 -9 -1 -16 -15 -16 -17 0 -25 33 -24 107 1 75 -8 113 -29 126 -25 16 -24
19 6 20 22 0 31 9 22 23 -8 13 -16 69 -18 125 -7 158 -9 172 -25 172 -9 0 -25
-16 -37 -35z m111 -610 c0 -42 -2 -43 -22 -8 -16 27 -26 31 -37 14 -10 -18
-18 -16 -27 7 -9 24 1 32 38 32 38 0 49 -10 48 -45z m-217 -124 c10 6 19 4 20
-5 0 -9 4 -31 8 -50 3 -18 -6 -38 -21 -44 -18 -7 -23 0 -15 21 10 27 5 28 -33
8 -61 -33 -72 -14 -28 46 20 27 40 41 44 31 3 -10 15 -13 25 -7z"/>
<path d="M4965 1621 c-12 -20 -18 -42 -12 -47 18 -19 67 9 67 37 0 44 -30 49
-55 10z"/>
<path d="M4735 1601 c-41 -40 -45 -61 -10 -61 48 1 80 34 62 65 -15 25 -22 25
-52 -4z"/>
<path d="M5052 1610 c13 -36 18 -73 26 -190 4 -64 33 -46 38 24 3 36 15 70 27
78 15 9 13 27 -4 60 -17 31 -29 39 -34 22 -7 -19 -17 -17 -39 10 -28 34 -29
34 -14 -4z"/>
<path d="M3223 1574 c-2 -31 -11 -51 -21 -45 -10 6 -23 -3 -30 -21 -24 -63
-11 -72 29 -21 25 31 38 72 33 98 -7 38 -9 36 -11 -11z"/>
<path d="M2427 1551 c-59 -26 -74 -102 -20 -106 22 -2 45 -10 51 -19 26 -35
62 -24 60 19 0 25 -6 34 -11 20 -19 -47 -46 -26 -28 22 24 62 2 89 -52 64z"/>
<path d="M4465 1513 c0 -67 18 -80 65 -45 26 19 32 37 20 64 -15 36 -17 36
-25 2 -8 -35 -10 -35 -34 -2 -24 32 -26 30 -26 -19z"/>
<path d="M4609 1515 c13 -41 62 -298 69 -360 1 -9 19 -4 41 9 21 13 34 31 29
40 -6 9 -2 16 9 16 11 0 24 -11 30 -25 6 -15 10 -11 11 10 1 19 -11 35 -28 35
-16 0 -30 12 -30 26 0 15 -18 46 -40 69 -43 46 -53 76 -19 55 11 -7 2 16 -20
53 -26 42 -32 70 -19 78 13 8 8 19 -13 27 -28 10 -31 5 -20 -33z"/>
<path d="M4793 1350 c24 -151 24 -151 94 -147 38 3 66 16 66 30 0 14 -7 21
-16 15 -10 -6 -23 4 -30 22 -7 18 -25 28 -40 22 -15 -6 -27 1 -27 15 0 14 -13
43 -28 64 -26 36 -28 34 -19 -21z"/>
<path d="M3072 1283 c-8 -12 -3 -42 9 -66 21 -38 19 -42 -14 -30 -34 12 -34
11 2 -17 34 -26 72 -40 71 -25 -3 42 -58 154 -68 138z"/>
<path d="M350 1219 c-26 -11 -30 -17 -10 -18 23 -1 24 -5 4 -18 -51 -32 62
-60 166 -41 100 19 142 38 83 38 -18 0 -33 9 -33 21 0 14 -14 13 -41 -2 -31
-16 -49 -16 -70 2 -16 13 -29 16 -29 6 0 -9 -7 -7 -15 5 -9 14 -31 16 -55 7z"/>
<path d="M2422 1190 c-2 -32 -6 -34 -21 -11 -14 23 -21 18 -32 -24 -7 -29 -7
-61 -1 -72 6 -10 -2 -24 -18 -30 -22 -9 -30 3 -30 43 -1 92 -32 117 -57 45
-12 -36 -13 -57 -2 -51 10 7 19 -11 19 -40 0 -29 -8 -47 -18 -41 -10 6 -17 0
-15 -14 7 -44 73 -50 73 -7 0 23 28 37 120 61 117 31 147 61 114 113 -17 27
-27 30 -38 12 -11 -16 -15 -13 -16 11 0 52 -40 43 -42 -10 -2 -43 -3 -43 -18
5 -13 42 -16 43 -18 10z"/>
<path d="M290 1100 c-22 -8 -47 -11 -55 -6 -8 4 -15 -1 -15 -13 0 -11 -13 -21
-30 -21 -17 0 -48 -18 -70 -40 -22 -22 -51 -40 -65 -40 -20 -1 -20 -4 0 -17
20 -12 18 -23 -10 -49 -91 -82 -34 -230 64 -166 55 36 61 98 8 81 -28 -9 -37
-1 -37 30 0 22 8 41 18 41 10 0 34 6 54 13 21 9 30 6 22 -7 -17 -27 110 -23
133 4 9 12 13 8 8 -10 -5 -16 -26 -33 -47 -37 -21 -4 -47 -16 -58 -28 -14 -14
-7 -17 22 -10 26 6 41 0 41 -18 0 -15 -9 -27 -20 -27 -54 0 16 -26 87 -33 70
-6 84 -1 104 43 12 27 30 50 39 50 9 0 17 22 17 49 0 35 -9 46 -29 39 -17 -7
-23 -25 -16 -45 10 -27 7 -29 -17 -9 -38 31 -83 3 -67 -41 9 -23 3 -33 -21
-33 -26 0 -32 11 -22 45 8 25 17 61 22 82 5 20 14 53 20 73 36 113 17 137 -80
100z m58 -95 c-18 -73 -21 -75 -59 -44 -29 24 -28 28 11 43 23 8 37 25 30 36
-7 11 -3 20 9 20 14 0 17 -21 9 -55z"/>
<path d="M2085 1090 c-14 -16 -24 -53 -23 -84 2 -56 2 -56 20 9 20 69 58 88
59 30 0 -33 1 -33 21 0 38 65 -26 103 -77 45z"/>
<path d="M325 690 c-6 -11 -5 -14 3 -7 8 7 41 6 72 -3 39 -11 64 -9 78 8 15
18 0 24 -61 23 -44 -1 -86 -10 -92 -21z"/>
<path d="M4042 692 c34 -34 680 -45 735 -12 22 12 -98 19 -355 19 -214 1 -385
-3 -380 -7z"/>
<path d="M250 640 c-7 -11 -35 -20 -62 -20 -28 0 -45 -8 -39 -18 14 -23 -76
-46 -117 -30 -23 9 -32 0 -32 -33 0 -43 5 -44 124 -32 143 15 187 42 114 71
-34 14 -38 20 -13 21 19 0 35 10 35 20 0 11 15 14 33 7 23 -9 29 -5 19 11 -18
28 -45 30 -62 3z"/>
<path d="M3620 625 c0 -8 47 -18 104 -21 58 -3 111 -15 118 -27 9 -14 17 -12
24 6 9 22 15 22 32 -3 15 -20 21 -22 22 -5 0 14 23 25 50 25 28 0 50 -9 50
-19 0 -11 14 -15 30 -8 17 6 43 1 58 -12 21 -17 32 -17 42 -1 20 32 0 45 -69
48 -34 1 -61 7 -61 13 0 7 -90 13 -200 16 -110 2 -200 -3 -200 -12z"/>
<path d="M4217 586 c-15 -18 -10 -22 21 -16 23 4 42 -1 42 -12 0 -12 14 -12
39 1 42 23 95 20 139 -8 21 -12 24 -10 12 9 -12 20 -5 23 27 15 24 -6 43 -3
43 7 0 17 -33 21 -227 26 -42 1 -85 -9 -96 -22z"/>
<path d="M5060 607 c1 -20 39 -83 40 -65 0 7 36 6 80 -2 45 -8 85 -8 91 1 12
20 82 12 149 -17 60 -26 40 -29 -152 -24 -98 2 -121 -4 -121 -29 0 -17 12 -31
28 -31 15 0 23 7 18 15 -5 8 53 14 130 14 106 -1 143 6 157 30 11 17 19 21 19
9 1 -12 12 -21 26 -21 14 0 50 -7 80 -14 33 -8 55 -6 55 7 0 11 -20 21 -45 22
-43 2 -43 3 5 17 51 15 131 1 84 -14 -47 -16 -23 -45 36 -45 33 0 60 -7 60
-16 0 -9 36 -15 80 -14 115 5 120 7 120 42 0 27 -15 30 -90 19 -94 -14 -192 3
-154 27 12 7 72 12 133 11 61 -1 111 5 111 13 0 48 -30 78 -77 76 l-53 -2 50
-17 c64 -21 -220 -19 -317 3 -78 17 -129 4 -109 -29 8 -14 2 -13 -18 2 -29 24
-144 32 -326 21 -11 0 -36 6 -55 14 -19 8 -35 7 -35 -3z"/>
<path d="M4885 571 c58 -42 40 -53 -65 -39 -69 9 -100 6 -100 -9 0 -13 13 -23
28 -23 27 0 62 -54 55 -86 -2 -10 6 -11 18 -3 12 7 18 30 13 51 -9 31 1 38 54
38 53 0 152 58 152 89 0 4 -43 8 -95 8 -82 0 -90 -4 -60 -26z"/>
<path d="M4042 467 c-29 -65 -12 -87 28 -36 34 45 37 63 13 77 -9 6 -28 -13
-41 -41z"/>
<path d="M4187 490 c-6 -16 -24 -30 -40 -30 -20 0 -24 -14 -15 -50 10 -41 5
-50 -30 -50 -23 0 -42 -12 -42 -28 0 -34 120 -55 155 -27 17 13 25 13 25 -1 0
-14 20 -15 60 -4 55 16 67 11 63 -22 -1 -7 21 -13 48 -13 27 0 49 8 49 18 0
29 60 19 72 -12 6 -16 23 -24 38 -18 15 5 46 0 70 -13 31 -17 50 -17 69 -1 20
17 35 14 59 -10 21 -21 32 -24 32 -7 0 16 13 12 38 -10 22 -20 43 -27 50 -15
17 27 83 13 76 -16 -3 -16 9 -19 35 -11 25 8 41 4 41 -10 0 -12 9 -17 20 -10
11 7 21 5 21 -4 1 -9 6 -36 10 -61 5 -27 -1 -45 -16 -45 -50 0 -175 42 -175
59 0 29 -63 10 -83 -25 -10 -18 -31 -27 -47 -21 -17 6 -25 19 -19 29 6 10 1
18 -11 18 -12 0 -16 10 -8 23 9 14 5 18 -8 9 -12 -7 -18 -25 -12 -39 7 -18
-10 -23 -61 -17 -48 6 -71 19 -71 40 0 29 -4 28 -35 -2 -29 -29 -30 -38 -7
-52 15 -10 20 -28 12 -41 -19 -31 147 -24 188 8 21 15 31 14 37 -4 10 -29 785
-37 785 -8 0 10 -21 13 -47 8 -38 -7 -50 1 -57 38 -8 42 -1 47 58 47 59 0 66
-6 66 -55 0 -30 10 -55 22 -55 13 0 17 15 9 33 -7 19 -1 41 13 50 39 24 56 20
56 -12 0 -36 58 -20 95 26 14 17 25 22 25 11 0 -11 19 -21 42 -23 58 -4 68
-19 38 -55 -21 -26 -17 -30 33 -28 31 0 46 6 32 11 -39 16 -29 47 15 47 29 0
40 13 40 48 0 57 -30 65 -263 70 -91 2 -173 9 -183 16 -10 6 -60 15 -111 20
-118 11 -146 16 -183 31 -16 7 -64 17 -106 22 -42 5 -81 14 -87 20 -24 23 15
47 63 38 32 -6 50 -1 50 16 0 14 -6 20 -13 13 -7 -8 -25 -4 -39 8 -33 27 -108
-11 -108 -55 0 -27 -15 -30 -95 -18 -52 9 -125 19 -161 22 -86 10 -103 22 -94
69 11 58 -23 49 -38 -10 -15 -57 -55 -64 -101 -19 -17 18 -31 22 -31 10 0 -11
-10 -21 -21 -21 -13 0 -16 17 -8 43 9 28 6 38 -9 28 -12 -7 -22 -25 -22 -40 0
-32 -116 -53 -134 -25 -7 11 -2 14 11 6 13 -8 23 -4 23 9 0 17 -27 20 -90 10
-105 -16 -126 25 -40 81 28 18 50 41 50 50 0 30 -61 20 -73 -12z m1013 -331
c0 -23 9 -36 20 -29 12 7 15 23 9 36 -7 13 7 2 31 -25 36 -41 46 -44 63 -20
17 24 22 24 31 2 9 -23 14 -23 27 -1 20 32 40 17 48 -35 7 -45 -46 -69 -96
-43 -20 11 -51 13 -70 6 -115 -46 -200 19 -111 84 33 24 34 30 8 46 -26 17
-25 19 5 20 22 0 35 -15 35 -41z"/>
<path d="M4444 488 c-35 -38 -30 -74 9 -59 19 7 40 3 47 -10 8 -12 15 5 15 36
2 62 -30 76 -71 33z"/>
<path d="M4971 486 c-6 -15 -2 -23 8 -17 9 6 22 0 28 -14 8 -20 10 -20 11 0 3
38 78 30 89 -10 6 -20 9 -14 7 15 -5 57 -123 79 -143 26z"/>
<path d="M1731 484 c-6 -6 -11 -25 -11 -42 1 -26 4 -26 18 -5 12 20 20 14 29
-23 15 -57 117 -103 170 -76 18 9 44 13 58 8 14 -5 25 -1 25 10 0 10 -27 24
-60 31 -33 7 -58 22 -55 35 5 23 -155 81 -174 62z"/>
<path d="M2151 484 c-23 -23 -9 -48 20 -36 18 6 26 3 19 -8 -7 -11 8 -20 34
-20 55 -1 126 -38 76 -41 -16 -1 -55 -5 -85 -9 -33 -4 -55 2 -56 16 0 13 -12
8 -27 -11 -14 -19 -41 -35 -59 -35 -18 0 -33 -12 -33 -28 0 -15 -13 -38 -30
-52 -16 -14 -30 -17 -30 -7 0 15 -60 19 -166 10 -24 -2 -34 -16 -30 -42 3 -22
-12 -52 -34 -69 -40 -30 -40 -30 0 -60 40 -30 40 -30 0 -62 -36 -30 -36 -32
-3 -22 20 7 45 12 56 12 11 0 14 18 7 40 -8 26 -3 40 14 41 14 1 55 4 91 8 45
4 65 -2 65 -22 0 -18 -16 -25 -45 -20 -25 4 -34 3 -20 -1 14 -5 25 -18 25 -29
0 -10 9 -14 20 -7 11 7 20 1 20 -14 1 -21 4 -20 18 1 14 23 19 23 28 0 6 -15
7 5 1 43 -7 48 -4 61 9 43 11 -16 24 -19 31 -8 7 11 35 15 63 10 37 -7 50 -1
50 23 0 17 -13 32 -30 32 -16 0 -30 7 -30 15 0 8 35 15 77 15 54 0 75 -8 68
-25 -5 -14 -22 -25 -37 -25 -15 0 -28 -9 -28 -20 0 -34 77 -22 98 15 20 33 21
33 21 -1 1 -28 8 -31 38 -16 26 14 44 13 61 -4 18 -18 27 -18 38 0 10 16 25
18 45 5 44 -28 65 -23 51 14 -10 26 -7 28 14 10 21 -17 27 -16 27 6 0 20 -33
33 -107 42 -180 23 -134 39 101 36 346 -5 318 -1 292 -49 -26 -49 -23 -54 57
-77 60 -17 61 -16 39 32 -12 26 -33 44 -46 39 -41 -16 -8 67 37 91 33 18 38
16 28 -10 -10 -25 -2 -31 32 -24 24 4 44 9 44 11 0 2 25 5 55 7 63 5 75 -21
14 -31 -22 -3 -38 -15 -35 -26 3 -11 11 -18 16 -17 6 2 38 9 70 16 l60 11 -57
-22 c-41 -16 -50 -28 -32 -39 14 -8 47 -7 74 3 27 10 57 13 67 7 10 -6 18 8
18 31 0 23 9 37 20 30 11 -7 20 7 20 30 0 24 9 37 20 30 12 -7 16 -20 11 -28
-5 -8 4 -15 21 -15 16 0 25 11 20 26 -6 14 -2 31 9 38 10 6 19 2 19 -10 0 -11
25 -20 55 -20 l55 2 -50 20 c-63 27 -124 33 -150 16 -32 -22 -130 -35 -118
-16 6 9 1 17 -10 17 -11 0 -25 -8 -31 -18 -10 -17 -101 -3 -171 26 -16 6 -66
16 -110 21 -286 35 -394 68 -178 54 132 -8 147 29 18 48 -59 9 -85 21 -76 36
7 13 -5 7 -27 -12 -22 -19 -53 -35 -69 -35 -23 1 -23 4 2 20 36 24 -12 67 -49
44 -12 -7 -41 -10 -66 -7 -25 3 -45 -5 -45 -18 0 -18 -7 -18 -30 1 -18 15 -30
17 -30 4 0 -11 -18 -16 -40 -10 -22 6 -40 16 -40 23 0 16 -134 22 -149 7z
m309 -125 c0 -20 -68 -15 -95 6 -45 36 -26 52 35 29 33 -13 60 -28 60 -35z
m338 -59 c55 0 105 -9 112 -21 9 -13 -7 -17 -41 -11 -30 6 -122 2 -205 -9
-122 -15 -160 -13 -195 10 -34 22 -50 23 -70 5 -23 -20 -23 -18 -1 10 19 26
34 29 59 14 23 -15 53 -12 103 9 46 19 81 23 103 11 19 -10 79 -18 135 -18z
m-498 -15 c-1 -47 -143 -89 -167 -49 -5 8 24 14 64 15 46 0 71 10 68 25 -3 13
4 24 15 24 11 0 20 -7 20 -15z"/>
<path d="M4339 458 c-30 -55 -6 -75 31 -27 34 46 38 69 11 69 -11 0 -30 -19
-42 -42z"/>
<path d="M3017 458 c-12 -7 -16 -24 -8 -37 11 -17 21 -17 43 0 28 24 31 22 36
-26 1 -14 39 -27 91 -31 50 -3 96 -16 103 -27 9 -15 17 -14 27 1 12 20 37 19
164 -6 33 -7 40 -1 33 28 -8 32 -58 51 -161 64 -14 1 -25 12 -25 24 0 12 -9 9
-20 -8 -16 -25 -19 -24 -20 7 0 31 -5 34 -30 13 -24 -20 -37 -19 -64 3 -29 23
-31 23 -17 -1 13 -21 10 -24 -11 -10 -34 22 -111 25 -141 6z"/>
<path d="M3542 422 c-35 -22 -11 -62 38 -62 21 0 44 -10 51 -22 7 -12 30 -17
51 -12 21 6 38 2 38 -8 0 -17 93 -15 131 4 10 5 53 9 94 9 42 -1 79 10 84 24
5 14 -5 25 -23 25 -18 0 -48 14 -67 31 -31 28 -35 28 -47 -2 -9 -25 -4 -30 19
-21 19 7 26 3 18 -10 -17 -27 -137 -9 -319 48 -22 7 -52 5 -68 -4z"/>
<path d="M514 407 c-19 -18 -18 -48 1 -44 38 8 88 -29 62 -46 -18 -11 -10 -15
26 -13 44 4 50 11 37 45 -9 25 -30 38 -51 34 -19 -3 -41 4 -48 16 -8 12 -20
15 -27 8z"/>
<path d="M5327 296 c-5 -9 7 -16 27 -16 20 0 59 -6 86 -13 42 -10 46 -8 24 15
-28 30 -121 40 -137 14z"/>
<path d="M600 264 c0 -13 10 -24 21 -24 13 0 16 -17 9 -40 -16 -49 39 -57 58
-8 19 51 14 73 -16 62 -15 -6 -37 -1 -50 12 -16 16 -22 16 -22 -2z"/>
<path d="M4002 255 c-2 -37 -148 -53 -169 -19 -6 8 -38 17 -73 20 -35 3 -59
-2 -53 -11 5 -8 -48 -12 -119 -8 -128 6 -150 -5 -103 -56 20 -22 19 -24 -5
-10 -26 14 -26 12 -2 -17 22 -28 33 -30 58 -9 24 20 32 20 39 0 6 -18 18 -19
49 -3 52 28 104 -12 56 -43 -26 -16 -25 -18 3 -19 18 0 38 14 44 30 13 33 93
42 93 10 0 -11 -9 -20 -20 -20 -11 0 -20 -8 -20 -18 0 -10 31 -9 70 3 58 18
68 29 59 63 -8 31 -6 35 7 14 11 -15 29 -21 41 -14 12 7 8 -19 -9 -59 -16 -40
-21 -67 -11 -61 11 7 25 1 31 -13 7 -17 10 -15 9 5 -4 63 4 78 33 67 37 -14
40 34 5 72 -20 21 -19 24 5 17 17 -5 33 -28 36 -51 10 -63 53 -92 84 -55 28
33 70 42 50 10 -7 -11 12 -20 44 -20 31 0 69 -9 84 -18 19 -12 39 -8 58 11 23
23 33 24 45 6 17 -28 79 -11 79 20 0 12 -14 21 -32 21 -20 0 -28 11 -21 29 8
22 -9 33 -63 41 -41 7 -92 22 -113 34 -29 16 -41 15 -47 -1 -9 -27 -84 -31
-84 -5 0 10 -11 17 -25 17 -66 -3 -93 8 -101 40 -9 33 -9 33 -12 0z"/>
<path d="M1070 200 c7 -11 3 -20 -9 -20 -11 0 -21 -9 -21 -20 0 -11 14 -20 31
-20 24 0 26 -8 9 -40 -17 -31 -15 -40 7 -40 38 0 62 122 28 143 -35 23 -60 21
-45 -3z"/>
<path d="M1169 120 c5 -33 0 -65 -10 -71 -11 -6 -19 -19 -19 -29 0 -10 25 5
55 32 l54 51 17 -52 c19 -56 114 -75 114 -22 0 41 -37 58 -68 32 -22 -17 -25
-10 -20 38 7 56 -32 112 -47 67 -21 -63 -61 -95 -51 -41 6 32 2 55 -11 55 -12
0 -18 -26 -14 -60z"/>
<path d="M3046 94 c-47 -60 -109 -86 -92 -38 11 29 6 28 -32 -5 -29 -26 -49
-32 -58 -18 -16 24 -147 28 -132 4 6 -9 -3 -12 -19 -5 -16 6 -35 1 -42 -11
-28 -45 323 -26 355 20 24 33 31 35 40 11 7 -16 1 -34 -12 -39 -13 -5 1 -11
31 -11 66 -2 76 49 14 68 -33 11 -36 19 -18 42 13 15 19 28 13 28 -6 0 -28
-21 -48 -46z"/>
<path d="M3380 59 c0 -12 -9 -16 -20 -9 -11 7 -20 3 -20 -9 0 -13 -20 -17 -50
-9 -28 7 -50 4 -50 -7 0 -17 135 -21 265 -8 53 5 42 33 -15 36 -27 1 -45 -5
-39 -15 6 -10 -2 -18 -19 -18 -19 0 -26 11 -19 30 6 17 1 30 -11 30 -12 0 -22
-10 -22 -21z"/>
</g>
</svg>
